<?xml version="1.0" encoding="utf-8"?>
<!-- Generator: Adobe Illustrator 27.5.0, SVG Export Plug-In . SVG Version: 6.00 Build 0)  -->
<svg version="1.1" xmlns="http://www.w3.org/2000/svg" xmlns:xlink="http://www.w3.org/1999/xlink" x="0px" y="0px"
	 viewBox="0 0 750 500" style="enable-background:new 0 0 750 500;" xml:space="preserve">

<g id="OBJECT">
	<g>
		<g>
			<path style="opacity:0.6;fill:#E8EAEF;" d="M566.727,317.477V179.649h-6.703v-13.945h-51.843v13.945h-6.662v173.272h-48.654
				v-78.469h-70.851V377.42h-34.231V192.976h-69.79v141.707h-8.191v-84.354h-12.624l-35.195-17.226v17.226h-7.698v104.179h-17.089
				V213.426h-17.281v-49.495h-2.367v49.495h-17.282v217.998h450.125V317.477H566.727z M193.031,304.081h-28.514v-3.066h28.514
				V304.081z M193.031,296.986h-28.514v-3.066h28.514V296.986z M193.031,289.881h-28.514v-3.066h28.514V289.881z M193.031,282.787
				h-28.514v-3.066h28.514V282.787z M193.031,275.692h-28.514v-3.066h28.514V275.692z M193.031,268.587h-28.514v-3.066h28.514
				V268.587z M193.031,261.492h-28.514v-3.066h28.514V261.492z M193.031,254.398h-28.514v-3.066h28.514V254.398z M193.031,247.293
				h-28.514v-3.066h28.514V247.293z M193.031,240.198h-28.514v-3.066h28.514V240.198z M193.031,233.104h-28.514v-3.066h28.514
				V233.104z M193.031,225.999h-28.514v-3.066h28.514V225.999z M193.031,218.904h-28.514v-3.066h28.514V218.904z M293.026,261.155
				h-8.491v-7.859h8.491V261.155z M293.026,248.047h-8.491v-7.869h8.491V248.047z M293.026,234.929h-8.491v-7.858h8.491V234.929z
				 M293.026,221.821h-8.491v-7.869h8.491V221.821z M293.026,208.703h-8.491v-7.869h8.491V208.703z M309.152,261.155h-8.48v-7.859
				h8.48V261.155z M309.152,248.047h-8.48v-7.869h8.48V248.047z M309.152,234.929h-8.48v-7.858h8.48V234.929z M309.152,221.821
				h-8.48v-7.869h8.48V221.821z M309.152,208.703h-8.48v-7.869h8.48V208.703z M325.288,261.155h-8.491v-7.859h8.491V261.155z
				 M325.288,248.047h-8.491v-7.869h8.491V248.047z M325.288,234.929h-8.491v-7.858h8.491V234.929z M325.288,221.821h-8.491v-7.869
				h8.491V221.821z M325.288,208.703h-8.491v-7.869h8.491V208.703z M341.412,261.155h-8.48v-7.859h8.48V261.155z M341.412,248.047
				h-8.48v-7.869h8.48V248.047z M341.412,234.929h-8.48v-7.858h8.48V234.929z M341.412,221.821h-8.48v-7.869h8.48V221.821z
				 M573.408,382.342h-8.823v-8.176h8.823V382.342z M573.408,365.969h-8.823v-8.176h8.823V365.969z M573.408,349.597h-8.823v-8.176
				h8.823V349.597z M573.408,333.224h-8.823v-8.176h8.823V333.224z M589.78,382.342h-8.823v-8.176h8.823V382.342z M589.78,365.969
				h-8.823v-8.176h8.823V365.969z M589.78,349.597h-8.823v-8.176h8.823V349.597z M589.78,333.224h-8.823v-8.176h8.823V333.224z
				 M606.151,382.342h-8.833v-8.176h8.833V382.342z M606.151,365.969h-8.833v-8.176h8.833V365.969z M606.151,349.597h-8.833v-8.176
				h8.833V349.597z M606.151,333.224h-8.833v-8.176h8.833V333.224z"/>
			<path style="fill:#E8EAEF;" d="M358.266,215.035v-60.982l-44.63,45.204v75.166h-28.753V166.699h-7.312l-20.819-18.029
				l-20.932,18.029h-7.191v145.375H171.14l0,0h-48.303v119.35h305.148V215.035H358.266z M277.571,253.687h-41.631v-3.941h41.631
				V253.687z M277.571,245.822h-41.631v-3.941h41.631V245.822z M277.571,237.957h-41.631v-3.932h41.631V237.957z M277.571,230.092
				h-41.631v-3.933h41.631V230.092z M277.571,222.235h-41.631v-3.941h41.631V222.235z M277.571,214.37h-41.631v-3.94h41.631V214.37z
				 M277.571,206.505h-41.631v-3.932h41.631V206.505z M277.571,198.64h-41.631v-3.933h41.631V198.64z M277.571,190.775h-41.631
				v-3.933h41.631V190.775z M277.571,182.918h-41.631v-3.941h41.631V182.918z M277.571,175.053h-41.631v-3.932h41.631V175.053z
				 M352.605,366.608h-4.322V173.082l4.322-4.389V366.608z"/>
			<path style="fill:#E8EAEF;" d="M592.723,253.687h-41.626v-3.943h41.626V253.687z M592.723,245.822h-41.626v-3.943h41.626V245.822
				z M592.723,237.956h-41.626v-3.933h41.626V237.956z M592.723,230.091h-41.626v-3.933h41.626V230.091z M592.723,222.236h-41.626
				v-3.943h41.626V222.236z M592.723,214.37h-41.626v-3.943h41.626V214.37z M592.723,206.505h-41.626v-3.933h41.626V206.505z
				 M592.723,198.639h-41.626v-3.933h41.626V198.639z M592.723,190.774h-41.626v-3.933h41.626V190.774z M592.723,182.918h-41.626
				v-3.943h41.626V182.918z M592.723,175.053h-41.626v-3.933h41.626V175.053z M600.04,274.43V166.7h-7.32l-20.81-18.03l-20.93,18.03
				h-7.2v145.37H437.99v118.5h189.17V274.43H600.04z"/>
			<path style="opacity:0.75;fill:#E8EAEF;" d="M392.867,304.081h-28.522v-3.063h28.522V304.081z M392.867,296.986h-28.522v-3.063
				h28.522V296.986z M392.867,289.882h-28.522v-3.063h28.522V289.882z M392.867,282.787h-28.522v-3.063h28.522V282.787z
				 M392.867,275.693h-28.522v-3.063h28.522V275.693z M392.867,268.588h-28.522v-3.063h28.522V268.588z M392.867,261.493h-28.522
				v-3.063h28.522V261.493z M392.867,254.399h-28.522v-3.063h28.522V254.399z M392.867,247.294h-28.522v-3.063h28.522V247.294z
				 M392.867,240.199h-28.522v-3.063h28.522V240.199z M392.867,233.105h-28.522v-3.063h28.522V233.105z M392.867,226h-28.522v-3.063
				h28.522V226z M392.867,218.906h-28.522v-3.073h28.522V218.906z M492.859,261.157h-8.487v-7.865h8.487V261.157z M492.859,248.045
				h-8.487v-7.865h8.487V248.045z M492.859,234.933h-8.487v-7.865h8.487V234.933z M492.859,221.82h-8.487v-7.865h8.487V221.82z
				 M492.859,208.708h-8.487v-7.875h8.487V208.708z M508.981,261.157h-8.477v-7.865h8.477V261.157z M508.981,248.045h-8.477v-7.865
				h8.477V248.045z M508.981,234.933h-8.477v-7.865h8.477V234.933z M508.981,221.82h-8.477v-7.865h8.477V221.82z M508.981,208.708
				h-8.477v-7.875h8.477V208.708z M525.124,261.157h-8.498v-7.865h8.498V261.157z M525.124,248.045h-8.498v-7.865h8.498V248.045z
				 M525.124,234.933h-8.498v-7.865h8.498V234.933z M525.124,221.82h-8.498v-7.865h8.498V221.82z M525.124,208.708h-8.498v-7.875
				h8.498V208.708z M541.245,261.157h-8.477v-7.865h8.477V261.157z M541.245,248.045h-8.477v-7.865h8.477V248.045z M541.245,234.933
				h-8.477v-7.865h8.477V234.933z M541.245,221.82h-8.477v-7.865h8.477V221.82z M581.85,274.45v102.97h-34.24V192.98h-69.78v141.7
				h-8.19v-84.35h-12.63l-35.19-17.23v17.23h-7.7V354.5h-17.09V213.42h-17.29v-49.49h-2.35v49.49H360.1v217.15h267.06V274.45H581.85
				z"/>
		</g>
		<g>
			<g>
				<g>
					<g>
						<g>
							<polyline style="fill:#296BEF;" points="265.408,137.068 270.102,139.571 267.755,133.47 							"/>
						</g>
						
							<ellipse transform="matrix(0.1607 -0.987 0.987 0.1607 91.0537 365.6095)" style="fill:#296BEF;" cx="260.498" cy="129.267" rx="9.92" ry="9.92"/>
					</g>
					<path style="fill:#FFBC47;" d="M264.681,126.558c-0.957-0.937-2.489-0.921-3.425,0.036l-0.617,0.63l-0.635-0.625
						c-0.953-0.939-2.486-0.927-3.425,0.026c-0.938,0.953-0.927,2.487,0.027,3.426l2.356,2.32c0.005,0.005,0.008,0.011,0.013,0.016
						c0.376,0.368,0.841,0.589,1.324,0.663c0.745,0.115,1.533-0.12,2.1-0.699l2.318-2.367
						C265.653,129.027,265.637,127.494,264.681,126.558z"/>
				</g>
				<g>
					<g>
						<g>
							<polyline style="fill:#296BEF;" points="433.628,88.608 429.578,90.701 431.657,85.498 							"/>
						</g>
						<path style="fill:#296BEF;" d="M446.195,82.086c-0.061,4.695-3.917,8.452-8.612,8.39c-4.695-0.061-8.452-3.917-8.391-8.612
							c0.061-4.695,3.917-8.452,8.612-8.39C442.5,73.535,446.257,77.39,446.195,82.086z"/>
					</g>
					<g>
						<g>
							<g>
								<path style="fill:#FFBC47;" d="M436.122,86.027c1.852,0.056,3.728,0.105,5.433,0.01c0.54-0.03,1.017-0.881,0.366-1.16
									c0.277-0.138,0.559-0.271,0.683-0.578c0.118-0.291-0.014-0.69-0.318-0.769c0.641,0.167,0.907-0.849,0.41-1.185
									c0.268-0.223,0.493-0.518,0.553-0.862c0.061-0.343-0.075-0.733-0.379-0.904c-0.199-0.112-0.438-0.119-0.666-0.124
									c-0.77-0.016-1.541-0.032-2.311-0.047c0.224-1.203,0.304-2.516-0.295-3.583c-0.18-0.321-0.671-0.71-1.068-0.47
									c-0.372,0.225-0.277,0.799-0.263,1.16c0.057,1.501-0.816,2.998-2.15,3.688C436.116,81.201,436.162,84.397,436.122,86.027z"
									/>
							</g>
						</g>
						
							<rect x="432.681" y="81.175" transform="matrix(0.9999 0.013 -0.013 0.9999 1.1263 -5.6508)" style="fill:#FFBC47;" width="2.8" height="4.82"/>
					</g>
				</g>
			</g>
			<path style="fill:none;stroke:#296BEF;stroke-miterlimit:10;" d="M265.44,209.792c0,1.079-0.875,1.955-1.954,1.955
				c-1.079,0-1.955-0.875-1.955-1.955c0-1.08,0.875-1.955,1.955-1.955C264.565,207.837,265.44,208.712,265.44,209.792z"/>
			<path style="fill:none;stroke:#296BEF;stroke-miterlimit:10;" d="M249.498,81.975c0,1.079-0.875,1.955-1.955,1.955
				c-1.08,0-1.955-0.875-1.955-1.955c0-1.079,0.875-1.954,1.955-1.954C248.623,80.02,249.498,80.895,249.498,81.975z"/>
			<path style="fill:#296BEF;" d="M356.352,88.1c0,1.079-0.875,1.954-1.954,1.954s-1.955-0.875-1.955-1.954
				c0-1.079,0.875-1.955,1.955-1.955S356.352,87.02,356.352,88.1z"/>
			<path style="fill:#296BEF;" d="M166.066,145.187c0,1.079-0.875,1.954-1.955,1.954s-1.955-0.875-1.955-1.954
				c0-1.079,0.875-1.955,1.955-1.955S166.066,144.107,166.066,145.187z"/>
			<path style="fill:#296BEF;" d="M638.663,208.367c0,1.079-0.875,1.954-1.955,1.954c-1.079,0-1.955-0.875-1.955-1.954
				s0.875-1.955,1.955-1.955C637.788,206.412,638.663,207.287,638.663,208.367z"/>
			<circle style="fill:none;stroke:#296BEF;stroke-miterlimit:10;" cx="495.352" cy="136.52" r="1.955"/>
			<g>
				<g>
					<path style="fill:#296BEF;" d="M227.196,366.214c-0.281,0-0.509-0.228-0.509-0.509v-3.594c0-0.281,0.228-0.509,0.509-0.509
						c0.281,0,0.509,0.228,0.509,0.509v3.594C227.706,365.986,227.478,366.214,227.196,366.214z"/>
				</g>
				<g>
					<path style="fill:#296BEF;" d="M228.994,364.417h-3.594c-0.281,0-0.509-0.228-0.509-0.509c0-0.281,0.228-0.509,0.509-0.509
						h3.594c0.281,0,0.509,0.228,0.509,0.509C229.503,364.189,229.275,364.417,228.994,364.417z"/>
				</g>
			</g>
			<g>
				<g>
					<path style="fill:#296BEF;" d="M134.109,244.398c-0.281,0-0.509-0.228-0.509-0.509v-3.594c0-0.281,0.228-0.509,0.509-0.509
						c0.281,0,0.509,0.228,0.509,0.509v3.594C134.618,244.17,134.39,244.398,134.109,244.398z"/>
				</g>
				<g>
					<path style="fill:#296BEF;" d="M135.906,242.601h-3.594c-0.281,0-0.509-0.228-0.509-0.509c0-0.281,0.228-0.509,0.509-0.509
						h3.594c0.281,0,0.509,0.228,0.509,0.509C136.415,242.373,136.187,242.601,135.906,242.601z"/>
				</g>
			</g>
			<g>
				<g>
					<path style="fill:#296BEF;" d="M568.303,103.357c-0.281,0-0.509-0.228-0.509-0.509v-3.594c0-0.281,0.228-0.509,0.509-0.509
						c0.281,0,0.509,0.228,0.509,0.509v3.594C568.812,103.129,568.584,103.357,568.303,103.357z"/>
				</g>
				<g>
					<path style="fill:#296BEF;" d="M570.1,101.56h-3.594c-0.281,0-0.509-0.228-0.509-0.509c0-0.281,0.228-0.509,0.509-0.509h3.594
						c0.281,0,0.509,0.228,0.509,0.509C570.609,101.332,570.381,101.56,570.1,101.56z"/>
				</g>
			</g>
			<g>
				<g>
					<path style="fill:#296BEF;" d="M562.235,227.611c-0.281,0-0.509-0.228-0.509-0.509v-3.594c0-0.281,0.228-0.509,0.509-0.509
						c0.281,0,0.509,0.228,0.509,0.509v3.594C562.745,227.383,562.517,227.611,562.235,227.611z"/>
				</g>
				<g>
					<path style="fill:#296BEF;" d="M564.033,225.814h-3.594c-0.281,0-0.509-0.228-0.509-0.509c0-0.281,0.228-0.509,0.509-0.509
						h3.594c0.281,0,0.509,0.228,0.509,0.509C564.542,225.585,564.314,225.814,564.033,225.814z"/>
				</g>
			</g>
		</g>
		<polyline style="fill:none;stroke:#E8EAEF;stroke-miterlimit:10;" points="677.5,430.57 627.16,430.57 437.99,430.57 
			360.1,430.57 71.5,430.57 		"/>
		<g>
			<g>
				<path style="fill:#A4D6FB;" d="M578.84,397.815l4.674,31.941c0.506,3.46,3.417,6.056,6.912,6.153
					c3.175,0.088,7.853,0.163,14.598,0.163c6.988,0,11.858-0.08,15.151-0.173c3.497-0.098,6.415-2.691,6.922-6.153l4.673-31.931
					H578.84z"/>
				<path style="fill:#A4D6FB;" d="M605.305,418.388c9.743,0,18.401-1.228,23.913-3.13l2.471-16.889h-52.768l2.471,16.889
					C586.904,417.16,595.562,418.388,605.305,418.388z"/>
				<path style="fill:#78C1F4;" d="M635.454,406.525c0,4.419-13.498,8.001-30.149,8.001c-16.651,0-30.149-3.582-30.149-8.001
					l-1.45-12.018h63.197L635.454,406.525z"/>
				<path style="fill:#A4D6FB;" d="M636.904,394.506c0,4.631-14.147,8.385-31.599,8.385c-17.451,0-31.599-3.754-31.599-8.385
					c0-4.631,14.147-8.386,31.599-8.386C622.756,386.121,636.904,389.875,636.904,394.506z"/>
				<ellipse style="fill:#2F36AD;" cx="605.305" cy="394.349" rx="28.254" ry="6.321"/>
				<path style="opacity:0.5;fill:#2F36AD;" d="M578.344,396.244c3.599-2.565,14.308-4.426,26.961-4.426
					c12.653,0,23.362,1.861,26.961,4.426c0.839-0.598,1.293-1.235,1.293-1.895c0-3.491-12.65-6.321-28.254-6.321
					c-15.604,0-28.254,2.83-28.254,6.321C577.051,395.009,577.505,395.646,578.344,396.244z"/>
				<g>
					<path style="fill:#FFBC47;" d="M627.562,344.148c2.04-7.338-0.439-13.133-3.134-19.68c-2.695-6.547-3.146-13.494-2.115-20.38
						c1.382-9.345,4.482-18.371,0.903-27.429c-3.353-8.554-6.592-19.825-15.844-23.43c-8.995-3.842-15.8,5.029-15.648,13.201
						c0.152,8.172,4.792,15.543,2.474,23.612c-1.762,6.608-4.07,14.429-0.623,20.76c4.125,7.844,11.812,13.363,8.938,22.893
						c-1.133,3.417-2.987,6.308-3.379,9.756c-0.465,5.177,2.153,6.448,4.505,10.582c9.902,17.404-8.238,24.421-1.119,43.537
						c0.199,0.535,0.718,0.885,1.288,0.856l0,0c0.626-0.032,1.151-0.509,1.217-1.133c2.265-21.378,17.504-14.007,17.663-31.326
						c0.03-3.223-0.966-6.474-0.584-9.675C622.557,351.362,626.377,348.8,627.562,344.148z"/>
					<path style="fill:#FFBC47;" d="M618.731,365.358c-0.232,0-0.421,0.188-0.421,0.421c-0.001,0.435-0.165,10.381-10.196,11.924
						c0.785-1.396,1.619-2.722,2.449-4.034c1.873-2.961,3.642-5.757,4.673-9.185c2.8-9.323,2.439-17.265,0.757-24.703
						c7.071-3.488,5.122-15.397,5.034-15.911c-0.04-0.228-0.258-0.374-0.486-0.343c-0.229,0.039-0.382,0.258-0.343,0.486
						c0.021,0.118,1.915,11.605-4.398,14.943c-0.917-3.817-2.161-7.511-3.499-11.195c-2.87-7.899-1.45-18.228-0.511-25.063
						c0.041-0.299,0.079-0.58,0.118-0.865c8.859-1.967,9.406-13.298,9.411-13.414c0.008-0.232-0.172-0.426-0.404-0.436
						c-0.006,0-0.012,0-0.017,0c-0.224,0-0.411,0.178-0.421,0.404c-0.003,0.108-0.523,10.517-8.449,12.543
						c0.133-1.005,0.244-1.915,0.309-2.689c0.325-4.489,0.394-8.579,0.223-12.287c0-0.028,0.001-0.055-0.004-0.081
						c-0.477-10.143-2.798-17.348-6.957-21.462c-0.165-0.163-0.43-0.163-0.595,0.004c-0.163,0.165-0.162,0.431,0.004,0.595
						c3.932,3.89,6.16,10.71,6.682,20.314c-5.909-2.303-6.764-12.665-6.772-12.774c-0.017-0.23-0.191-0.405-0.45-0.388
						c-0.232,0.017-0.405,0.219-0.388,0.45c0.035,0.473,0.932,11.412,7.658,13.631c0.152,3.603,0.077,7.576-0.238,11.932
						c-0.099,1.18-0.304,2.676-0.542,4.408c-0.534,3.884-1.22,8.881-1.2,13.951c-8.233-3.107-8.833-13.187-8.837-13.291
						c-0.011-0.225-0.197-0.4-0.421-0.4c-0.006,0-0.013,0-0.02,0.001c-0.232,0.011-0.411,0.207-0.4,0.438
						c0.006,0.112,0.633,11.005,9.696,14.163c0.078,3.66,0.543,7.326,1.734,10.604c3.687,10.152,6.708,20.358,3.729,33.125
						c-6.592-1.264-7.482-10.488-7.49-10.582c-0.02-0.23-0.209-0.384-0.456-0.383c-0.23,0.02-0.402,0.225-0.383,0.456
						c0.009,0.1,0.952,9.912,8.132,11.324c-0.187,0.744-0.384,1.492-0.613,2.254c-0.998,3.319-2.737,6.067-4.578,8.978
						c-0.976,1.541-1.983,3.143-2.914,4.894c-0.003,0.007-0.008,0.012-0.01,0.019c-2.55,4.801-4.505,10.76-3.52,19.944
						c0.024,0.215,0.205,0.375,0.418,0.375c0.014,0,0.03-0.001,0.045-0.002c0.23-0.025,0.398-0.232,0.373-0.463
						c-0.959-8.947,0.853-14.626,3.36-19.35c11.4-1.306,11.546-12.739,11.546-12.856
						C619.151,365.547,618.963,365.358,618.731,365.358z"/>
					<path style="opacity:0.2;" d="M622.665,364.993c0.015,0.325,0.025,0.649,0.022,0.974c-0.104,11.368-6.706,12.098-11.871,17.305
						c0.605-3.034,0.748-6.788,2.775-9.264c2.225-2.472,5.192-2.967,7.417-5.934C621.813,366.961,622.344,365.944,622.665,364.993z
						 M624.428,324.468c-2.695-6.547-3.146-13.494-2.115-20.38c0.1-0.677,0.21-1.353,0.325-2.028
						c-3.536,1.364-6.325,3.964-8.006,7.53c-5.005,10.617-1.062,17.822,3.244,25.854c3.514,6.555,1.236,12.609,1.978,19.532
						c0.31,2.894,1.57,5.14,2.553,7.298c-0.249-2.001-0.54-4.001-0.304-5.982c0.454-4.93,4.273-7.492,5.458-12.144
						C629.602,336.81,627.123,331.015,624.428,324.468z M605.745,380.085c-0.699-1.502-1.537-3.128-1.681-4.772
						c-2.259,5.921-4.774,12.052-2.076,20.697c0.007,0.023,0.015,0.046,0.022,0.069c0.154,0.489,0.321,0.984,0.509,1.49
						c0.037,0.099,0.088,0.189,0.145,0.274c0.01,0.015,0.019,0.029,0.029,0.043c0.06,0.083,0.129,0.158,0.206,0.224
						c0.005,0.004,0.009,0.007,0.014,0.011c0.245,0.204,0.559,0.32,0.893,0.303l0,0c0.251-0.013,0.483-0.1,0.678-0.236
						c0.389-0.285,0.48-0.607,0.523-0.818c0.005-0.026,0.013-0.051,0.016-0.078c0.337-3.183,0.964-5.725,1.783-7.809
						c-0.469,0.305-0.949,0.588-1.425,0.887C606.91,386.906,607.966,384.856,605.745,380.085z"/>
				</g>
				<g>
					<path style="fill:#6774FF;" d="M650.851,340.345c-4.45-8.159-4.439-13.555-3.956-22.251c0.495-8.9-2.225-20.768-13.103-22.746
						c-8.159-1.483-14.795,1.826-17.831,8.265c-5.005,10.617-1.062,17.822,3.244,25.854c3.514,6.555,1.236,12.609,1.978,19.532
						c0.742,6.923,6.923,10.137,1.731,17.306c-2.225,2.967-5.192,3.461-7.417,5.934c-2.225,2.72-2.178,6.982-2.967,10.137
						c-1.993,7.969-9.796,6.839-10.122,14.915c-0.024,0.602,0.464,1.203,0.888,1.183c0.425-0.02,0.761,0.06,1.062-0.475
						c1.83-3.252,4.852-2.751,8.238-4.251c2.514-1.114,3.286-4.215,9.329-4.945c7.889-0.952,15.081,4.203,19.037-6.428
						c1.484-3.709,0.989-6.923,1.731-10.631c0.742-4.945,3.956-7.911,7.17-11.373C655.548,353.943,654.807,347.515,650.851,340.345z
						"/>
					<g>
						<g>
							<path style="fill:#6774FF;" d="M635.198,325.191c-0.012,0-0.024,0-0.036-0.001c-7.394-0.633-12.554-9.634-12.77-10.017
								c-0.114-0.202-0.043-0.458,0.159-0.573c0.202-0.114,0.459-0.043,0.573,0.159c0.051,0.09,5.161,8.998,12.11,9.592
								c0.232,0.02,0.403,0.223,0.384,0.455C635.599,325.026,635.415,325.191,635.198,325.191z"/>
						</g>
						<g>
							<path style="fill:#6774FF;" d="M633.084,363.904c-0.081,0-0.161-0.022-0.233-0.07c-5.413-3.598-5.084-19.72-5.067-20.406
								c0.006-0.232,0.185-0.417,0.431-0.41c0.232,0.006,0.416,0.198,0.41,0.431c-0.003,0.163-0.337,16.342,4.692,19.683
								c0.194,0.128,0.246,0.39,0.118,0.583C633.354,363.837,633.22,363.904,633.084,363.904z"/>
						</g>
						<g>
							<path style="fill:#6774FF;" d="M635.853,349.487c-0.184,0-0.353-0.121-0.405-0.306c-0.063-0.224,0.068-0.456,0.291-0.519
								c8.52-2.387,9.202-16.185,9.208-16.324c0.009-0.232,0.202-0.406,0.438-0.403c0.232,0.011,0.412,0.207,0.403,0.438
								c-0.026,0.593-0.72,14.547-9.821,17.099C635.929,349.483,635.89,349.487,635.853,349.487z"/>
						</g>
						<g>
							<path style="fill:#6774FF;" d="M623.359,385.18c-0.893,0-1.83-0.077-2.818-0.246c-0.228-0.039-0.382-0.257-0.343-0.486
								c0.04-0.227,0.242-0.376,0.486-0.343c12.451,2.135,16.973-11.044,17.017-11.179c0.072-0.22,0.311-0.339,0.532-0.266
								c0.22,0.074,0.34,0.311,0.266,0.532C638.457,373.322,634.379,385.18,623.359,385.18z"/>
						</g>
						<g>
							<path style="fill:#6774FF;" d="M634.366,318.63c-0.114,0-0.227-0.046-0.31-0.137c-0.157-0.171-0.145-0.437,0.026-0.594
								c5.33-4.878,1.791-15.37,1.754-15.475c-0.075-0.22,0.042-0.46,0.26-0.536c0.226-0.073,0.46,0.043,0.536,0.26
								c0.156,0.453,3.756,11.119-1.982,16.37C634.569,318.594,634.467,318.63,634.366,318.63z"/>
						</g>
						<g>
							<path style="fill:#6774FF;" d="M603.382,398.124c-0.037,0-0.074-0.005-0.11-0.014c-0.224-0.062-0.356-0.292-0.296-0.517
								c0.972-3.572,5.111-5.393,7.85-6.598c0.83-0.366,1.548-0.681,1.971-0.956c22.255-14.47,28.328-41.971,18.564-84.075
								c-0.052-0.226,0.089-0.453,0.315-0.505c0.229-0.051,0.453,0.09,0.505,0.315c9.853,42.49,3.662,70.283-18.926,84.971
								c-0.481,0.312-1.226,0.64-2.089,1.02c-2.593,1.14-6.512,2.865-7.378,6.05C603.737,398,603.567,398.124,603.382,398.124z"/>
						</g>
					</g>
					<path style="opacity:0.75;fill:#15CCBE;" d="M602.407,397.29c-0.024,0.602,0.464,1.203,0.888,1.183
						c0.022-0.001,0.043-0.001,0.064-0.002c1.327-1.001-0.35-2.428,1.664-7.152C603.601,392.69,602.524,394.4,602.407,397.29z"/>
				</g>
				<g>
					<path style="fill:#FF9422;" d="M603.897,377.722c-2.453-5.269-0.139-12.046-2.552-15.89c-2.954-4.808-7.889-1.151-13.621-7.76
						c-4.811-5.547-1.347-13.234-12.298-18.963c-3.344-1.749-7.221-0.891-8.525,2.885c-1.562,3.54,0.909,8.62,2.064,12.029
						c1.124,2.901,2.458,5.056,1.895,8.274c-0.006,0.033-0.013,0.069-0.022,0.102c-0.632,2.472-2.273,3.792-1.395,6.7
						c1.826,7.09,11.871,6.453,16.94,10.873c3.575,3.117,0.349,6.839,3.852,11.557c3.469,4.673,5.244-0.409,11.487,10.652
						c0.224,0.397,0.731,0.537,1.128,0.312l0,0c0.277-0.157,0.439-0.462,0.414-0.78
						C602.359,385.747,607.507,385.477,603.897,377.722z"/>
					<path style="fill:#FF9422;" d="M599.079,386.363c-0.759-1.213-1.45-2.329-1.861-3.631c3.875-3.208,1.719-10.854,1.622-11.185
						c-0.065-0.223-0.299-0.347-0.521-0.286c-0.222,0.065-0.351,0.298-0.286,0.522c0.021,0.073,1.978,7.005-1.05,10.035
						c-0.114-0.591-0.17-1.225-0.15-1.928c0.043-1.444,0.044-2.841-0.089-4.186c0.001-0.016,0.007-0.03,0.006-0.046
						c-0.002-0.028-0.013-0.052-0.02-0.078c-0.256-2.424-0.975-4.671-2.747-6.686c2.587-3.292-1.041-9.415-1.203-9.682
						c-0.119-0.2-0.381-0.264-0.577-0.143c-0.198,0.12-0.262,0.378-0.143,0.577c0.035,0.059,3.409,5.749,1.34,8.625
						c-0.786-0.774-1.742-1.512-2.91-2.21c-3.941-2.356-6.999-4.767-9.393-7.574c2.579-3.366-0.513-11.144-0.651-11.485
						c-0.087-0.215-0.329-0.321-0.548-0.232c-0.215,0.087-0.318,0.333-0.232,0.548c0.032,0.077,2.953,7.408,0.89,10.49
						c-3.63-4.551-5.644-10.155-6.874-18.182c-0.034-0.228-0.226-0.39-0.48-0.352c-0.229,0.036-0.386,0.249-0.352,0.48
						c0.605,3.949,1.403,7.311,2.473,10.272c-4.094-1.866-4.637-6.305-4.66-6.505c-0.025-0.23-0.238-0.39-0.464-0.372
						c-0.23,0.026-0.397,0.233-0.372,0.463c0.006,0.058,0.68,5.625,5.888,7.469c1.162,2.921,2.632,5.427,4.509,7.682
						c0.014,0.018,0.009,0.043,0.026,0.06c0.009,0.008,0.022,0.005,0.032,0.013c1.079,1.288,2.302,2.492,3.669,3.648
						c-5.783,1.624-10.447-3.628-10.497-3.684c-0.151-0.176-0.416-0.194-0.593-0.042c-0.175,0.152-0.194,0.417-0.043,0.593
						c0.045,0.051,3.799,4.305,8.89,4.305c0.962,0,1.974-0.161,3.016-0.522c1.577,1.257,3.343,2.461,5.332,3.65
						c3.998,2.389,5.379,5.211,5.798,8.489c-7.795,0.276-10.574-4.189-10.691-4.383c-0.119-0.199-0.378-0.263-0.576-0.146
						c-0.198,0.119-0.265,0.375-0.147,0.575c0.122,0.207,2.946,4.82,10.694,4.82c0.26,0,0.536-0.014,0.808-0.024
						c0.095,1.191,0.087,2.441,0.048,3.749c-0.089,3.006,1.052,4.833,2.375,6.948c0.188,0.301,0.38,0.608,0.571,0.924
						c-7.089-1.348-7.923-5.644-7.956-5.833c-0.038-0.228-0.249-0.397-0.483-0.344c-0.228,0.038-0.384,0.252-0.346,0.481
						c0.035,0.22,0.974,5.36,9.34,6.649c1.216,2.182,2.306,4.929,2.445,9.458c0.007,0.228,0.194,0.407,0.42,0.407
						c0.004,0,0.008,0,0.013,0c0.232-0.007,0.414-0.201,0.407-0.434C602.591,391.979,600.644,388.866,599.079,386.363z"/>
				</g>
			</g>
			<g>
				<g>
					<g>
						<path style="fill:#6774FF;" d="M180.535,365.934c-0.075-0.171-3.802-0.745-4.121-0.29c-0.319,0.455,0.324,1.416,0.611,1.855
							c0.287,0.439,1.769,0.839,2.29,0.536C179.835,367.732,180.984,366.955,180.535,365.934z"/>
						<path style="fill:#FEC752;" d="M184.2,362.72c-0.21,0.28-0.27,0.65-0.16,0.98l1.72,5.07c0.28,0.84-0.52,1.64-1.36,1.35
							l-5.06-1.72c-0.34-0.12-0.7-0.06-0.98,0.15l-4.29,3.19c-0.71,0.53-1.72,0.02-1.71-0.87l0.04-2.55l0.04-2.79
							c0-0.36-0.17-0.69-0.45-0.89l-4.37-3.09c-0.72-0.51-0.54-1.63,0.31-1.89l5.1-1.59c0.34-0.1,0.6-0.36,0.71-0.7l0.78-2.49
							l0.81-2.61c0.26-0.85,1.38-1.02,1.89-0.3l3.09,4.37c0.2,0.29,0.53,0.46,0.88,0.45l5.35-0.06c0.88-0.01,1.39,1,0.86,1.71
							L184.2,362.72z"/>
					</g>
					<g>
						<path style="fill:#6774FF;" d="M154.636,354.023c-0.075-0.171-3.802-0.745-4.121-0.29c-0.319,0.455,0.323,1.416,0.611,1.855
							c0.287,0.439,1.769,0.839,2.29,0.536C153.936,355.821,155.084,355.043,154.636,354.023z"/>
						<path style="fill:#FEC752;" d="M158.3,350.81c-0.21,0.28-0.27,0.65-0.15,0.98l1.71,5.07c0.28,0.84-0.52,1.63-1.36,1.35
							l-1.59-0.54l-3.47-1.18c-0.33-0.12-0.7-0.06-0.98,0.15l-4.29,3.19c-0.71,0.53-1.72,0.02-1.71-0.87l0.08-5.35
							c0-0.35-0.17-0.68-0.45-0.88l-4.37-3.09c-0.72-0.52-0.54-1.63,0.31-1.9l5.09-1.58h0.01c0.34-0.1,0.6-0.36,0.71-0.7l1.59-5.1
							c0.27-0.85,1.38-1.02,1.89-0.3l3.09,4.37c0.2,0.29,0.53,0.46,0.88,0.45l5.35-0.06c0.88-0.01,1.4,1,0.87,1.71L158.3,350.81z"/>
					</g>
					<g>
						<path style="fill:#6774FF;" d="M134.253,364.242c-0.075-0.171-3.802-0.745-4.121-0.29c-0.319,0.455,0.323,1.416,0.611,1.855
							c0.287,0.439,1.769,0.839,2.289,0.536C133.553,366.04,134.701,365.263,134.253,364.242z"/>
						<path style="fill:#FEC752;" d="M134.63,359.02c-0.21,0.28-0.27,0.65-0.16,0.98l1.71,5.07c0.29,0.84-0.52,1.64-1.35,1.35
							l-1.31-0.44l-3.76-1.28c-0.33-0.12-0.7-0.06-0.98,0.15l-4.29,3.2c-0.71,0.52-1.71,0.01-1.7-0.88l0.07-5.34
							c0.01-0.35-0.16-0.69-0.45-0.89l-4.36-3.09c-0.72-0.51-0.54-1.63,0.3-1.89l5.11-1.58c0.34-0.11,0.6-0.37,0.7-0.71l1.6-5.1
							c0.26-0.85,1.38-1.02,1.89-0.3l3.08,4.37c0.2,0.29,0.53,0.46,0.88,0.45h0.01l5.34-0.06c0.89-0.01,1.4,1,0.87,1.71
							L134.63,359.02z"/>
					</g>
					<g>
						<g>
							<g>
								<polyline style="fill:#FFFFFF;" points="171.091,366.848 177.529,367.611 172.162,361.723 								"/>
							</g>
							<line style="opacity:0.2;fill:#020202;" x1="178.755" y1="367.611" x2="173.388" y2="361.723"/>
							<path style="opacity:0.2;fill:#020202;" d="M172.4,368.32l0.04-2.79c0-0.36-0.17-0.69-0.45-0.89l-4.37-3.09
								c-0.72-0.51-0.54-1.63,0.31-1.89l5.1-1.59c0.34-0.1,0.6-0.36,0.71-0.7l0.78-2.49c0.12,0.25,0.23,0.51,0.33,0.77
								C176.6,360.13,175.49,365.03,172.4,368.32z"/>
							<path style="opacity:0.2;fill:#020202;" d="M149.596,364.586c2.426,6.221,9.436,9.296,15.657,6.87
								c6.221-2.427,9.296-9.436,6.87-15.657c-2.426-6.221-9.436-9.296-15.657-6.87
								C150.245,351.356,147.169,358.366,149.596,364.586z"/>
							<path style="fill:#FFFFFF;" d="M151.101,364.44c2.426,6.221,9.436,9.296,15.657,6.87c6.221-2.426,9.296-9.436,6.87-15.657
								c-2.426-6.221-9.436-9.296-15.657-6.87C151.75,351.21,148.674,358.219,151.101,364.44z"/>
						</g>
						<g>
							<g>
								<g>
									<path style="fill:#296BEF;" d="M166.482,364.656c-2.438,1-4.91,2.002-7.229,2.726c-0.734,0.229-1.794-0.665-1.066-1.362
										c-0.438-0.045-0.879-0.081-1.198-0.428c-0.302-0.329-0.326-0.926,0.039-1.183c-0.769,0.543-1.632-0.677-1.138-1.372
										c-0.468-0.162-0.915-0.444-1.167-0.871c-0.252-0.427-0.266-1.014,0.053-1.393c0.209-0.248,0.524-0.377,0.825-0.498
										c1.018-0.406,2.036-0.812,3.054-1.217c-0.9-1.49-1.662-3.198-1.397-4.918c0.08-0.518,0.539-1.281,1.188-1.159
										c0.608,0.114,0.768,0.925,0.929,1.413c0.673,2.027,2.584,3.585,4.704,3.836
										C164.079,358.229,165.614,362.507,166.482,364.656z"/>
								</g>
							</g>
							
								<rect x="165.988" y="356.959" transform="matrix(-0.9316 0.3634 -0.3634 -0.9316 455.4353 635.0938)" style="fill:#296BEF;" width="3.982" height="6.855"/>
						</g>
					</g>
					<g>
						<g>
							<g>
								<polyline style="fill:#FFFFFF;" points="138.342,367.755 132.742,371.021 135.317,363.482 								"/>
							</g>
							<path style="opacity:0.2;fill:#020202;" d="M156.91,357.58v0.09l-3.47-1.18c-0.33-0.12-0.7-0.06-0.98,0.15l-4.29,3.19
								c-0.71,0.53-1.72,0.02-1.71-0.87l0.08-5.35c0-0.35-0.17-0.68-0.45-0.88l-4.37-3.09c-0.72-0.52-0.54-1.63,0.31-1.9l5.09-1.58
								C152.52,347.2,156.7,351.85,156.91,357.58z"/>
							<path style="opacity:0.2;fill:#020202;" d="M134.63,359.02c-0.21,0.28-0.27,0.65-0.16,0.98l1.71,5.07
								c0.29,0.84-0.52,1.64-1.35,1.35l-1.31-0.44c-1.74-2.01-2.84-4.61-2.95-7.48c-0.08-1.92,0.31-3.76,1.04-5.41h0.01l5.34-0.06
								c0.89-0.01,1.4,1,0.87,1.71L134.63,359.02z"/>
							<path style="fill:#FFFFFF;" d="M155.716,357.579c0.254,6.672-4.949,12.287-11.621,12.541
								c-6.672,0.254-12.287-4.949-12.541-11.621c-0.254-6.672,4.949-12.287,11.621-12.541
								C149.847,345.704,155.462,350.907,155.716,357.579z"/>
						</g>
						<g>
							<g>
								<g>
									<path style="fill:#296BEF;" d="M141.695,363.908c2.635-0.055,5.302-0.121,7.716-0.381c0.765-0.082,1.381-1.325,0.435-1.674
										c0.384-0.216,0.774-0.425,0.928-0.87c0.146-0.422-0.07-0.979-0.507-1.07c0.922,0.191,1.227-1.272,0.496-1.712
										c0.365-0.336,0.662-0.772,0.723-1.264c0.061-0.492-0.16-1.036-0.604-1.256c-0.291-0.144-0.631-0.137-0.955-0.128
										c-1.095,0.034-2.191,0.067-3.286,0.1c0.232-1.725,0.249-3.595-0.679-5.067c-0.279-0.443-1.005-0.96-1.551-0.59
										c-0.512,0.347-0.335,1.154-0.289,1.666c0.19,2.127-0.941,4.317-2.785,5.393
										C141.337,357.056,141.635,361.591,141.695,363.908z"/>
								</g>
							</g>
							
								<rect x="136.629" y="357.161" transform="matrix(0.9993 -0.038 0.038 0.9993 -13.618 5.5348)" style="fill:#296BEF;" width="3.982" height="6.855"/>
						</g>
					</g>
					<g>
						<g>
							<polygon style="fill:#EACA9B;" points="189.801,364.341 189.862,418.246 134.848,418.308 134.848,364.404 							"/>
						</g>
						<g>
							<polygon style="fill:#E2B17D;" points="134.848,364.342 134.848,418.247 122.035,418.261 121.988,364.357 							"/>
						</g>
						<polygon style="fill:#E2B17D;" points="196.829,377.981 141.815,377.981 134.848,364.341 189.862,364.341 						"/>
					</g>
				</g>
				<g>
					<g>
						<path style="fill:#6774FF;" d="M118.489,420.674h82.986c2.681,0,4.862-2.181,4.862-4.862v-83.421
							c0-0.661,0.538-1.198,1.199-1.198h14.229c0.691,0,1.251-0.56,1.251-1.251c0-0.691-0.56-1.251-1.251-1.251h-14.229
							c-2.04,0-3.701,1.66-3.701,3.7v83.421c0,1.301-1.059,2.36-2.36,2.36h-82.986c-0.691,0-1.251,0.56-1.251,1.251
							C117.238,420.114,117.798,420.674,118.489,420.674z"/>
					</g>
					<circle style="fill:#296BEF;" cx="190.556" cy="430.21" r="9.005"/>
					<circle style="fill:#FFFFFF;" cx="190.557" cy="430.21" r="4.62"/>
					<circle style="fill:#296BEF;" cx="132.442" cy="430.21" r="9.005"/>
					<path style="fill:#FFFFFF;" d="M127.823,430.21c0,2.551,2.068,4.62,4.619,4.62c2.551,0,4.619-2.068,4.619-4.62
						s-2.068-4.62-4.619-4.62C129.891,425.59,127.823,427.658,127.823,430.21z"/>
				</g>
			</g>
			<g>
				<path style="fill:#2F36AD;" d="M454.444,134.824v273.85c0,1.57-0.16,3.11-0.46,4.59c-0.15,0.74-0.34,1.46-0.56,2.17
					c-0.12,0.36-0.24,0.72-0.36,1.07c-0.76,2.09-1.83,4.03-3.14,5.78c-0.66,0.88-1.38,1.71-2.15,2.48c-0.77,0.77-1.6,1.48-2.47,2.14
					c-0.58,0.43-1.19,0.84-1.81,1.23h-0.01c-0.62,0.38-1.26,0.73-1.92,1.05h-0.01c-0.99,0.48-2.03,0.89-3.09,1.22h-0.01
					c-0.71,0.22-1.43,0.41-2.17,0.56c-1.49,0.3-3.03,0.46-4.6,0.46h-112.33c-1.66,0-3.28-0.18-4.84-0.52
					c-0.26-0.06-0.51-0.11-0.77-0.18c-0.28-0.07-0.57-0.15-0.85-0.23c-1.18-0.35-2.31-0.79-3.4-1.31c-0.55-0.27-1.08-0.55-1.59-0.85
					c-0.24-0.14-0.48-0.28-0.71-0.43c-0.5-0.31-0.98-0.65-1.45-1c-1.46-1.09-2.78-2.36-3.94-3.76c-0.46-0.56-0.9-1.14-1.31-1.75
					c-0.61-0.91-1.16-1.86-1.64-2.86c-0.65-1.33-1.16-2.72-1.53-4.17v-0.01c-0.47-1.82-0.72-3.72-0.72-5.68v-273.85
					c0-12.55,10.19-22.75,22.76-22.75h112.33C444.264,112.074,454.444,122.274,454.444,134.824z"/>
				<path style="fill:#A4D6FB;" d="M449.444,134.824v273.85c0,1.21-0.12,2.42-0.36,3.6c-0.1,0.53-0.24,1.06-0.42,1.64l-0.33,0.97
					c-0.54,1.5-1.36,3.01-2.41,4.41c-0.51,0.68-1.08,1.34-1.69,1.94c-0.56,0.57-1.22,1.14-1.95,1.69c-0.34,0.25-0.75,0.53-1.22,0.83
					l-0.19,0.12c-0.39,0.24-0.79,0.47-1.21,0.68l-0.29,0.13c-0.69,0.34-1.41,0.63-2.15,0.87l-0.25,0.08
					c-0.59,0.18-1.14,0.32-1.68,0.44c-1.19,0.23-2.4,0.35-3.61,0.35h-112.33c-1.27,0-2.54-0.13-3.77-0.4
					c-0.42-0.09-0.84-0.19-1.24-0.31c-0.92-0.27-1.82-0.62-2.7-1.04c-0.42-0.21-0.84-0.43-1.2-0.65c-0.21-0.12-0.37-0.21-0.51-0.3
					l-0.11-0.07c-0.31-0.19-0.66-0.43-1.09-0.75c-1.11-0.84-2.15-1.83-3.08-2.95c-0.38-0.46-0.71-0.9-1.01-1.34
					c-0.49-0.73-0.92-1.49-1.28-2.24c-0.47-0.97-0.85-1.96-1.13-2.99l-0.07-0.27c-0.37-1.45-0.56-2.94-0.56-4.44v-273.85
					c0-9.78,7.97-17.75,17.76-17.75h112.33c7.47,0,13.88,4.65,16.49,11.2C448.994,130.294,449.444,132.514,449.444,134.824z"/>
				<g>
					<g>
						<g>
							<path style="opacity:0.2;fill:#020202;" d="M432.796,211.747H314.539c-2.805,0-5.078-2.274-5.078-5.078v-44.841
								c0-2.805,2.274-5.078,5.078-5.078h118.257c2.805,0,5.078,2.274,5.078,5.078v44.841
								C437.874,209.473,435.601,211.747,432.796,211.747z"/>
							<path style="fill:#FFFFFF;" d="M434.655,209.792H316.398c-2.805,0-5.079-2.274-5.079-5.078v-44.841
								c0-2.805,2.274-5.079,5.079-5.079h118.257c2.805,0,5.078,2.274,5.078,5.079v44.841
								C439.733,207.518,437.46,209.792,434.655,209.792z"/>
							<g>
								<g>
									<g>
										<polygon style="opacity:0.3;fill:#FFBC47;" points="425.081,166.959 420.661,167.667 423.912,170.744 423.22,175.166 
											427.151,173.025 431.143,175.05 430.322,170.65 433.48,167.479 429.042,166.9 427.003,162.916 										"/>
										<polygon style="fill:#FFBC47;" points="409.417,166.959 404.998,167.667 408.249,170.744 407.557,175.166 
											411.488,173.025 415.48,175.05 414.658,170.65 417.817,167.479 413.379,166.9 411.339,162.916 										"/>
										<polygon style="fill:#FFBC47;" points="393.754,166.959 389.335,167.667 392.585,170.744 391.893,175.166 
											395.824,173.025 399.816,175.05 398.995,170.65 402.154,167.479 397.715,166.9 395.676,162.916 										"/>
										<polygon style="fill:#FFBC47;" points="376.927,170.742 376.226,175.16 380.011,173.113 380.159,173.032 384.146,175.052 
											383.338,170.648 386.49,167.482 382.059,166.903 380.011,162.917 378.085,166.957 373.667,167.671 										"/>
										<polygon style="fill:#FFBC47;" points="362.427,166.959 358.008,167.667 361.259,170.744 360.567,175.166 
											364.498,173.025 368.49,175.05 367.668,170.65 370.827,167.479 366.389,166.9 364.349,162.916 										"/>
									</g>
								</g>
								<g>
									<g>
										<g style="opacity:0.5;">
											<line style="fill:none;stroke:#2F36AD;stroke-miterlimit:10;" x1="358.008" y1="183.349" x2="415.984" y2="183.349"/>
										</g>
										<g style="opacity:0.5;">
											<line style="fill:none;stroke:#2F36AD;stroke-miterlimit:10;" x1="358.008" y1="189.456" x2="427.071" y2="189.456"/>
										</g>
										<g style="opacity:0.5;">
											<line style="fill:none;stroke:#2F36AD;stroke-miterlimit:10;" x1="358.008" y1="195.563" x2="427.071" y2="195.563"/>
										</g>
										<g style="opacity:0.5;">
											<line style="fill:none;stroke:#2F36AD;stroke-miterlimit:10;" x1="358.008" y1="201.67" x2="427.071" y2="201.67"/>
										</g>
									</g>
								</g>
							</g>
						</g>
					</g>
					<g>
						<defs>
							
								<ellipse id="SVGID_1_" transform="matrix(0.7071 -0.7071 0.7071 0.7071 -28.9502 289.2001)" cx="334.62" cy="179.546" rx="14.997" ry="14.997"/>
						</defs>
						<use xlink:href="#SVGID_1_"  style="overflow:visible;opacity:0.36;fill:#6774FF;"/>
						<clipPath id="SVGID_00000003094688304922829820000005316822511705656508_">
							<use xlink:href="#SVGID_1_"  style="overflow:visible;opacity:0.36;"/>
						</clipPath>
						<g style="clip-path:url(#SVGID_00000003094688304922829820000005316822511705656508_);">
							<g>
								<path style="fill:#1530A4;" d="M341.062,176.213c1.164,2.01,0.159,4.758,1.333,6.762c0.47,0.802,1.267,1.432,1.492,2.334
									c0.19,0.758-0.104,1.615-0.719,2.097c-0.615,0.482-1.518,0.562-2.208,0.196c-0.149-0.079-0.29-0.177-0.452-0.225
									c-0.581-0.17-1.106,0.346-1.606,0.687c-0.612,0.419-1.411,0.609-2.114,0.374c-0.902-0.302-1.46-1.211-1.76-2.113
									c-0.84-2.523-0.244-5.284,0.533-7.827c0.388-1.271,0.961-2.68,2.207-3.142"/>
							</g>
							<path style="fill:#6774FF;" d="M336.215,185.185c0,0-0.05,2.31,0.305,2.461c0.704,0.299,1.493,0.462,1.493,0.462
								s-1.634,1.826-2.88,1.766c-1.749-0.083-3.281-2.087-3.258-2.352c0.04-0.454-0.25-3.011-0.25-3.011"/>
							<path style="fill:#6774FF;" d="M340.827,175.749c0,0,0.365,4.466-0.397,6.806c-0.565,1.734-2.881,3.352-4.818,3.33
								c-5.333,0-6.289-7.243-6.261-7.594c0.028-0.35,7.865-3.391,7.865-3.391L340.827,175.749z"/>
							<path style="fill:#FFBC47;" d="M333.258,187.686c0,0,2.431,2.7,3.262-0.04c2.102,0.586,4.363,1.009,5.269,2.915
								c2.906,8.583-6.576,9.333-9.26,9.333c-3.794,0-10.027-2.089-6.887-9.167C326.612,188.541,328.069,187.189,333.258,187.686z"
								/>
							<g>
								<path style="fill:#1530A4;" d="M326.576,189.003c-0.119-0.063-0.235-0.132-0.348-0.199c-0.611-0.365-1.172-0.748-1.43-1.443
									c-0.371-1.001-0.548-2.536-0.03-3.507c0.351-0.657,1.011-1.087,1.463-1.679c0.625-0.818,0.81-1.887,0.862-2.916
									c0.052-1.028-0.008-2.07,0.208-3.076c0.369-1.721,0.859-3.359,2.185-4.468c2.124-1.775,6.382-2.828,8.697-0.847
									c0.421,0.36,0.504,0.649,1.072,0.704c0.763,0.074,1.258,0.172,1.943,0.568c0.76,0.439,1.681,1.059,1.574,2.056
									c-0.074,0.69-0.858,1.783-1.448,2.108c-0.247,0.136-0.536,0.178-0.819,0.184c-0.902,0.017-1.651-0.57-2.537-0.475
									c-0.433,0.047-0.838,0.28-1.111,0.617c-0.319,0.394-0.276,0.943-0.649,1.312c-0.598,0.591-1.524,0.541-2.233,0.926
									c-0.117,0.064-0.237,0.136-0.305,0.251c-0.066,0.113-0.073,0.249-0.077,0.38c-0.014,0.373-0.027,0.746-0.041,1.119
									c-0.351-0.154-0.388-0.655-0.678-0.906c-0.279-0.242-0.735-0.176-1.016,0.066c-0.28,0.242-0.415,0.611-0.49,0.973
									c-0.089,0.436,0.064,0.898,0.198,1.337c0.232,0.76,0.883,1.445,1.409,0.942c0.382,0.561-0.036,1.499-0.049,2.134
									c-0.011,0.503-0.002,1.501,0.469,1.832c0.433,0.304,1.119,0.073,1.145,0.857c0.024,0.717-0.694,1.278-1.406,1.365
									c-0.712,0.088-1.416-0.163-2.104-0.367c-0.688-0.204-1.441-0.363-2.11-0.103c-0.405,0.158-0.756,0.462-1.185,0.533
									C327.335,189.345,326.943,189.198,326.576,189.003z"/>
							</g>
						</g>
					</g>
				</g>
				<g>
					<g>
						<path style="opacity:0.2;fill:#020202;" d="M432.723,284.119H314.465c-2.805,0-5.078-2.274-5.078-5.078V234.2
							c0-2.805,2.274-5.078,5.078-5.078h118.257c2.805,0,5.078,2.274,5.078,5.078v44.841
							C437.801,281.845,435.527,284.119,432.723,284.119z"/>
						<path style="fill:#FFFFFF;" d="M434.655,282.13H316.398c-2.805,0-5.079-2.274-5.079-5.078V232.21
							c0-2.805,2.274-5.079,5.079-5.079h118.257c2.805,0,5.078,2.274,5.078,5.079v44.841
							C439.733,279.856,437.46,282.13,434.655,282.13z"/>
						<g>
							<g>
								<g>
									<polygon style="opacity:0.3;fill:#FFBC47;" points="425.081,239.296 420.661,240.005 423.912,243.082 423.22,247.504 
										427.151,245.363 431.143,247.387 430.322,242.988 433.48,239.816 429.042,239.238 427.003,235.254 									"/>
									<polygon style="opacity:0.3;fill:#FFBC47;" points="409.417,239.296 404.998,240.005 408.249,243.082 407.557,247.504 
										411.488,245.363 415.48,247.387 414.658,242.988 417.817,239.816 413.379,239.238 411.339,235.254 									"/>
									<polygon style="opacity:0.3;fill:#FFBC47;" points="393.754,239.296 389.335,240.005 392.585,243.082 391.893,247.504 
										395.824,245.363 399.816,247.387 398.995,242.988 402.154,239.816 397.715,239.238 395.676,235.254 									"/>
									<polygon style="fill:#FFBC47;" points="376.927,243.08 376.226,247.497 380.011,245.45 380.159,245.369 384.146,247.39 
										383.338,242.985 386.49,239.82 382.059,239.241 380.011,235.254 378.085,239.295 373.667,240.009 									"/>
									<polygon style="fill:#FFBC47;" points="362.427,239.296 358.008,240.005 361.259,243.082 360.567,247.504 364.498,245.363 
										368.49,247.387 367.668,242.988 370.827,239.816 366.389,239.238 364.349,235.254 									"/>
								</g>
							</g>
							<g>
								<g>
									<g style="opacity:0.5;">
										<line style="fill:none;stroke:#2F36AD;stroke-miterlimit:10;" x1="358.008" y1="255.687" x2="415.984" y2="255.687"/>
									</g>
									<g style="opacity:0.5;">
										<line style="fill:none;stroke:#2F36AD;stroke-miterlimit:10;" x1="358.008" y1="261.794" x2="427.071" y2="261.794"/>
									</g>
									<g style="opacity:0.5;">
										<line style="fill:none;stroke:#2F36AD;stroke-miterlimit:10;" x1="358.008" y1="267.901" x2="427.071" y2="267.901"/>
									</g>
									<g style="opacity:0.5;">
										<line style="fill:none;stroke:#2F36AD;stroke-miterlimit:10;" x1="358.008" y1="274.008" x2="427.071" y2="274.008"/>
									</g>
								</g>
							</g>
						</g>
					</g>
				</g>
				<g>
					<defs>
						
							<ellipse id="SVGID_00000047771311841238658110000005104017547601597363_" transform="matrix(0.7071 -0.7071 0.7071 0.7071 -80.1006 310.3873)" cx="334.62" cy="251.884" rx="14.997" ry="14.997"/>
					</defs>
					<clipPath id="SVGID_00000131329710744397447070000011407603527662172599_">
						<use xlink:href="#SVGID_00000047771311841238658110000005104017547601597363_"  style="overflow:visible;"/>
					</clipPath>
					
						<ellipse transform="matrix(0.7071 -0.7071 0.7071 0.7071 -80.1006 310.3873)" style="opacity:0.36;clip-path:url(#SVGID_00000131329710744397447070000011407603527662172599_);fill:#6774FF;" cx="334.62" cy="251.884" rx="14.997" ry="14.997"/>
					<g style="clip-path:url(#SVGID_00000131329710744397447070000011407603527662172599_);">
						<defs>
							
								<ellipse id="SVGID_00000080902778461663102380000008613249657379748022_" transform="matrix(0.2283 -0.9736 0.9736 0.2283 12.9988 520.1665)" cx="334.62" cy="251.884" rx="14.997" ry="14.997"/>
						</defs>
						<clipPath id="SVGID_00000064332755655762515380000014877731911153502084_">
							<use xlink:href="#SVGID_00000080902778461663102380000008613249657379748022_"  style="overflow:visible;"/>
						</clipPath>
						<g style="clip-path:url(#SVGID_00000064332755655762515380000014877731911153502084_);">
							<g>
								<g id="XMLID_50_">
									<path id="XMLID_54_" style="fill:#6774FF;" d="M340.736,252.276c-0.5,0.197-0.295,1.902-0.385,2.45
										c-0.09,0.548-0.492,2.679-1.61,2.999c-1.118,0.323-1.812,0.414-1.818,0.596c-0.004,0.086,0.025,0.477,0.057,0.867
										c0.034,0.434,0.071,0.865,0.071,0.865l-1,1.25l-1.104,0.081l-2.702-0.783c0,0-0.126-2.808-0.237-3.242
										c-0.07-0.273-1.081-2.165-1.818-4.019c-0.431-1.083-0.768-2.152-0.771-2.874c-0.003-1.962,0.065-4.009,1.274-5.019
										c1.206-1.007,8.865-4.633,9.075,1.357c0,0,0.922,3.433,1.327,4.025S341.238,252.079,340.736,252.276z"/>
									<path id="XMLID_53_" style="fill:#6774FF;" d="M336.979,259.188c0.034,0.434,0.071,0.865,0.071,0.865l-0.286,1.399
										l-1.818-0.068l-2.702-0.783c0,0-0.126-2.808-0.237-3.242c-0.07-0.273-1.081-2.165-1.818-4.019l0.099-1.157
										c0,0,2.206-0.251,2.293-0.241c0.087,0.007,0.789,1.355,0.786,1.429c-0.002,0.074-0.435,1.383-0.435,1.383
										s-0.076,1.807-0.002,3.199c0.039,0.731,0.541,1.361,1.247,1.556c0.396,0.11,0.851,0.2,1.279,0.202
										C336.187,259.718,336.708,259.406,336.979,259.188z"/>
									<path id="XMLID_51_" style="fill:#1530A4;" d="M332.748,251.582c0,0-0.922,3.85,1.231,5.914
										c2.153,2.063,5.892,0.928,6.419,0.469c0.527-0.459,2.292-3.671,0.662-5.152c-1.63-1.481-3.781,0.138-3.781,0.138
										s-1.282,1.095-1.702,1.026c-0.407-0.067-1.346-1.446-1.035-3.905c0.017-0.134,0.126-0.237,0.26-0.255
										c0.501-0.066,1.661-0.483,1.592-2.927c-0.006-0.204,0.161-0.372,0.365-0.365c0.704,0.026,2.155,0.088,2.462,0.178
										c0,0,0.227,0.042,0.451,0.129c0.073,0.028,0.129,0.088,0.15,0.163c0.066,0.238,0.218,0.78,0.255,0.909
										c0.048,0.166,0.416,1.377,0.416,1.377s0.381-0.232,0.384-0.667c0.003-0.436-0.173-1.393-0.088-1.61
										c0.084-0.216,0.708-0.372,0.811-0.875c0.233-1.137,0.69-5.572-2.947-3.476c-0.476,0.274-0.92,0.628-1.309,0.707
										c-0.508,0.104-0.967-0.367-2.007-0.479c-1.453-0.157-7.915,0.286-7.141,6.734c0.774,6.448,3.843,7.924,3.843,7.924
										S331.98,252.239,332.748,251.582z"/>
								</g>
								<path id="XMLID_41_" style="fill:#6774FF;" d="M332.748,251.582c0,0-0.099-1.102-0.944-0.949
									c-1.135,0.206-1.618,3.17,0.756,3.214C332.56,253.847,332.489,252.585,332.748,251.582z"/>
							</g>
							<path style="fill:#1530A4;" d="M332.317,260.542c0,0,3.332,1.266,4.815-0.459c4.096,0.574,5.504,0.538,7.919,3.427
								c-2.037,3.619-12.928,5.291-13.325,5.158c-0.397-0.132-5.689-2.951-5.842-3.078
								C325.729,265.463,326.908,260.336,332.317,260.542z"/>
						</g>
					</g>
				</g>
				<path style="opacity:0.2;fill:#020202;" d="M453.956,332.759c0.12-1.02,0.28-2.23,0.49-3.6v21.59
					c-1.16-3.41-1.95-5.92-2.09-6.84C452.006,341.659,452.946,336.899,453.956,332.759z"/>
				<path style="fill:#2F36AD;" d="M454.446,204.17L454.446,204.17v-32.333l0,0c2.52,0,4.564,2.043,4.564,4.564v23.206
					C459.01,202.127,456.967,204.17,454.446,204.17z"/>
				<path style="fill:#2F36AD;" d="M296.683,188.003h2.205v-16.167h-2.205c-1.303,0-2.359,1.056-2.359,2.359v11.449
					C294.324,186.947,295.38,188.003,296.683,188.003z"/>
				<path style="fill:#2F36AD;" d="M296.683,207.503h2.205v-16.167h-2.205c-1.303,0-2.359,1.056-2.359,2.359v11.449
					C294.324,206.447,295.38,207.503,296.683,207.503z"/>
				<g>
					<polygon style="opacity:0.3;fill:#FFFFFF;" points="413.794,117.074 301.604,288.854 301.604,204.394 358.634,117.074 					"/>
					<path style="opacity:0.3;fill:#FFFFFF;" d="M448.184,128.274l-146.58,224.42v-39.13l128.33-196.49h1.76
						C439.164,117.074,445.574,121.724,448.184,128.274z"/>
					<polygon style="opacity:0.3;fill:#FFFFFF;" points="449.444,228.154 319.964,426.424 345.524,426.424 449.444,267.294 					"/>
				</g>
				<path style="fill:#2F36AD;" d="M392.252,123.92h-33.401c-5.619,0-10.174-4.555-10.174-10.174l0,0h53.75l0,0
					C402.427,119.365,397.871,123.92,392.252,123.92z"/>
			</g>
			<g>
				<g>
					<g>
						<path style="fill:#FEC752;" d="M587.058,194.417h-66.746c-1.903,0-3.445-1.542-3.445-3.445v-29.245
							c0-1.903,1.542-3.445,3.445-3.445h66.746c1.903,0,3.445,1.542,3.445,3.445v29.245
							C590.503,192.875,588.96,194.417,587.058,194.417z"/>
						<g>
							<polygon style="fill:#FFF0B0;" points="527.218,163.14 527.873,164.468 529.339,164.681 528.278,165.715 528.529,167.175 
								527.218,166.486 525.907,167.175 526.157,165.715 525.096,164.681 526.562,164.468 							"/>
							<polygon style="fill:#FFF0B0;" points="533.616,163.14 534.271,164.468 535.737,164.681 534.677,165.715 534.927,167.175 
								533.616,166.486 532.305,167.175 532.555,165.715 531.495,164.681 532.961,164.468 							"/>
							<polygon style="fill:#FFF0B0;" points="540.014,163.14 540.67,164.468 542.136,164.681 541.075,165.715 541.325,167.175 
								540.014,166.486 538.703,167.175 538.954,165.715 537.893,164.681 539.359,164.468 							"/>
							<polygon style="fill:#FFF0B0;" points="546.413,163.14 547.068,164.468 548.534,164.681 547.473,165.715 547.724,167.175 
								546.413,166.486 545.101,167.175 545.352,165.715 544.291,164.681 545.757,164.468 							"/>
							<polygon style="fill:#FFF0B0;" points="552.811,163.14 553.466,164.468 554.932,164.681 553.872,165.715 554.122,167.175 
								552.811,166.486 551.5,167.175 551.75,165.715 550.69,164.681 552.155,164.468 							"/>
							<g style="opacity:0.66;">
								
									<line style="fill:none;stroke:#EAA221;stroke-width:1.9087;stroke-linecap:round;stroke-linejoin:round;stroke-miterlimit:10;" x1="581.997" y1="187.031" x2="566.703" y2="187.031"/>
								
									<line style="fill:none;stroke:#EAA221;stroke-width:1.9087;stroke-linecap:round;stroke-linejoin:round;stroke-miterlimit:10;" x1="536.154" y1="181.583" x2="525.803" y2="181.583"/>
								
									<line style="fill:none;stroke:#EAA221;stroke-width:1.9087;stroke-linecap:round;stroke-linejoin:round;stroke-miterlimit:10;" x1="581.997" y1="181.583" x2="540.639" y2="181.583"/>
								
									<line style="fill:none;stroke:#EAA221;stroke-width:1.9087;stroke-linecap:round;stroke-linejoin:round;stroke-miterlimit:10;" x1="581.997" y1="176.134" x2="525.803" y2="176.134"/>
								
									<line style="fill:none;stroke:#EAA221;stroke-width:1.9087;stroke-linecap:round;stroke-linejoin:round;stroke-miterlimit:10;" x1="543.13" y1="170.686" x2="525.803" y2="170.686"/>
								
									<line style="fill:none;stroke:#EAA221;stroke-width:1.9087;stroke-linecap:round;stroke-linejoin:round;stroke-miterlimit:10;" x1="581.997" y1="170.686" x2="547.443" y2="170.686"/>
								
									<line style="fill:none;stroke:#EAA221;stroke-width:1.9087;stroke-linecap:round;stroke-linejoin:round;stroke-miterlimit:10;" x1="562.236" y1="187.031" x2="525.803" y2="187.031"/>
							</g>
						</g>
					</g>
					<polygon style="fill:#FEC752;" points="529.155,194.417 522.45,202.572 522.45,194.417 					"/>
				</g>
				<g>
					<path style="opacity:0.2;fill:#020202;" d="M454.444,252.654v-4.01c-0.19,0.95-0.24,1.87-0.24,2.96
						C454.204,251.964,454.254,252.364,454.444,252.654z M449.444,229.714c-5.97-3.72-11.82-7.5-12.41-8.4
						c-0.67-1.02-1.33-1.71-1.76-2.68l5.6-0.06c1.32-0.02,2.06-1.54,1.24-2.58l-4.93-6.28c-0.32-0.42-0.42-0.96-0.27-1.46l2.39-7.62
						c0.39-1.26-0.83-2.43-2.07-1.98l-7.5,2.75c-0.49,0.18-1.04,0.11-1.47-0.2l-6.52-4.62c-1.07-0.76-2.56,0.04-2.51,1.36l0.29,7.98
						c0.02,0.52-0.22,1.03-0.64,1.34l-6.41,4.76c-1.06,0.79-0.75,2.46,0.52,2.82l7.68,2.18c0.5,0.15,0.91,0.53,1.07,1.03l2.56,7.56
						c0.42,1.26,2.09,1.48,2.83,0.38l3.35-4.99c0.63,0.17,1.15,0.26,1.15,0.26c0.85,0.53,1.6,0.82,1.6,0.82s9.35,12.62,16.21,19.68
						c1.19,1.23,2.3,2.28,3.28,3.08c0.59,0.48,1.16,0.92,1.72,1.34v-13.37C452.844,231.834,451.144,230.784,449.444,229.714z"/>
					<g>
						<g>
							<g>
								<path style="fill:#0A1828;" d="M541.62,426.281c-0.165,0.93,1.593,3.388-0.766,5.455c-2.358,2.064-7.72,4.242-4.167,4.325
									c3.552,0.082,6.959-0.742,8.769-1.634c1.806-0.893,0.364-2.297,2.605-3.003c2.953-0.933,2.919-1.122,1.492-4.336
									C547.587,422.664,542.151,423.276,541.62,426.281z"/>
								<path style="fill:#01008A;" d="M518.345,277.068c-1.232,3.198-1.527,6.689-0.781,10.042
									c1.479,6.656-0.204,7.103-0.204,7.103s-9.021,5.726-16.524,8.066c-5.377,1.673-9.96,1.39-9.832-4.547l0.004-0.082
									c0.009-0.361,0.018-0.705,0.027-1.041c0.254-13.343-2.529-14.022-3.214-28.963c-0.708-15.328,3.39-23.877,7.447-27.585
									c4.065-3.7,9.612-3.837,20.047-1.371c7.839,1.847,10.421,3.927,10.357,9.728c-0.021,1.928-0.333,4.269-0.844,7.141
									C523.533,262.859,520.443,271.622,518.345,277.068z"/>
								<path style="fill:#FF911E;" d="M499.414,244.241c0,0-8.131,26.655-6.504,39.423l2.995,5.45l3.275-5.944
									c0,0-2.663-25.527,2.435-38.479L499.414,244.241z"/>
								<path style="fill:#07076B;" d="M518.345,277.068c-1.232,3.198-1.527,6.689-0.781,10.042
									c1.479,6.656-0.204,7.103-0.204,7.103s-9.021,5.726-16.524,8.066l-7.01-0.665l-2.806-2.205l-0.011-1.759
									c0.009-0.361,0.018-0.705,0.027-1.041c1.601,0.153,5.245,0.34,10.586-0.276c4.127-0.47,7.879-1.648,10.381-2.601
									c1.823-0.69,2.893-2.575,2.552-4.496c-0.454-2.624-0.991-6.386-0.971-9.307c0.021-2.938,1.381-7.903,2.493-11.485
									c0.849-2.749,1.138-5.625,0.935-8.491c-0.347-4.959,0.008-9.678,0.008-9.678l5.558-3.01l3.095,1.154
									c-0.021,1.928-0.333,4.269-0.844,7.141C523.533,262.859,520.443,271.622,518.345,277.068z"/>
								<path style="fill:#F4D5B5;" d="M518.459,305.385c0.642,0.105,2.284-2.777,2.284-2.777l-0.689-0.914
									c-0.389-0.516-0.932-0.897-1.55-1.086l-0.112-0.034c-0.554-0.17-1.162,0.029-1.486,0.509
									c-0.471,0.699-1.199,1.496-2.045,1.465h-0.015c-0.03,0.015-0.06,0.015-0.09,0.015
									C514.011,302.578,517.818,305.28,518.459,305.385z"/>
								<g>
									<path style="fill:#1530A4;" d="M493.135,212.644c0,0-0.696,1.945,0.357,3.49l4.302-5.825l-3.001-0.027L493.135,212.644z"/>
									<path style="fill:#6774FF;" d="M516.501,220.346c-0.19,7.512-6.669,11.865-6.669,11.865l0.433,6.836l-4.371,2.833
										l-2.999,1.942l-1.722-3.597l-0.236-4.408c-0.059-1.026-0.793-1.879-1.804-2.095c-1.119-0.239-2.673-0.892-4.262-2.576
										c-0.094-0.103-0.19-0.214-0.272-0.337c-0.01-0.006-0.01-0.006-0.01-0.006c-2.84-3.87-3.915-18.691,5.808-22.899
										C510.437,203.548,516.697,212.824,516.501,220.346z"/>
									<path style="fill:#5866E3;" d="M505.6,237.779l0.294,4.1l-2.999,1.942l-1.722-3.597l-0.236-4.408
										c-0.059-1.026-0.793-1.879-1.804-2.095c-1.119-0.239-2.673-0.892-4.262-2.576c-0.094-0.103-0.19-0.214-0.272-0.337
										c0.195,0.116,2.546,1.493,6.116,1.892C503.354,232.996,505.41,235.131,505.6,237.779z"/>
									<path style="fill:#1530A4;" d="M506.014,222.661c0.38,0.155,0.743-0.432,0.743-0.432s2.108-4.735,2.834-5.461
										c1.296-1.313,4.355-1.192,4.597,2.869c0.19,3.145-3.525,9.85-4.666,11.82c-0.173,0.311-0.104,0.726,0.19,0.951
										c0.121,0.086,0.276,0.138,0.415,0.155h0.052c0.173,0,0.346-0.052,0.484-0.173c2.402-2.108,12.977-12.251,4.579-21.79
										c0,0-6.67,0.432-7.69,3.646c-1.02,3.231-1.745,7.586-1.745,7.586S505.617,222.488,506.014,222.661z"/>
									<path style="fill:#1530A4;" d="M493.135,212.644c0,0,5.837-4.55,14.701,0.994l7.259-1.852c0,0,0.305-0.099,0.145-1.186
										c-0.161-1.087-0.963-11.759-13.678-9.361C494.252,202.617,489.774,207.684,493.135,212.644z"/>
								</g>
								<path style="fill:#FF911E;" d="M498.851,241.973l0.042,0.349c0.081,0.661,0.256,1.308,0.521,1.919l0,0l2.201,0.45
									l1.917-1.428l-2.199-2.556l-0.341,0.087c-0.788,0.201-1.513,0.596-2.109,1.149L498.851,241.973z"/>
								<path style="fill:#07076B;" d="M510.212,235.861c0,0,1.056,0.588,2.107,2.168c0,0-1.442,0.645-2.699,1.413
									c-1.148,0.701-6.665,4.598-6.665,4.598l-1.622-3.332C501.333,240.707,507.093,236.734,510.212,235.861z"/>
								<path style="fill:#07076B;" d="M501.333,240.707c0,0-1.93,0.66-2.524,2.102c0,0-0.987-1.892,0.274-5.259
									c0,0,1.058-1.002,1.873-1.359L501.333,240.707z"/>
								<path style="fill:#E5BB98;" d="M516.675,300.678c0,0-1.026,1.288-1.33,1.455c-0.304,0.168-0.356-0.188-0.241-0.439
									C515.22,301.442,516.63,300.337,516.675,300.678z"/>
								<path style="fill:#1530A4;" d="M510.127,232.562h0.052c0.173,0,0.346-0.052,0.484-0.173
									c2.402-2.108,12.977-12.251,4.579-21.79c0,0,0.415,1.659,0.242,3.041C515.484,213.641,520.841,222.298,510.127,232.562z"/>
								<path style="fill:#1631A4;" d="M528.918,332.147c0,0,6.292-20.8-11.558-37.935c0,0-9.567,4.283-17.228,4.799
									c-6.033,0.407-9.096-0.218-9.096-0.218s-0.508,18.479-0.529,28.439L528.918,332.147z"/>
								<path style="fill:#1631A4;" d="M488.88,366.695c-0.388-9.3,6.497-8.303,10.529-1.533
									c12.91,21.673-0.049,48.849-1.441,64.526c-1.52-2.523-4.401-3.378-5.077-3.325c-1.099,0.083-1.694,0.95-1.694,0.95
									C491.42,408.082,489.296,376.639,488.88,366.695z"/>
								<path style="fill:#1631A4;" d="M499.06,367.704c-1.159,3.797-11.147,8.191-10.104-5.631
									c0.463-6.13,1.696-39.984,1.934-43.246c0.239-3.265,0.783-8.033,2.361-8.628c7.887-2.977,18.951,6.935,16.876,19.188
									C508.742,337.579,501.465,359.829,499.06,367.704z"/>
								<path style="fill:#0A1828;" d="M491.225,427.595c-0.414,0.805-2.395,2.666-5.141,3.893c-2.743,1.225-8.561,1.801-5.329,2.88
									c3.231,1.079,6.999,0.425,8.909,0.12c1.907-0.308,3.756-0.348,6.009-0.362c2.969-0.02,2.992-0.203,2.592-3.551
									C497.713,425.967,492.561,424.991,491.225,427.595z"/>
								<path style="fill:#1631A4;" d="M521.972,368.815c-3.112-8.772,3.761-9.849,9.609-4.569
									c18.725,16.905,14.351,46.693,17.642,62.085c-1.867,1.279-4.834,1.737-5.87,1.681c-1.101-0.06-1.601-0.818-1.601-0.818
									C536.296,408.751,525.301,378.195,521.972,368.815z"/>
								<path style="fill:#1631A4;" d="M532.129,366.304c0.351,3.954-7.255,11.778-11.479-1.424
									c-1.874-5.855-13.444-37.694-14.449-40.807c-1.004-3.116-2.291-7.739-1.052-8.883c6.192-5.721,20.169-0.69,22.847,11.446
									C529.789,334.748,531.401,358.102,532.129,366.304z"/>
								<path style="fill:#3A3A3A;" d="M514.229,300.191c0,0,1.395,4.92,7.593,7.748c5.347,2.44-8.561,3.835-8.871,3.293
									c-0.31-0.542-2.983-9.521-2.983-9.521L514.229,300.191z"/>
								<g>
									<g>
										<g>
											<path style="fill:#FFFFFF;" d="M568.526,312.429h-98.717c-2.805,0-5.078-2.274-5.078-5.078v-36.472
												c0-2.805,2.274-5.079,5.078-5.079h98.717c2.805,0,5.078,2.274,5.078,5.078v36.472
												C573.604,310.155,571.331,312.429,568.526,312.429z"/>
											<g>
												<g>
													<g>
														<polygon style="opacity:0.3;fill:#FFBC47;" points="561.182,276.113 557.435,276.714 560.19,279.323 559.604,283.072 
															562.937,281.257 566.321,282.973 565.625,279.243 568.303,276.554 564.54,276.064 562.811,272.686 														"/>
														<polygon style="opacity:0.3;fill:#FFBC47;" points="547.901,276.113 544.155,276.714 546.911,279.323 
															546.324,283.072 549.657,281.257 553.041,282.973 552.345,279.243 555.023,276.554 551.26,276.064 549.531,272.686 
																													"/>
														<g>
															<polygon style="fill:#2F36AD;" points="534.622,276.113 530.875,276.714 533.631,279.323 533.044,283.072 
																536.377,281.257 539.761,282.973 539.065,279.243 541.743,276.554 537.98,276.064 536.251,272.686 															
																"/>
														</g>
														<polygon style="opacity:0.3;fill:#FFBC47;" points="520.355,279.321 519.761,283.067 522.97,281.331 523.096,281.262 
															526.476,282.975 525.79,279.241 528.463,276.557 524.706,276.066 522.97,272.686 521.337,276.112 517.591,276.717 
																													"/>
														<polygon style="fill:#FFBC47;" points="508.062,276.113 504.315,276.714 507.071,279.323 506.484,283.072 
															509.817,281.257 513.201,282.973 512.505,279.243 515.183,276.554 511.42,276.064 509.691,272.686 														"/>
													</g>
												</g>
												<g>
													<g>
														
															<line style="fill:none;stroke:#A4D6FB;stroke-width:0.8478;stroke-miterlimit:10;" x1="504.315" y1="290.01" x2="553.469" y2="290.01"/>
														
															<line style="fill:none;stroke:#A4D6FB;stroke-width:0.8478;stroke-miterlimit:10;" x1="504.315" y1="295.187" x2="562.869" y2="295.187"/>
														
															<line style="fill:none;stroke:#A4D6FB;stroke-width:0.8478;stroke-miterlimit:10;" x1="504.315" y1="300.365" x2="562.869" y2="300.365"/>
														
															<line style="fill:none;stroke:#A4D6FB;stroke-width:0.8478;stroke-miterlimit:10;" x1="504.315" y1="305.543" x2="562.869" y2="305.543"/>
													</g>
												</g>
											</g>
										</g>
									</g>
									<g>
										<defs>
											
												<ellipse id="SVGID_00000022523290439433739540000012420364288810912181_" transform="matrix(0.1522 -0.9883 0.9883 0.1522 127.2811 721.9603)" cx="484.486" cy="286.785" rx="12.715" ry="12.715"/>
										</defs>
										
											<use xlink:href="#SVGID_00000022523290439433739540000012420364288810912181_"  style="overflow:visible;opacity:0.36;fill:#6774FF;"/>
										<clipPath id="SVGID_00000105399455347919901470000001197165239342288284_">
											
												<use xlink:href="#SVGID_00000022523290439433739540000012420364288810912181_"  style="overflow:visible;opacity:0.36;"/>
										</clipPath>
										<g style="clip-path:url(#SVGID_00000105399455347919901470000001197165239342288284_);">
											<g>
												<path style="fill:#1530A4;" d="M489.948,283.96c0.987,1.704,0.135,4.034,1.13,5.733c0.398,0.68,1.074,1.215,1.265,1.979
													c0.161,0.643-0.088,1.369-0.61,1.778c-0.521,0.409-1.287,0.476-1.872,0.166c-0.126-0.067-0.246-0.15-0.383-0.19
													c-0.492-0.144-0.938,0.293-1.361,0.583c-0.519,0.355-1.196,0.516-1.792,0.317c-0.765-0.256-1.238-1.027-1.492-1.792
													c-0.712-2.139-0.207-4.48,0.452-6.636c0.329-1.077,0.815-2.272,1.871-2.664"/>
											</g>
											<path style="fill:#6774FF;" d="M485.838,291.566c0,0-0.042,1.958,0.259,2.087c0.597,0.254,1.266,0.392,1.266,0.392
												s-1.385,1.548-2.442,1.497c-1.483-0.07-2.782-1.769-2.762-1.994c0.034-0.385-0.212-2.553-0.212-2.553"/>
											<path style="fill:#6774FF;" d="M489.749,283.566c0,0,0.31,3.786-0.336,5.771c-0.479,1.47-2.443,2.842-4.085,2.823
												c-4.521,0-5.332-6.141-5.309-6.438c0.024-0.297,6.668-2.875,6.668-2.875L489.749,283.566z"/>
											<path style="fill:#FFBC47;" d="M483.331,293.687c0,0,2.061,2.289,2.766-0.034c1.782,0.497,3.699,0.856,4.467,2.472
												c2.464,7.277-5.575,7.913-7.851,7.913c-3.217,0-8.501-1.771-5.839-7.772
												C477.696,294.412,478.932,293.265,483.331,293.687z"/>
											<g>
												<path style="fill:#1530A4;" d="M477.666,294.803c-0.101-0.053-0.199-0.111-0.295-0.169
													c-0.518-0.309-0.994-0.634-1.212-1.223c-0.314-0.848-0.465-2.15-0.025-2.973c0.297-0.557,0.857-0.922,1.241-1.423
													c0.53-0.694,0.687-1.6,0.731-2.472c0.044-0.871-0.007-1.755,0.176-2.608c0.313-1.459,0.728-2.848,1.853-3.788
													c1.801-1.505,5.411-2.397,7.374-0.718c0.357,0.305,0.427,0.55,0.909,0.597c0.647,0.063,1.066,0.145,1.647,0.481
													c0.644,0.372,1.425,0.897,1.335,1.743c-0.063,0.585-0.728,1.512-1.228,1.787c-0.21,0.116-0.455,0.151-0.694,0.156
													c-0.765,0.015-1.4-0.483-2.151-0.403c-0.367,0.039-0.711,0.237-0.942,0.523c-0.271,0.334-0.234,0.8-0.55,1.112
													c-0.507,0.501-1.292,0.459-1.893,0.785c-0.099,0.054-0.201,0.116-0.259,0.213c-0.056,0.095-0.061,0.211-0.066,0.322
													c-0.012,0.316-0.023,0.633-0.035,0.949c-0.298-0.131-0.329-0.555-0.575-0.769c-0.237-0.205-0.623-0.149-0.861,0.056
													c-0.238,0.205-0.352,0.518-0.415,0.825c-0.076,0.37,0.054,0.761,0.168,1.133c0.197,0.645,0.749,1.225,1.195,0.799
													c0.323,0.476-0.03,1.271-0.042,1.809c-0.009,0.427-0.002,1.273,0.398,1.553c0.367,0.258,0.948,0.062,0.971,0.727
													c0.02,0.608-0.588,1.083-1.192,1.158c-0.604,0.074-1.201-0.138-1.784-0.311c-0.583-0.173-1.222-0.308-1.789-0.088
													c-0.344,0.134-0.641,0.391-1.004,0.452C478.309,295.093,477.977,294.968,477.666,294.803z"/>
											</g>
										</g>
									</g>
								</g>
								<path style="fill:#01008A;" d="M516.922,260.56c0,0,11.958,9.536,15.534,21.177c0,0,10.248-0.648,12.642-8.611
									c0,0-16.022-26.921-21.915-30.886C517.291,238.276,513.607,251.904,516.922,260.56z"/>
								<path style="fill:#6674FF;" d="M533.174,283.027c0,0-8.011,24.723-9.53,26.105c-1.519,1.381-1.934,2.901-5.801,3.315
									c0,0,1.243,2.901,3.867,2.624c2.624-0.276,3.798-2.901,3.798-2.901s12.389-14.686,15.836-21.623
									c4.742-9.543,4.56-15.393,4.56-15.393L533.174,283.027z"/>
								<path style="fill:#6774FF;" d="M465.92,234.755c0,0-24.512-14.681-25.757-16.57c-1.352-2.051-2.65-2.782-2.159-7.04
									c0,0-5.349,0.36-5.688,3.248c-0.339,2.888,4.042,4.563,4.042,4.563s12.874,17.375,19.497,22.761
									c9.112,7.41,15.445,8.632,15.445,8.632L465.92,234.755z"/>
								<path style="fill:#07076B;" d="M532.457,282.864c0.016-0.475,0.389,0.051,0.129-0.347c-0.135-0.206-0.372-0.349-0.44-0.586
									c-0.14-0.486,0.489-0.811,0.985-0.912c3.326-0.681,5.724-2.343,8.278-4.58c1.004-0.879,0.898-1.447,1.659-2.544
									c0.479-0.691,1.267-1.368,2.032-1.02c1.593,0.725,0.391,2.184,1.085,3.173c0.139,0.199,0.349,0.35,0.448,0.572
									c0.163,0.369-0.034,0.793-0.26,1.126c-0.739,1.086-1.376,1.866-2.436,2.643c-1.005,0.737-2.144,1.167-3.248,1.744
									C539.45,282.781,532.369,285.385,532.457,282.864z"/>
								<g>
									<path style="fill:#01008A;" d="M497.968,238.172c0,0-20.797,2.21-29.518-3.163l-10.566,12.449
										c0,0,20.821,9.523,32.623,7.45L497.968,238.172z"/>
									<path style="fill:#07076B;" d="M467.989,233.535c0.314,0.497-0.433,0.219,0.109,0.445c0.282,0.117,0.624,0.098,0.859,0.292
										c0.483,0.399,0.065,1.17-0.371,1.62c-2.926,3.017-4.218,6.389-5.269,10.459c-0.413,1.6,0.091,2.106,0.079,3.758
										c-0.007,1.04-0.419,0.826-1.444,1.003c-2.135,0.369-1.846-0.503-3.246-1.031c-0.281-0.106-0.601-0.114-0.857-0.273
										c-0.424-0.263-0.519-0.834-0.519-1.333c-0.002-1.626,0.105-2.868,0.647-4.402c0.514-1.454,1.378-2.689,2.104-4.049
										C460.897,238.499,466.32,230.896,467.989,233.535z"/>
								</g>
							</g>
							<g>
								<path style="fill:#6774FF;" d="M431.064,214.398c-0.065-0.271,3.841-4.326,4.632-4.074c0.79,0.252,0.898,1.975,0.953,2.756
									c0.056,0.781-1.341,2.597-2.234,2.708C433.522,215.9,431.455,216.016,431.064,214.398z"/>
								<path style="fill:#FF9422;" d="M440.358,195.529l-7.498,2.745c-0.493,0.18-1.043,0.107-1.471-0.197l-6.512-4.62
									c-1.078-0.765-2.565,0.038-2.517,1.359l0.294,7.979c0.019,0.525-0.221,1.025-0.642,1.338l-6.406,4.766
									c-1.06,0.789-0.756,2.451,0.515,2.813l7.679,2.186c0.505,0.144,0.907,0.527,1.074,1.024l2.553,7.565
									c0.423,1.252,2.098,1.477,2.835,0.379l4.452-6.628c0.293-0.436,0.781-0.699,1.306-0.705l7.984-0.09
									c1.322-0.015,2.053-1.539,1.237-2.579l-4.928-6.283c-0.324-0.413-0.424-0.959-0.267-1.46l2.382-7.621
									C442.823,196.241,441.6,195.075,440.358,195.529z"/>
							</g>
						</g>
						<path style="fill:#6774FF;" d="M434.766,218.136c0,0-3.295-0.559-3.402-1.602c-0.017-1.083,4.213,0.019,4.213,0.019
							L434.766,218.136z"/>
					</g>
				</g>
			</g>
			<g>
				<g>
					<g>
						<path style="fill:#FEC752;" d="M254.994,285.557h-87.438c-1.903,0-3.445-1.542-3.445-3.445v-39.399
							c0-1.903,1.542-3.445,3.445-3.445h87.438c1.903,0,3.445,1.542,3.445,3.445v39.399
							C258.439,284.015,256.897,285.557,254.994,285.557z"/>
						<g>
							<polygon style="fill:#FFF0B0;" points="177.371,245.491 178.211,247.193 180.089,247.465 178.73,248.79 179.051,250.66 
								177.371,249.777 175.692,250.66 176.013,248.79 174.654,247.465 176.532,247.193 							"/>
							<polygon style="fill:#FFF0B0;" points="185.568,245.491 186.407,247.193 188.285,247.465 186.926,248.79 187.247,250.66 
								185.568,249.777 183.888,250.66 184.209,248.79 182.85,247.465 184.728,247.193 							"/>
							<polygon style="fill:#FFF0B0;" points="193.764,245.491 194.604,247.193 196.481,247.465 195.122,248.79 195.443,250.66 
								193.764,249.777 192.085,250.66 192.405,248.79 191.046,247.465 192.924,247.193 							"/>
							<polygon style="fill:#FFF0B0;" points="201.96,245.491 202.8,247.193 204.677,247.465 203.319,248.79 203.639,250.66 
								201.96,249.777 200.28,250.66 200.601,248.79 199.243,247.465 201.12,247.193 							"/>
							<polygon style="fill:#FFF0B0;" points="210.156,245.491 210.996,247.193 212.874,247.465 211.515,248.79 211.836,250.66 
								210.156,249.777 208.477,250.66 208.798,248.79 207.439,247.465 209.316,247.193 							"/>
							<g style="opacity:0.66;">
								
									<line style="fill:none;stroke:#EAA221;stroke-width:2.445;stroke-linecap:round;stroke-linejoin:round;stroke-miterlimit:10;" x1="247.543" y1="276.096" x2="227.952" y2="276.096"/>
								
									<line style="fill:none;stroke:#EAA221;stroke-width:2.445;stroke-linecap:round;stroke-linejoin:round;stroke-miterlimit:10;" x1="188.818" y1="269.116" x2="175.559" y2="269.116"/>
								
									<line style="fill:none;stroke:#EAA221;stroke-width:2.445;stroke-linecap:round;stroke-linejoin:round;stroke-miterlimit:10;" x1="247.543" y1="269.116" x2="194.564" y2="269.116"/>
								
									<line style="fill:none;stroke:#EAA221;stroke-width:2.445;stroke-linecap:round;stroke-linejoin:round;stroke-miterlimit:10;" x1="247.543" y1="262.137" x2="175.559" y2="262.137"/>
								
									<line style="fill:none;stroke:#EAA221;stroke-width:2.445;stroke-linecap:round;stroke-linejoin:round;stroke-miterlimit:10;" x1="197.755" y1="255.157" x2="175.559" y2="255.157"/>
								
									<line style="fill:none;stroke:#EAA221;stroke-width:2.445;stroke-linecap:round;stroke-linejoin:round;stroke-miterlimit:10;" x1="247.543" y1="255.157" x2="203.28" y2="255.157"/>
								
									<line style="fill:none;stroke:#EAA221;stroke-width:2.445;stroke-linecap:round;stroke-linejoin:round;stroke-miterlimit:10;" x1="222.229" y1="276.096" x2="175.559" y2="276.096"/>
							</g>
						</g>
					</g>
					<polygon style="fill:#FEC752;" points="240.077,285.557 248.666,296.004 248.666,285.557 					"/>
				</g>
				<g>
					<path style="opacity:0.2;fill:#020202;" d="M332.674,369.324c-3.5-1.03-23.75,3.21-36.07,5.96v18.33
						c12.88-3.99,25.44-10.02,25.89-10.23c-3.58,8.08-11.05,36.75-11.05,36.75c2.27,0.82,4.43,1.37,6.45,1.73
						c-0.2,1.41-0.54,3.4-1.1,5.07c-0.16,0.31-0.29,0.58-0.39,0.83c-0.34-0.23-0.55-0.38-0.55-0.38s-1.2,1.62-2.11,3.34
						c0.26,0.07,0.51,0.12,0.77,0.18c1.56,0.34,3.18,0.52,4.84,0.52h8.82c-2.62-0.97-5.17-1.97-5.17-1.97
						c-0.02,0.02-0.05,0.03-0.07,0.04c-0.43-1.38-0.65-3.65,0.26-7.04c5.41,0.22,8.88-0.82,8.88-0.82s1.79-14.05,3.58-26.6
						C337.454,382.474,337.754,370.824,332.674,369.324z M399.874,313.564h-103.27v52.49h7.5c0.02,0.26,0.05,0.46,0.11,0.57
						c0.31,0.51,5.26,1.35,7.46-0.57h88.2c2.8,0,5.07-2.28,5.07-5.08v-42.33C404.944,315.844,402.674,313.564,399.874,313.564z"/>
					<g>
						<g>
							<path style="fill:#6774FF;" d="M315.646,417.639c0,0-0.338,3.928-1.31,6.838c-1.005,1.917-0.816,2.631-0.816,2.631
								l7.913,1.744c0,0-2.886-2.735-0.17-10.611C323.978,410.365,315.646,417.639,315.646,417.639z"/>
							<path style="fill:#FF911E;" d="M320.548,426.997c0,0,8.976,3.514,10.527,3.79c1.551,0.276,2.653,0.919,2.36,1.667
								c-0.293,0.748-6.696,2.403-10.059,2.138c-3.362-0.266-5.681-2.342-6.386-2.339c-0.704,0.003-4.378,1.046-6.257-0.087
								c-1.879-1.134,2.662-7.239,2.662-7.239S318.371,428.626,320.548,426.997z"/>
							<path style="fill:#01008A;" d="M284.581,375.017c0,0,40.549-9.644,45.631-8.15c5.081,1.495,4.782,13.152,2.989,25.706
								c-1.793,12.554-3.587,26.603-3.587,26.603s-8.967,2.69-20.625-1.495c0,0,7.473-28.695,11.06-36.765
								c0,0-30.041,14.526-45.285,13.67C259.52,393.73,284.581,375.017,284.581,375.017z"/>
							<path style="fill:#6774FF;" d="M243.174,417.195c0,0-3.907-0.524-6.768-1.632c-1.867-1.095-2.59-0.94-2.59-0.94l-2.116,7.821
								c0,0,2.868-2.753,10.607,0.332C250.046,425.861,243.174,417.195,243.174,417.195z"/>
							<path style="fill:#FF911E;" d="M233.595,421.649c0,0-2.745,4.781-3.094,6.317c-0.349,1.536,2.479,3.778,1.678,3.834
								c-7.657,0.538-7.08-4.403-6.304-7.685c0.812-3.434,2.608-5.564,2.638-6.268c0.031-0.704-0.838-4.422,0.383-6.245
								c1.221-1.823,7.105,3.001,7.105,3.001S232.07,419.397,233.595,421.649z"/>
							<path style="fill:#01008A;" d="M262.694,376.095c0,0-4.838,19.903,8.049,24.155c3.577,1.18,21.386-19.579,21.905-22.481
								c0.518-2.902-3.731-10.157-3.731-10.157S266.218,367.165,262.694,376.095z"/>
							<path style="fill:#01008A;" d="M285.574,381.378c0,0,9.355,44.88,7.837,49.954c-1.518,5.074-13.174,4.721-25.719,2.869
								c-12.546-1.852-26.586-3.711-26.586-3.711s-2.648-8.98,1.591-20.617c0,0,28.66,7.607,36.713,11.232
								c0,0-16.011-26.98-15.083-42.22C265.253,363.644,285.574,381.378,285.574,381.378z"/>
						</g>
						<path style="fill:#1533A3;" d="M262.426,297.747c0,0,0.781-9.502,4.59-12.499c5.739-4.514,14.93-3.605,18.27,0.962
							c3.339,4.567,6.906,24.397-9.4,26.952l-8.452,39.002c0,0-21.994-2.249-23.676-14.027c-1.683-11.778,8.332-17.257,8.332-17.257
							s-4.807-9.898,0.24-16.876C257.378,297.026,262.426,297.747,262.426,297.747z"/>
						<path style="fill:#FFD648;" d="M285.291,339.569c-0.75,1.92,5.43,27.59,6.39,33.68c0,0,3.75,9.06-29.71,2.75
							c0,0,1.1-5.98,5.58-14.96c2.22-4.44-1.06-11.8-4.94-18.1c-0.98-1.6-2.01-3.14-3-4.54c-2.96-4.23-5.55-7.24-5.55-7.24
							s5.49-16.83,15.1-17.87c7.67-0.83,7.62,2.57,14.74,4.49l11.53,3.1c0,0-1.28,9.72,0,12.6h-8.01
							C287.421,333.479,286.031,337.649,285.291,339.569z"/>
						<path style="fill:#6574FE;" d="M283.257,289.642c0,0,3.525,9.548,1.282,14.034c-2.243,4.487-7.692,3.846-7.692,3.846v10.255
							c0,0-0.556,0.532-1.522,0.587c-1.683,0.096-6.169-2.831-6.169-2.831v-23.716L283.257,289.642z"/>
						<path style="fill:#6574FE;" d="M252.57,336.587c0,0-4.447,25.424-2.373,26.973c2.074,1.549,23.791,0.667,25.979,1.02
							c2.188,0.353,10.969,2.71,15.555-1.331c0.592-0.522-4.731-0.779-5.529-2.545c-0.798-1.766-3.111-2.324-3.111-2.324
							l-6.654,2.941c0,0-16.716-2.458-17.878-3.437c-1.162-0.98,3.99-21.597,3.99-21.597L252.57,336.587z"/>
						<path style="fill:#FFD648;" d="M267.361,327.789l-0.79,15.15h-3.96c-0.98-1.6-2.01-3.14-3-4.54
							C261.581,336.129,267.361,327.789,267.361,327.789z"/>
						<path style="fill:#FFD648;" d="M251.664,336.029c0,0,1.995-16.987,7.614-19.493c5.618-2.506,9.591,5.529,7.525,13.783
							c-2.066,8.254-2.604,11.281-2.604,11.281S256.322,341.884,251.664,336.029z"/>
						<path style="fill:#1533A3;" d="M283.705,288.241c0,0-2.291,10.948-7.579,13.833c-5.288,2.884-1.293,9.975-6.334,15.27
							c-2.697,2.833-7.989-2.136-7.989-2.136l5.212-25.566L283.705,288.241z"/>
						<g>
							<g>
								<g>
									<path style="fill:#FFFFFF;" d="M397.412,363.594H285.028c-2.805,0-5.078-2.274-5.078-5.078V316.19
										c0-2.805,2.274-5.079,5.078-5.079h112.384c2.805,0,5.078,2.274,5.078,5.078v42.326
										C402.491,361.32,400.217,363.594,397.412,363.594z"/>
									<g>
										<g>
											<polygon style="fill:#FFBC47;" points="388.508,322.72 384.291,323.396 387.393,326.332 386.733,330.552 
												390.484,328.509 394.293,330.441 393.509,326.242 396.524,323.216 392.288,322.664 390.342,318.862 											"/>
											<polygon style="fill:#FFBC47;" points="373.561,322.72 369.344,323.396 372.446,326.332 371.786,330.552 
												375.537,328.509 379.346,330.441 378.563,326.242 381.577,323.216 377.341,322.664 375.395,318.862 											"/>
											<polygon style="fill:#FFBC47;" points="358.615,322.72 354.397,323.396 357.499,326.332 356.839,330.552 360.59,328.509 
												364.399,330.441 363.616,326.242 366.63,323.216 362.395,322.664 360.448,318.862 											"/>
											<polygon style="fill:#FFBC47;" points="342.557,326.33 341.888,330.546 345.5,328.592 345.641,328.515 349.446,330.443 
												348.675,326.24 351.683,323.22 347.454,322.667 345.5,318.863 343.662,322.719 339.446,323.4 											"/>
											<polygon style="fill:#FFBC47;" points="328.721,322.72 324.503,323.396 327.605,326.332 326.945,330.552 
												330.696,328.509 334.505,330.441 333.722,326.242 336.736,323.216 332.501,322.664 330.554,318.862 											"/>
										</g>
										<g>
											<g>
												<g style="opacity:0.5;">
													<line style="fill:none;stroke:#2F36AD;stroke-miterlimit:10;" x1="324.503" y1="338.361" x2="379.828" y2="338.361"/>
												</g>
												<g style="opacity:0.5;">
													<line style="fill:none;stroke:#2F36AD;stroke-miterlimit:10;" x1="324.503" y1="344.188" x2="390.407" y2="344.188"/>
												</g>
												<g style="opacity:0.5;">
													<line style="fill:none;stroke:#2F36AD;stroke-miterlimit:10;" x1="324.503" y1="350.016" x2="390.407" y2="350.016"/>
												</g>
												<g style="opacity:0.5;">
													<line style="fill:none;stroke:#2F36AD;stroke-miterlimit:10;" x1="324.503" y1="355.844" x2="390.407" y2="355.844"/>
												</g>
											</g>
										</g>
									</g>
								</g>
							</g>
							<g>
								<defs>
									
										<ellipse id="SVGID_00000022558149783579565150000001392786493025123217_" transform="matrix(0.7071 -0.7071 0.7071 0.7071 -149.7623 313.1477)" cx="303.122" cy="337.353" rx="14.997" ry="14.997"/>
								</defs>
								<clipPath id="SVGID_00000036944241604231241350000008850433435365407386_">
									<use xlink:href="#SVGID_00000022558149783579565150000001392786493025123217_"  style="overflow:visible;"/>
								</clipPath>
								
									<ellipse transform="matrix(0.7071 -0.7071 0.7071 0.7071 -149.7623 313.1477)" style="opacity:0.36;clip-path:url(#SVGID_00000036944241604231241350000008850433435365407386_);fill:#6774FF;" cx="303.122" cy="337.353" rx="14.997" ry="14.997"/>
								<g style="clip-path:url(#SVGID_00000036944241604231241350000008850433435365407386_);">
									<defs>
										
											<ellipse id="SVGID_00000062886707599068563470000002207948890059260336_" transform="matrix(0.2283 -0.9736 0.9736 0.2283 -94.5217 555.4573)" cx="303.122" cy="337.353" rx="14.997" ry="14.997"/>
									</defs>
									<clipPath id="SVGID_00000174563569523758256550000013227145681598632882_">
										<use xlink:href="#SVGID_00000062886707599068563470000002207948890059260336_"  style="overflow:visible;"/>
									</clipPath>
									<g style="clip-path:url(#SVGID_00000174563569523758256550000013227145681598632882_);">
										<g>
											<g id="XMLID_55_">
												<path id="XMLID_58_" style="fill:#6774FF;" d="M309.237,337.746c-0.499,0.197-0.295,1.901-0.385,2.449
													c-0.09,0.548-0.492,2.679-1.61,2.999c-1.118,0.323-1.811,0.414-1.818,0.596c-0.004,0.086,0.025,0.477,0.057,0.867
													c0.034,0.434,0.071,0.865,0.071,0.865l-1,1.25l-1.104,0.081l-2.702-0.783c0,0-0.126-2.808-0.237-3.242
													c-0.07-0.273-1.081-2.165-1.818-4.019c-0.431-1.083-0.768-2.152-0.771-2.874c-0.003-1.962,0.065-4.009,1.274-5.019
													c1.206-1.007,8.865-4.633,9.075,1.357c0,0,0.922,3.433,1.327,4.025C310,336.89,309.74,337.548,309.237,337.746z"/>
												<path id="XMLID_57_" style="fill:#6774FF;" d="M305.48,344.657c0.034,0.434,0.071,0.865,0.071,0.865l-0.286,1.399
													l-1.818-0.068l-2.702-0.783c0,0-0.126-2.808-0.237-3.242c-0.07-0.273-1.081-2.165-1.818-4.019l0.099-1.157
													c0,0,2.206-0.251,2.293-0.241c0.087,0.007,0.789,1.355,0.786,1.429c-0.002,0.074-0.435,1.383-0.435,1.383
													s-0.076,1.807-0.002,3.199c0.039,0.731,0.541,1.361,1.247,1.556c0.396,0.11,0.851,0.2,1.279,0.202
													C304.688,345.188,305.209,344.875,305.48,344.657z"/>
												<path id="XMLID_56_" style="fill:#1530A4;" d="M301.249,337.052c0,0-0.922,3.85,1.231,5.914
													c2.153,2.063,5.892,0.928,6.419,0.469c0.527-0.459,2.292-3.671,0.662-5.152c-1.63-1.481-3.782,0.138-3.782,0.138
													s-1.282,1.095-1.702,1.026c-0.407-0.067-1.346-1.446-1.035-3.905c0.017-0.134,0.126-0.237,0.26-0.255
													c0.501-0.066,1.661-0.483,1.592-2.927c-0.006-0.204,0.161-0.372,0.365-0.365c0.703,0.026,2.155,0.088,2.462,0.178
													c0,0,0.227,0.042,0.451,0.129c0.073,0.028,0.129,0.088,0.15,0.163c0.066,0.237,0.218,0.78,0.255,0.909
													c0.048,0.166,0.416,1.377,0.416,1.377s0.381-0.232,0.384-0.668c0.003-0.435-0.172-1.393-0.088-1.61
													c0.084-0.216,0.708-0.372,0.811-0.875c0.233-1.137,0.69-5.572-2.947-3.476c-0.476,0.274-0.92,0.628-1.309,0.707
													c-0.508,0.104-0.967-0.367-2.007-0.479c-1.453-0.157-7.915,0.286-7.141,6.734c0.774,6.448,3.843,7.924,3.843,7.924
													S300.481,337.709,301.249,337.052z"/>
											</g>
											<path id="XMLID_52_" style="fill:#6774FF;" d="M301.249,337.052c0,0-0.099-1.102-0.944-0.949
												c-1.134,0.206-1.618,3.17,0.756,3.214C301.061,339.316,300.99,338.054,301.249,337.052z"/>
										</g>
										<path style="fill:#FFBC47;" d="M300.818,346.012c0,0,3.332,1.267,4.815-0.459c4.097,0.574,5.504,0.538,7.919,3.427
											c-2.037,3.619-12.928,5.291-13.325,5.158c-0.397-0.132-5.689-2.951-5.842-3.078
											C294.231,350.932,295.409,345.805,300.818,346.012z"/>
									</g>
								</g>
							</g>
						</g>
						<path style="fill:#6574FE;" d="M310.047,362.436c0,0-2.42-3.089-4.018-3.59c-1.598-0.501-3.315-0.525-3.72,0.286
							c-0.405,0.811-0.907,4.436-0.549,5.032C302.117,364.76,308.747,365.81,310.047,362.436z"/>
					</g>
				</g>
			</g>
		</g>
	</g>
</g>
<g id="DESIGNED_BY_FREEPIK">
	<g>
		<g id="XMLID_1_">
			<g id="XMLID_20_">
				<path id="XMLID_28_" style="fill:#A5B7C6;" d="M385.104,472.811c-0.432,0.443-0.803,0.931-1.108,1.453l-0.465-0.241
					c-0.067-0.298-0.349-0.503-0.659-0.466c-0.331,0.039-0.567,0.339-0.529,0.67c0.039,0.331,0.339,0.568,0.67,0.529
					c0.066-0.008,0.127-0.026,0.184-0.052l0.451,0.234c-0.251,0.554-0.433,1.139-0.539,1.744l0.747,0.132
					c0.23-1.306,0.85-2.507,1.792-3.473L385.104,472.811z"/>
				<path id="XMLID_27_" style="fill:#A5B7C6;" d="M390.592,470.509c-0.171,0-0.341,0.006-0.51,0.017l-0.074-0.626
					c0.188-0.149,0.296-0.389,0.266-0.645c-0.046-0.393-0.402-0.674-0.795-0.628c-0.393,0.046-0.674,0.402-0.628,0.795
					c0.03,0.254,0.189,0.461,0.404,0.564l0.074,0.624c-0.714,0.116-1.403,0.332-2.06,0.646l0.327,0.684
					c0.934-0.447,1.942-0.673,2.995-0.673c0.496,0,0.993,0.053,1.475,0.158l0.161-0.741
					C391.692,470.568,391.142,470.509,390.592,470.509z"/>
				<path id="XMLID_26_" style="fill:#A5B7C6;" d="M397.194,473.056c0.331-0.041,0.566-0.342,0.526-0.672
					c-0.04-0.331-0.341-0.566-0.672-0.526c-0.309,0.038-0.535,0.304-0.53,0.609l-0.416,0.363c-0.418-0.43-0.889-0.813-1.408-1.139
					l-0.404,0.641c1.134,0.715,2.021,1.726,2.563,2.925l0.69-0.313c-0.251-0.554-0.567-1.072-0.942-1.545l0.402-0.351
					C397.065,473.061,397.129,473.064,397.194,473.056z"/>
				<path id="XMLID_25_" style="fill:#A5B7C6;" d="M390.044,480.717c-0.386,0.023-0.775,0.035-1.157,0.035
					c-0.88,0-1.733-0.061-2.478-0.179c-0.39-0.062-0.846-0.155-1.27-0.292c1.046,1.861,3.069,3.125,5.388,3.125
					c2.855,0,5.262-1.916,5.95-4.504c-0.682,0.449-1.505,0.825-2.459,1.123C392.839,480.393,391.463,480.632,390.044,480.717z"/>
				<path id="XMLID_21_" style="fill:#A5B7C6;" d="M390.592,472.025c-3.352,0-6.08,2.666-6.08,5.944
					c0,0.426,0.046,0.849,0.137,1.261c0.673,0.483,2.706,0.89,5.348,0.731c2.879-0.173,5.297-0.957,6.672-2.159
					c-0.006-0.195-0.021-0.39-0.045-0.582C396.244,474.259,393.65,472.025,390.592,472.025z M388.432,478.54
					c-1.02,0-1.85-0.83-1.85-1.85c0-1.02,0.83-1.85,1.85-1.85c1.02,0,1.85,0.83,1.85,1.85
					C390.282,477.71,389.452,478.54,388.432,478.54z M393.17,477.632c-0.75,0-1.36-0.61-1.36-1.36c0-0.75,0.61-1.361,1.36-1.361
					c0.75,0,1.361,0.61,1.361,1.361C394.53,477.022,393.92,477.632,393.17,477.632z"/>
			</g>
			<path id="XMLID_18_" style="fill:#A5B7C6;" d="M406.595,473.892c-0.295-0.116-0.805-0.309-1.382-0.237
				c-0.551,0.069-0.844,0.341-0.844,1.007v0.866h2.228v1.717h-2.228v5.455h-1.932v-5.455h-1.34v-1.717h1.34v-0.888
				c0-1.68,0.896-2.783,2.568-2.783c0.643,0,1.157,0.122,1.59,0.308L406.595,473.892z"/>
			<path id="XMLID_16_" style="fill:#A5B7C6;" d="M411.298,477.224c-0.177-0.03-0.358-0.046-0.526-0.046
				c-0.896,0-1.51,0.548-1.51,1.613v3.908h-1.932v-7.172h1.873v0.785c0.451-0.673,1.14-0.977,2.021-0.977
				c0.414,0,0.848,0.127,1.094,0.337L411.298,477.224z"/>
			<path id="XMLID_13_" style="fill:#A5B7C6;" d="M418.965,479.102c0,0.222-0.015,0.489-0.037,0.651h-5.085
				c0.207,1.036,0.933,1.488,1.843,1.488c0.622,0,1.295-0.252,1.813-0.688l1.133,1.243c-0.814,0.748-1.85,1.088-3.057,1.088
				c-2.198,0-3.723-1.495-3.723-3.753c0-2.258,1.48-3.797,3.627-3.797C417.544,475.335,418.958,476.867,418.965,479.102z
				 M413.851,478.436h3.175c-0.177-0.918-0.733-1.436-1.562-1.436C414.554,477,414.021,477.548,413.851,478.436z"/>
			<path id="XMLID_10_" style="fill:#A5B7C6;" d="M426.618,479.102c0,0.222-0.015,0.489-0.037,0.651h-5.085
				c0.207,1.036,0.933,1.488,1.843,1.488c0.622,0,1.295-0.252,1.814-0.688l1.132,1.243c-0.814,0.748-1.85,1.088-3.057,1.088
				c-2.198,0-3.723-1.495-3.723-3.753c0-2.258,1.48-3.797,3.627-3.797C425.197,475.335,426.611,476.867,426.618,479.102z
				 M421.504,478.436h3.175c-0.178-0.918-0.733-1.436-1.562-1.436C422.207,477,421.674,477.548,421.504,478.436z"/>
			<path id="XMLID_7_" style="fill:#A5B7C6;" d="M434.964,479.11c0,2.154-1.495,3.775-3.471,3.775c-0.962,0-1.643-0.378-2.109-0.933
				v3.708h-1.924v-10.133h1.887v0.792c0.466-0.585,1.155-0.984,2.139-0.984C433.469,475.335,434.964,476.956,434.964,479.11z
				 M429.287,479.11c0,1.132,0.748,1.976,1.843,1.976c1.14,0,1.85-0.881,1.85-1.976c0-1.095-0.71-1.976-1.85-1.976
				C430.035,477.134,429.287,477.977,429.287,479.11z"/>
			<path id="XMLID_4_" style="fill:#A5B7C6;" d="M438.068,473.181c0,0.696-0.54,1.229-1.236,1.229c-0.696,0-1.229-0.533-1.229-1.229
				c0-0.696,0.533-1.243,1.229-1.243C437.527,471.938,438.068,472.486,438.068,473.181z M437.809,482.699h-1.932v-7.172h1.932
				V482.699z"/>
			<path id="XMLID_2_" style="fill:#A5B7C6;" d="M442.62,478.9l3.48-3.37h-2.37l-2.7,2.55v-6.04h-1.93v10.66h1.93v-2.9l2.72,2.9
				h2.37L442.62,478.9z"/>
		</g>
		<g>
			<path style="fill:#A5B7C6;" d="M309.412,482.634v-1.055c-0.527,0.718-1.391,1.23-2.387,1.23c-1.846,0-3.149-1.406-3.149-3.706
				c0-2.256,1.289-3.721,3.149-3.721c0.952,0,1.816,0.469,2.387,1.245v-3.765h1.099v9.77H309.412z M309.412,480.716v-3.208
				c-0.395-0.615-1.245-1.143-2.124-1.143c-1.421,0-2.27,1.172-2.27,2.739c0,1.567,0.85,2.724,2.27,2.724
				C308.168,481.829,309.017,481.331,309.412,480.716z"/>
			<path style="fill:#A5B7C6;" d="M311.932,479.09c0-2.051,1.465-3.706,3.486-3.706c2.139,0,3.398,1.67,3.398,3.794v0.279h-5.727
				c0.088,1.333,1.025,2.446,2.549,2.446c0.805,0,1.626-0.322,2.182-0.893l0.527,0.718c-0.703,0.703-1.655,1.084-2.812,1.084
				C313.44,482.81,311.932,481.302,311.932,479.09z M315.404,476.292c-1.509,0-2.256,1.274-2.314,2.358h4.643
				C317.718,477.596,317.015,476.292,315.404,476.292z"/>
			<path style="fill:#A5B7C6;" d="M319.607,481.697l0.571-0.791c0.469,0.542,1.362,1.011,2.329,1.011c1.084,0,1.67-0.513,1.67-1.216
				c0-1.714-4.38-0.659-4.38-3.281c0-1.098,0.952-2.036,2.636-2.036c1.201,0,2.051,0.454,2.622,1.025l-0.513,0.762
				c-0.424-0.513-1.201-0.894-2.109-0.894c-0.967,0-1.567,0.483-1.567,1.113c0,1.553,4.38,0.527,4.38,3.281
				c0,1.187-0.952,2.138-2.783,2.138C321.306,482.81,320.325,482.459,319.607,481.697z"/>
			<path style="fill:#A5B7C6;" d="M326.477,473.817c0-0.41,0.337-0.747,0.732-0.747c0.41,0,0.747,0.337,0.747,0.747
				c0,0.41-0.337,0.732-0.747,0.732C326.814,474.549,326.477,474.227,326.477,473.817z M326.667,482.634v-7.075h1.099v7.075H326.667
				z"/>
			<path style="fill:#A5B7C6;" d="M329.582,484.451l0.556-0.82c0.586,0.703,1.289,0.967,2.3,0.967c1.172,0,2.27-0.571,2.27-2.124
				v-1.011c-0.513,0.718-1.377,1.26-2.373,1.26c-1.845,0-3.149-1.377-3.149-3.662c0-2.27,1.289-3.676,3.149-3.676
				c0.952,0,1.802,0.469,2.373,1.245v-1.069h1.098v6.87c0,2.344-1.641,3.076-3.369,3.076
				C331.237,485.506,330.417,485.271,329.582,484.451z M334.709,480.599v-3.091c-0.381-0.615-1.231-1.143-2.109-1.143
				c-1.421,0-2.27,1.128-2.27,2.695c0,1.553,0.849,2.695,2.27,2.695C333.478,481.756,334.328,481.214,334.709,480.599z"/>
			<path style="fill:#A5B7C6;" d="M342.413,482.634v-4.629c0-1.245-0.63-1.641-1.582-1.641c-0.865,0-1.685,0.527-2.095,1.099v5.17
				h-1.099v-7.075h1.099v1.025c0.498-0.586,1.465-1.201,2.519-1.201c1.48,0,2.256,0.747,2.256,2.285v4.966H342.413z"/>
			<path style="fill:#A5B7C6;" d="M344.932,479.09c0-2.051,1.465-3.706,3.486-3.706c2.138,0,3.398,1.67,3.398,3.794v0.279h-5.727
				c0.088,1.333,1.025,2.446,2.549,2.446c0.806,0,1.626-0.322,2.183-0.893l0.527,0.718c-0.703,0.703-1.655,1.084-2.812,1.084
				C346.441,482.81,344.932,481.302,344.932,479.09z M348.404,476.292c-1.509,0-2.256,1.274-2.314,2.358h4.643
				C350.718,477.596,350.015,476.292,348.404,476.292z"/>
			<path style="fill:#A5B7C6;" d="M358.35,482.634v-1.055c-0.527,0.718-1.392,1.23-2.388,1.23c-1.845,0-3.149-1.406-3.149-3.706
				c0-2.256,1.289-3.721,3.149-3.721c0.952,0,1.817,0.469,2.388,1.245v-3.765h1.098v9.77H358.35z M358.35,480.716v-3.208
				c-0.396-0.615-1.245-1.143-2.124-1.143c-1.421,0-2.27,1.172-2.27,2.739c0,1.567,0.849,2.724,2.27,2.724
				C357.105,481.829,357.954,481.331,358.35,480.716z"/>
			<path style="fill:#A5B7C6;" d="M364.692,482.634v-9.77h1.098v3.765c0.572-0.776,1.421-1.245,2.388-1.245
				c1.845,0,3.149,1.465,3.149,3.721c0,2.299-1.304,3.706-3.149,3.706c-0.996,0-1.86-0.513-2.388-1.23v1.055H364.692z
				 M367.9,481.829c1.436,0,2.286-1.157,2.286-2.724c0-1.568-0.85-2.739-2.286-2.739c-0.864,0-1.728,0.527-2.109,1.143v3.208
				C366.172,481.331,367.036,481.829,367.9,481.829z"/>
			<path style="fill:#A5B7C6;" d="M372.529,484.407c0.161,0.073,0.425,0.117,0.601,0.117c0.483,0,0.806-0.161,1.055-0.747
				l0.469-1.069l-2.959-7.148h1.187l2.358,5.801l2.344-5.801h1.201l-3.545,8.51c-0.425,1.025-1.143,1.421-2.08,1.435
				c-0.234,0-0.601-0.044-0.806-0.103L372.529,484.407z"/>
		</g>
	</g>
</g>
</svg>
