<?xml version="1.0" encoding="utf-8"?>
<!-- Generator: Adobe Illustrator 27.5.0, SVG Export Plug-In . SVG Version: 6.00 Build 0)  -->
<svg version="1.1" id="Layer_1" xmlns="http://www.w3.org/2000/svg" xmlns:xlink="http://www.w3.org/1999/xlink" x="0px" y="0px"
	 viewBox="0 0 1200 900" style="enable-background:new 0 0 1200 900;" xml:space="preserve">

<g>
	<g>
		<defs>
			<path id="SVGID_1_" d="M354.835,92.166C42.638,151.459,5.808,531.396,182.287,678.953
				C482.6,930.05,1092.519,844.399,1101.711,542.612c4.644-152.471-168.724-126.156-268.565-188.073
				C702.281,273.383,684.849,29.488,354.835,92.166z"/>
		</defs>
		<clipPath id="SVGID_00000086670048081342694880000011385561661311517328_">
			<use xlink:href="#SVGID_1_"  style="overflow:visible;"/>
		</clipPath>
		<path style="clip-path:url(#SVGID_00000086670048081342694880000011385561661311517328_);fill:#FDE5B8;" d="M354.835,92.166
			C42.638,151.459,5.808,531.396,182.287,678.953C482.6,930.05,1092.519,844.399,1101.711,542.612
			c4.644-152.471-168.724-126.156-268.565-188.073C702.281,273.383,684.849,29.488,354.835,92.166z"/>
		<g style="clip-path:url(#SVGID_00000086670048081342694880000011385561661311517328_);">
			<path style="fill:#76D9DC;" d="M598.338,344.147l82.288-1.755c0,0,0.346,21.072-4.211,36.846
				c-6.397,22.141-14.387,26.142-14.387,26.142l-2.281,16.669c0,0,1.537,3.664,0.877,9.65c-1.098,9.952-5.264,14.037-5.264,14.037
				l-3.675,16.281l2.297,13.662c0,0,2.902,5.94,1.369,14.879c-1.647,9.6-7.253,18.002-19.363,18.022
				c-18.34,0.029-18.881-22.745-18.881-22.745l3.99-33.128c0,0-2.454-7.412-1.99-15.756c0.536-9.641,7.111-15.148,7.111-15.148
				l-0.742-17.525c0,0-12.033-5.26-20.026-22.168C598.4,367.2,598.338,344.147,598.338,344.147z"/>
			<path style="fill:#F8D235;" d="M412.87,661.342c0,0,1.168-80.726,26.416-115.221c16.268-22.227,59.472-32.633,59.472-32.633
				s33.033-7.377,48.837,29.503c15.804,36.881,14.378,118.021,14.378,118.021L412.87,661.342z"/>
			<path style="fill:#FFFFFF;" d="M500.5,570.515c0,0-3.113,15.64-15.676,30.828c-8.752,10.581-17.112,17.112-17.112,17.112
				l-5.878,42.062l100.208-0.151c0,0,0.989-31.907-1.828-56.395c-3.002-26.108-6.792-41.822-6.792-41.822s-5.536,3.951-20.602,6.324
				C520.941,570.344,500.5,570.515,500.5,570.515z"/>
			<path style="fill:#FFAA78;" d="M563.588,329.807c0,0,46.919,60.594,25.583,120.39c-22.874,64.107-106.244,75.544-133.933,71.632
				c-32.594-4.605-49.36-21.069-49.36-21.069s-6.907,7.351-20.852,5.048c-15.183-2.506-30.265-20.251-18.274-38.456
				c5.953-9.038,19.262-6.922,19.262-6.922s10.39-92.857,49.359-131.827C494.364,269.613,563.588,329.807,563.588,329.807z"/>
			<path style="opacity:0.6;fill:#FC8364;" d="M448.403,401.986c0,0,20.451-4.292,39.181-24.675
				c23.968-26.084,16.924-46.031,16.924-46.031s8.177,5.065,22.832,5.122c23.487,0.091,35.74-7.469,35.74-7.469l-76.333-33.314
				L448.403,401.986z"/>
			<path style="opacity:0.6;fill:#FC8364;" d="M383.859,477.002c3.333-0.013,6.643,5.987,5.498,8.24
				c-1.245,2.453-6.082,4.894-9.639,0.078C376.723,481.264,380.526,477.015,383.859,477.002z"/>
			<path style="fill:#7C4B43;" d="M572.15,342.449c0,0,30.055-31.586,1.326-65.452c-16.384-19.313-40.329-17.51-40.329-17.51
				s-18.423-28.61-66.126-31.585c-63.918-3.986-97.191,42.048-97.191,42.048s-27.819,3.999-46.979,31.835
				c-14.208,20.642-12.469,48.872-12.469,48.872s-30.625,48.022-0.726,96.013c22.743,36.504,52.729,33.216,52.729,33.216
				s1.046-10.271,7.366-15.561c6.32-5.29,16.459-3.834,16.459-3.834s1.107-9.334,15.297-22.099
				c22.221-19.988,58.346-37.305,80.34-69.689c23.233-34.209,11.043-57.464,11.043-57.464s8.795,11.404,24.692,14.913
				c15.897,3.509,26.734-3.223,40.535,0.845c4.305,1.269,8.313,6.813,10.998,10.9C570.801,340.461,572.15,342.449,572.15,342.449z"
				/>
			<path style="fill:#7C4B43;" d="M431.381,230.864c0,0-13.458,4.226-16.053-0.188c-2.595-4.415,7.303-6.911,7.303-6.911
				s-7.155,1.001-14.275-3.18c-10.312-6.054-19.6-26.03-13.349-38.259c5.745-11.238,17.696-6.61,17.696-6.61
				s-3.058-20.595,23.241-27.863c22.013-6.084,37.241,5.082,37.241,5.082s18.661-16.258,35.254-5.023
				c20.346,13.776,9.364,36.762,9.364,36.762s6.111-7.866,8.967-3.386c3.054,4.788-2.036,12.977-2.036,12.977
				s14.63,0.527,15.12,16.967c0.704,23.639-19.738,34.558-19.738,34.558L431.381,230.864z"/>
			<path style="fill:#FF508D;" d="M469.21,221.781c0,0-0.249-9.1-13.342-16.342c-10.326-5.711-27.302-4.656-28.551-5.405
				c-0.577-0.346-3.846,8.576-4.045,17.427c-0.199,8.851,3.247,17.977,3.247,17.977s11.405-3.476,22.128-5.625
				c10.724-2.149,20.767-2.971,20.767-2.971s11.035-1.759,20.437-1.383c9.402,0.375,17.169,2.886,17.169,2.886
				s2.11-7.924,2.611-15.573c0.5-7.647-0.611-15.02-0.611-15.02s-5.889-0.313-15.842,5.694
				C483.225,209.454,469.21,221.781,469.21,221.781z"/>
			<path style="fill:#FF508D;" d="M312.454,326.069c0,0-3.039-14.913-1.483-27.521c1.556-12.608,7.706-22.913,7.706-22.913
				l24.013,14.455c0,0-7.091,4.814-13.83,12.689c-6.739,7.875-13.126,18.812-13.126,18.812s13.106-5.193,24.624-5.857
				c11.518-0.663,21.449,3.203,21.449,3.203l-3.076,25.737c0,0-17.237,1.2-28.806-3.451
				C318.355,336.572,312.454,326.069,312.454,326.069z"/>
			<path style="fill:#7C4B43;" d="M311.294,301.019c0,0-8.285-25.517-41.306-27.909c-19.057-1.381-10.291,16.137-10.291,16.137
				s-33.061-20.556-63.516-4.498c-21.808,11.499-16.688,28.444-16.688,28.444s-22.629,9.649-14.056,35.508
				c7.312,22.055,25.409,24.229,25.409,24.229s-7.394,3.67-10.417,15.289c-3.699,14.218-1.217,37.725,24.855,48.595
				c26.559,11.074,43.86-15.604,43.86-15.604s0.941,16.191,17.935,11.46c14.019-3.903,16.52-15.952,16.52-15.952
				s12.466,3.217,23.667-11.857c6.841-9.207,1.41-26.568,1.41-26.568s8.756-2.939,13.182-19.151c3.624-13.274-7.5-35.593-7.5-35.593
				L311.294,301.019z"/>
			<path style="fill:#FFFFFF;" d="M541.436,411.183c0,0-14.349-24.1,8.935-41.369c17.98-13.334,28.667,1.731,28.667,1.731
				s4.199,17.796-7.708,30.269C556.022,417.849,541.436,411.183,541.436,411.183z"/>
			<path style="fill:#865554;" d="M578.029,390.522c0,0,2.691-10.648-7.63-12.976c-8.11-1.829-21.926,5.789-20.884,19.327
				c0.977,12.685,14.612,11.251,14.612,11.251s5.809-4.18,9.285-8.581C576.888,395.141,578.029,390.522,578.029,390.522z"/>
			
				<linearGradient id="SVGID_00000120523131630684064460000011801342398288154808_" gradientUnits="userSpaceOnUse" x1="529.3851" y1="438.4897" x2="509.2535" y2="418.7623">
				<stop  offset="0.314" style="stop-color:#FC8364"/>
				<stop  offset="0.6916" style="stop-color:#FFAA78"/>
			</linearGradient>
			<path style="fill:url(#SVGID_00000120523131630684064460000011801342398288154808_);" d="M522.603,427.106
				c-3.399,1.251-4.99,12.283,2.587,15.665c5.652,2.525,12.307-1.992,10.586-6.628c-1.351-3.637-4.478-1.303-7.552-3.487
				C525.15,430.473,526.002,425.855,522.603,427.106z"/>
			<path style="fill:#FFFFFF;" d="M487.087,436.198c0,0-3.836-22.202-29.043-22.576c-37.482-0.557-37.861,27.167-37.861,27.167
				s7.513,17.738,35.634,15.847C482.394,454.848,487.087,436.198,487.087,436.198z"/>
			<path style="fill:#865554;" d="M479.247,447.645c0,0,4.73-8.515-2.746-16.66c-5.648-6.152-16.392-7.558-24.169-3.126
				c-10.206,5.817-10.462,17.306-6.143,23.18c4.173,5.677,14.97,4.619,14.97,4.619s3.632,0.138,8.459-1.948
				C476.571,450.708,479.247,447.645,479.247,447.645z"/>
			<path style="opacity:0.31;fill:#774647;" d="M481.139,424.439c0,0-15.663-1.66-30.768,0.922
				c-15.105,2.583-28.381,8.94-28.381,8.94s4.842-17.866,26.242-20.402C474.717,410.76,481.139,424.439,481.139,424.439z"/>
			<path style="fill:#7C4B43;" d="M479.953,425.122c-0.28-0.424-0.757-1.009-1.202-1.483c-0.473-0.485-0.953-0.969-1.494-1.395
				c-1.025-0.907-2.199-1.652-3.385-2.352c-2.414-1.356-5.098-2.232-7.841-2.785c-5.486-1.185-11.295-0.989-16.96-0.178
				c-5.598,0.849-10.99,2.641-15.485,5.711c-2.232,1.546-4.225,3.394-5.886,5.496c-0.848,1.039-1.557,2.176-2.219,3.325
				c-0.294,0.589-0.618,1.172-0.858,1.771c-0.137,0.298-0.254,0.594-0.357,0.887c-0.055,0.147-0.113,0.296-0.152,0.429l-0.107,0.34
				l0.047-0.222c-0.172,0.85-0.344,1.366-0.591,2.019c-0.244,0.615-0.532,1.22-0.892,1.804c-0.708,1.162-1.694,2.284-2.985,3.08
				c-0.63,0.414-1.358,0.688-2.073,0.9c-0.738,0.142-1.464,0.267-2.166,0.208c-0.717-0.001-1.352-0.191-1.988-0.349
				c-0.614-0.198-1.169-0.487-1.711-0.768c-0.707-0.367-0.984-1.237-0.617-1.945c0.22-0.424,0.621-0.693,1.059-0.762l0.376-0.056
				c0.483-0.072,0.941-0.062,1.363-0.125c0.409-0.11,0.821-0.108,1.146-0.286c0.704-0.198,1.176-0.577,1.586-1.006
				c0.409-0.432,0.774-0.975,1.085-1.639c0.152-0.329,0.307-0.679,0.418-1.05c0.067-0.181,0.117-0.366,0.174-0.55
				c0.042-0.161,0.1-0.41,0.105-0.449c0.006-0.053,0.016-0.104,0.029-0.153l0.018-0.069c0.084-0.318,0.152-0.508,0.224-0.729
				c0.07-0.224,0.148-0.423,0.224-0.625c0.149-0.41,0.311-0.806,0.487-1.186c0.327-0.784,0.729-1.509,1.112-2.25
				c0.831-1.434,1.727-2.828,2.774-4.098c2.064-2.56,4.498-4.815,7.22-6.611c5.48-3.542,11.756-5.49,17.981-6.149
				c1.554-0.186,3.101-0.227,4.649-0.345c1.55-0.075,3.12-0.005,4.675,0.006c3.123,0.226,6.261,0.553,9.318,1.442
				c3.047,0.852,6.035,2.075,8.719,3.85c1.323,0.914,2.616,1.875,3.748,3.04c0.58,0.562,1.1,1.193,1.607,1.831
				c0.504,0.676,0.94,1.281,1.39,2.161c0.361,0.707,0.08,1.572-0.626,1.932c-0.659,0.336-1.455,0.116-1.852-0.488L479.953,425.122z"
				/>
			<path style="fill:#E56C50;" d="M482.108,462.44c-10.947,6.615-9.667,22.872,8.427,29.172
				c16.264,5.662,33.682-8.762,27.657-18.891c-3.086-5.189-9.975-3.6-15.068-5.731C499.368,465.419,490.261,457.513,482.108,462.44z
				"/>
			<path style="fill:#FFFFFF;" d="M513.213,469.124c0,0-3.116,6.4-11.818,3.497c-8.383-2.798-7.576-10.648-7.576-10.648
				s2.911,1.232,6.488,3.55c3.081,1.997,5.988,2.433,7.479,2.636C511.054,468.602,513.213,469.124,513.213,469.124z"/>
			<path style="fill:#FA7E72;" d="M493.718,492.406c0,0,4.011-4.24,2.382-8.63c-1.599-4.307-5.636-4.268-5.636-4.268
				s1.916-4.126-3.097-7.451c-3.635-2.411-12.12-0.977-12.309,1.771c-0.182,2.658,0.449,6.237,3.637,10.037
				C484.885,491.246,493.718,492.406,493.718,492.406z"/>
			<path style="opacity:0.44;fill:#EB6C50;" d="M443.033,475.538c0.575-4.606-2.194-8.082-13.488-8.124
				c-11.294-0.042-12.612,8.262-10.295,10.698C425.23,484.4,442.21,482.133,443.033,475.538z"/>
			<path style="opacity:0.44;fill:#EB6C50;" d="M592.381,406.217c-0.625-3.262-6.757-2.908-10.144,0.463
				c-3.389,3.372-6.155,9.599-0.989,11.695C586.415,420.471,593.722,413.216,592.381,406.217z"/>
			
				<linearGradient id="SVGID_00000118357809927434563240000003087077075506612413_" gradientUnits="userSpaceOnUse" x1="609.4236" y1="445.1337" x2="577.8531" y2="448.7542">
				<stop  offset="0" style="stop-color:#FF88C3"/>
				<stop  offset="1" style="stop-color:#FFBEE2"/>
			</linearGradient>
			<path style="fill:url(#SVGID_00000118357809927434563240000003087077075506612413_);" d="M598.376,437.572
				c0,0-2.09-2.355-4.999-3.979c-2.964-1.654-6.778-2.548-10.097,0.582c-4.15,3.915-0.28,11.486-0.28,11.486
				s-2.922,0.057-5.158,2.055c-3.045,2.723-5.206,8.099-0.575,13.059c1.98,2.121,4.095,2.871,6.136,2.825
				c5.727-0.131,10.88-6.532,10.88-6.532s5.133,4.239,9.144-1.922C612.207,441.662,598.376,437.572,598.376,437.572z"/>
			<path style="fill:#7C4B43;" d="M538.189,366.314c-3.05-2.111,1.484-8,3.266-10.309c2.776-3.599,4.922-5.428,7.391-4.417
				C553.55,353.51,542.879,369.56,538.189,366.314z"/>
			<path style="fill:#7C4B43;" d="M468.085,404.68c2.321-5.043-4.545-6.247-9.695-6.747c-5.15-0.499-11.125,1.315-11.455,3.654
				C446.092,407.554,465.764,409.724,468.085,404.68z"/>
			<path style="opacity:0.7;fill:#643832;" d="M435.638,329.968c-10.551-6.838-18.58,13.612-23.439,26.728
				c-4.858,13.117-4.789,27.019,4.006,25.738C428.952,380.58,451.143,340.015,435.638,329.968z"/>
			<path style="opacity:0.7;fill:#643832;" d="M404.984,327.099c3.694,2.44,13.573-1.13,20.442-6.19
				c8.822-6.5,10.583-17.102,4.47-18.517C419.182,299.91,396.125,321.246,404.984,327.099z"/>
			<path style="opacity:0.7;fill:#643832;" d="M499.997,266.956c0,0,0.228-7.922,14.475-12.594
				c7.411-2.431,13.564-1.084,13.564-1.084s1.382,1.353,2.792,2.85c1.411,1.496,2.565,3.192,2.565,3.192s-7.795-0.064-16.015,1.995
				C509.159,263.372,499.997,266.956,499.997,266.956z"/>
			<path style="fill:#65342F;" d="M297.506,415.307c-0.705,0-1.368-0.432-1.629-1.131c-0.334-0.898,0.121-1.896,1.017-2.233
				c0.074-0.028,7.44-2.917,10.903-11.805c3.627-9.309-0.624-21.07-0.668-21.188c-0.186-0.507-0.127-1.07,0.161-1.527
				c0.288-0.457,0.772-0.754,1.309-0.803c-0.033,0,3.868-0.893,9.688-11.261c5.694-10.144-0.273-28.909-0.334-29.097
				c-0.295-0.913,0.205-1.893,1.118-2.188c0.912-0.296,1.893,0.204,2.189,1.118c0.268,0.828,6.488,20.415,0.058,31.869
				c-4.546,8.097-8.224,11.163-10.396,12.323c1.131,3.82,3.4,13.583,0.114,22.017c-4.049,10.394-12.564,13.664-12.924,13.799
				C297.913,415.272,297.708,415.307,297.506,415.307z"/>
			<g>
				<path style="fill:#65342F;" d="M267.478,298.449c-0.288,0-0.579-0.071-0.848-0.222c-0.288-0.16-7.072-4.011-8.958-9.4
					c-0.317-0.905,0.16-1.897,1.067-2.214c0.907-0.317,1.897,0.162,2.214,1.067c1.208,3.453,5.733,6.595,7.375,7.515
					c0.837,0.468,1.136,1.527,0.667,2.366C268.677,298.129,268.087,298.449,267.478,298.449z"/>
				<path style="fill:#65342F;" d="M190.268,375.164c-0.418,0-0.837-0.149-1.17-0.454c-0.709-0.646-0.76-1.746-0.113-2.455
					c7.546-8.279,17.736-6.36,18.166-6.274c0.941,0.187,1.552,1.102,1.365,2.043c-0.187,0.941-1.1,1.558-2.044,1.365
					c-0.347-0.067-8.723-1.59-14.918,5.208C191.21,374.972,190.74,375.164,190.268,375.164z"/>
				<path style="fill:#65342F;" d="M216.918,311.725c-0.691,0-1.345-0.414-1.616-1.095c-0.355-0.893,0.081-1.903,0.973-2.257
					c6.976-2.774,13.708-0.79,13.992-0.705c0.919,0.278,1.437,1.249,1.159,2.168c-0.278,0.918-1.25,1.436-2.167,1.158
					c-0.054-0.017-5.884-1.705-11.699,0.608C217.35,311.685,217.132,311.725,216.918,311.725z"/>
				<path style="fill:#65342F;" d="M249.648,334.878c-0.269,0-0.541-0.062-0.796-0.195c-0.04-0.02-4.665-2.323-9.26-0.588
					c-0.898,0.337-1.9-0.113-2.24-1.011c-0.339-0.898,0.114-1.901,1.012-2.24c6.07-2.293,11.841,0.628,12.084,0.754
					c0.853,0.44,1.186,1.489,0.746,2.341C250.884,334.535,250.277,334.878,249.648,334.878z"/>
				<path style="fill:#65342F;" d="M229.986,390.94c-0.66,0-1.29-0.377-1.582-1.016c-0.398-0.873-0.014-1.904,0.859-2.302
					c0.809-0.37,1.661-0.484,2.564-0.606c1.714-0.232,3.847-0.519,6.919-2.737c0.781-0.561,1.866-0.383,2.426,0.393
					c0.562,0.778,0.386,1.865-0.392,2.427c-3.778,2.726-6.613,3.109-8.488,3.361c-0.667,0.09-1.245,0.169-1.585,0.324
					C230.472,390.89,230.227,390.94,229.986,390.94z"/>
				<path style="fill:#65342F;" d="M264.904,409.777c-0.578,0-1.143-0.289-1.473-0.814c-0.51-0.812-0.266-1.885,0.546-2.395
					c0.054-0.035,5.486-3.485,8.513-8.027c0.532-0.799,1.609-1.017,2.41-0.482c0.798,0.532,1.014,1.611,0.482,2.41
					c-3.447,5.173-9.309,8.886-9.556,9.042C265.539,409.69,265.219,409.777,264.904,409.777z"/>
				<path style="fill:#65342F;" d="M449.625,192.193c-0.468,0-0.935-0.189-1.278-0.56c-0.215-0.233-5.273-5.764-6.957-11.392
					c-0.275-0.919,0.247-1.887,1.166-2.163c0.924-0.268,1.888,0.248,2.163,1.168c1.452,4.849,6.137,9.981,6.184,10.033
					c0.649,0.706,0.604,1.805-0.102,2.455C450.468,192.04,450.046,192.193,449.625,192.193z"/>
				<path style="fill:#65342F;" d="M504.548,187.478c-0.314,0-0.631-0.085-0.917-0.263c-0.815-0.508-1.064-1.579-0.557-2.394
					c0.024-0.038,2.582-4.264,2.611-10.081c0.004-0.957,0.782-1.73,1.738-1.73c0.968,0.005,1.742,0.786,1.738,1.746
					c-0.033,6.843-3.01,11.699-3.136,11.902C505.695,187.187,505.129,187.478,504.548,187.478z"/>
				<path style="fill:#65342F;" d="M471.133,181.694c-0.679,0-1.324-0.399-1.603-1.065c-2.384-5.677-1.708-10.769-1.678-10.982
					c0.133-0.95,1.016-1.61,1.961-1.48c0.949,0.132,1.611,1.008,1.482,1.956c-0.008,0.052-0.557,4.404,1.44,9.16
					c0.372,0.886-0.044,1.904-0.93,2.275C471.586,181.651,471.358,181.694,471.133,181.694z"/>
				<path style="fill:#65342F;" d="M470.457,160.307c-0.026,0-0.051,0-0.077-0.001c-0.953-0.042-1.695-0.837-1.661-1.79
					c0.007-0.204,0.23-5.019,4.845-8.113c0.798-0.535,1.876-0.321,2.411,0.476c0.534,0.797,0.321,1.876-0.476,2.411
					c-3.101,2.078-3.301,5.229-3.308,5.363C472.144,159.58,471.377,160.307,470.457,160.307z"/>
				<path style="fill:#65342F;" d="M518.085,198.898c-0.375,0-0.752-0.12-1.068-0.369c-0.746-0.587-0.89-1.653-0.315-2.408
					c0.111-0.146,2.826-3.592,8.859-3.36c0.959,0.036,1.707,0.843,1.671,1.802c-0.037,0.959-0.82,1.746-1.802,1.671
					c-4.161-0.154-5.908,1.927-5.981,2.016C519.105,198.675,518.596,198.898,518.085,198.898z"/>
			</g>
			<g>
				<path style="fill:#65342F;" d="M488.659,276.159c-0.513,0-1.021-0.226-1.364-0.66c-0.596-0.752-0.468-1.845,0.284-2.44
					c21.991-17.404,48.89-15.436,50.026-15.343c0.956,0.078,1.668,0.915,1.591,1.872c-0.077,0.956-0.897,1.667-1.872,1.592
					c-0.26-0.023-26.699-1.927-47.588,14.603C489.417,276.037,489.037,276.159,488.659,276.159z"/>
				<path style="fill:#65342F;" d="M389.665,290.155c-0.394,0-0.79-0.134-1.116-0.406c-0.735-0.617-0.832-1.713-0.214-2.448
					c0.201-0.241,5.024-5.904,12.042-6.823c0.951-0.13,1.824,0.546,1.949,1.497c0.125,0.951-0.545,1.825-1.497,1.949
					c-5.691,0.747-9.79,5.562-9.831,5.611C390.654,289.943,390.161,290.155,389.665,290.155z"/>
				<path style="fill:#65342F;" d="M459.349,252.127c-0.579,0-1.145-0.288-1.475-0.816c-0.509-0.813-0.263-1.886,0.552-2.395
					c0.233-0.146,5.726-3.543,11.199-3.543c0.054,0,0.107,0.001,0.161,0.001c0.96,0.012,1.728,0.8,1.716,1.759
					c-0.012,0.96-0.84,1.713-1.759,1.716c-0.04-0.001-0.081-0.001-0.122-0.001c-4.482,0-9.303,2.983-9.352,3.014
					C459.983,252.042,459.664,252.127,459.349,252.127z"/>
				<path style="fill:#65342F;" d="M518.262,281.212c-0.635,0-1.248-0.349-1.553-0.956c-0.432-0.858-0.087-1.902,0.771-2.334
					c0.293-0.148,7.248-3.602,13.412-2.31c0.939,0.196,1.541,1.117,1.344,2.057c-0.196,0.94-1.118,1.547-2.057,1.344
					c-4.982-1.039-11.075,1.983-11.136,2.014C518.792,281.152,518.525,281.212,518.262,281.212z"/>
				<path style="fill:#65342F;" d="M462.965,326.09c-0.332,0-0.668-0.095-0.965-0.294c-0.798-0.533-1.011-1.612-0.477-2.41
					c0.03-0.046,3.174-4.824,3.392-9.84c0.042-0.958,0.846-1.703,1.812-1.661c0.959,0.042,1.702,0.853,1.66,1.813
					c-0.261,6.007-3.825,11.394-3.976,11.621C464.076,325.82,463.526,326.09,462.965,326.09z"/>
				<path style="fill:#65342F;" d="M374.136,378.035c-0.951,0-1.727-0.765-1.737-1.717c-0.003-0.336-0.034-8.3,4.954-13.744
					c0.648-0.706,1.749-0.756,2.455-0.106c0.708,0.648,0.756,1.747,0.107,2.455c-4.045,4.414-4.041,11.291-4.041,11.36
					c0.007,0.958-0.763,1.743-1.721,1.751C374.147,378.035,374.141,378.035,374.136,378.035z"/>
				<path style="fill:#65342F;" d="M333.735,423.568c-0.619,0-1.217-0.33-1.531-0.913c-0.127-0.235-3.087-5.85-1.766-13.934
					c0.154-0.947,1.053-1.594,1.995-1.435c0.948,0.155,1.59,1.048,1.435,1.996c-1.132,6.929,1.37,11.677,1.395,11.724
					c0.455,0.845,0.14,1.9-0.706,2.354C334.296,423.502,334.013,423.568,333.735,423.568z"/>
				<path style="fill:#65342F;" d="M404.056,416.9c-0.578,0-1.143-0.288-1.473-0.812c-0.51-0.812-0.267-1.884,0.544-2.395
					c0.1-0.063,5.123-3.335,6.739-9.068c0.261-0.923,1.22-1.463,2.145-1.2c0.924,0.26,1.461,1.22,1.201,2.144
					c-1.995,7.078-7.977,10.906-8.231,11.065C404.691,416.814,404.372,416.9,404.056,416.9z"/>
			</g>
			<path style="fill:#FFBEE2;" d="M556.684,443.911c-1.712,1.266-1.872,6.44,3.267,6.873c4.039,0.341,6.891-1.347,6.847-5.06
				C566.755,442.012,558.395,442.646,556.684,443.911z"/>
			<path style="fill:#FFAA78;" d="M535.002,548.987c0,0,27.35-18.947,47.895-34.26c20.544-15.312,38.941-29.167,38.941-29.167
				s13.426,1.481,23.384-2.964c7.255-3.238,11.648-12.709,12.743-16.634c1.746-6.261-0.658-6.385-0.658-6.385
				s0.638-2.182,0.235-4.016c-0.402-1.834-1.683-2.987-1.683-2.987s7.358-8.168,3.504-8.698c-3.854-0.53-13.774,5.514-18.839,7
				c-6.237,1.831-11.322,2.054-14.687,1.051c-2.238-0.667-6.542-7.285-6.542-7.285s-1.246,5.966-2.758,10.379
				s-3.291,7.271-3.291,7.271s-23.634,11.823-44.254,22.905c-29.151,15.667-39.31,19.341-39.31,19.341L535.002,548.987z"/>
			<path style="fill:#FFAA78;" d="M663.612,408.838c-2.5-11.476-14.281-13.329-21.819-12.785
				c-6.659,0.481-16.401,3.816-20.669,9.529c-3.572,4.779,3.107,4.869,3.107,4.869s-3.405,2.597-2.578,4.691
				c0.827,2.094,5.741,2.366,5.741,2.366s-4.613,3.29-2.841,5.395c1.773,2.104,7.442,1.265,7.442,1.265s-3.872,2.595-1.624,4.808
				C632.588,431.161,667.912,428.572,663.612,408.838z"/>
			<g>
				<path style="fill:#FC8364;" d="M645.722,461.405c-0.399,0-0.787-0.206-1.002-0.577c-0.321-0.552-0.133-1.262,0.419-1.583
					c0.058-0.034,5.728-3.351,9.943-7.602c0.451-0.455,1.185-0.456,1.638-0.007c0.455,0.45,0.457,1.184,0.007,1.638
					c-4.435,4.473-10.18,7.833-10.424,7.973C646.121,461.354,645.92,461.405,645.722,461.405z"/>
				<path style="fill:#FC8364;" d="M649.455,468.465c-0.353,0-0.702-0.161-0.929-0.465c-0.384-0.511-0.278-1.238,0.234-1.621
					c0.049-0.036,4.93-3.706,7.691-7.281c0.388-0.506,1.118-0.602,1.625-0.208c0.507,0.39,0.6,1.119,0.208,1.625
					c-2.956,3.828-7.927,7.562-8.137,7.72C649.939,468.39,649.696,468.465,649.455,468.465z"/>
				<path style="fill:#FC8364;" d="M652.226,473.827c-0.287,0-0.575-0.106-0.799-0.319c-0.464-0.441-0.482-1.175-0.041-1.638
					c0.036-0.037,3.583-3.765,5.191-5.662c0.412-0.487,1.144-0.55,1.633-0.135c0.489,0.414,0.549,1.145,0.135,1.633
					c-1.651,1.948-5.132,5.606-5.279,5.761C652.837,473.706,652.531,473.827,652.226,473.827z"/>
				<path style="fill:#FC8364;" d="M623.958,411.776c-0.353,0-0.702-0.161-0.93-0.465c-0.382-0.514-0.277-1.239,0.235-1.622
					c0.313-0.233,7.79-5.738,19.631-7.87c0.629-0.112,1.232,0.304,1.345,0.936c0.113,0.629-0.306,1.232-0.936,1.345
					c-11.307,2.035-18.582,7.392-18.653,7.447C624.442,411.701,624.199,411.776,623.958,411.776z"/>
				<path style="fill:#FC8364;" d="M627.509,418.561c-0.42,0-0.825-0.229-1.031-0.627c-0.293-0.569-0.07-1.267,0.498-1.561
					c0.286-0.147,7.126-3.643,17.419-5.449c0.63-0.107,1.23,0.311,1.342,0.941c0.11,0.63-0.311,1.231-0.941,1.342
					c-9.922,1.74-16.689,5.19-16.756,5.225C627.87,418.519,627.688,418.561,627.509,418.561z"/>
				<path style="fill:#FC8364;" d="M632.052,425.499c-0.488,0-0.941-0.31-1.101-0.798c-0.199-0.609,0.132-1.263,0.74-1.462
					c0.081-0.026,8.12-2.651,14.98-4.281c0.625-0.146,1.248,0.237,1.395,0.859c0.148,0.622-0.236,1.247-0.859,1.395
					c-6.765,1.608-14.715,4.203-14.794,4.229C632.293,425.48,632.171,425.499,632.052,425.499z"/>
			</g>
			<path style="fill:#A6F3F2;" d="M600.772,354.836c-0.636,0-1.153-0.512-1.158-1.148c-0.006-0.64,0.509-1.163,1.148-1.169
				l75.753-0.647c0.619-0.042,1.163,0.509,1.169,1.148c0.006,0.64-0.509,1.163-1.148,1.169l-75.753,0.647
				C600.779,354.836,600.775,354.836,600.772,354.836z"/>
			<g>
				<path style="fill:#FFFFFF;" d="M468.629,620.062c-0.048,0-0.097-0.002-0.147-0.006c-1.411-0.119-34.736-2.95-50.422-8.048
					c-0.913-0.296-1.412-1.277-1.116-2.19c0.297-0.913,1.277-1.41,2.19-1.115c15.307,4.975,49.296,7.861,49.637,7.889
					c0.957,0.08,1.667,0.921,1.587,1.877C470.283,619.376,469.523,620.062,468.629,620.062z"/>
				<path style="fill:#FFFFFF;" d="M417.61,610.387c-0.477,0-0.94-0.197-1.273-0.555c-0.35-0.377-8.582-9.326-8.828-17.005
					c-0.185-5.761,1.825-11.327,4.887-13.535c1.508-1.087,3.251-1.35,4.903-0.74c8.216,3.026,3.107,25.944,1.999,30.507
					c-0.15,0.622-0.631,1.111-1.25,1.272C417.903,610.369,417.756,610.387,417.61,610.387z M415.527,581.702
					c-0.304,0-0.666,0.098-1.098,0.41c-1.819,1.311-3.606,5.637-3.447,10.605c0.126,3.933,3.232,8.875,5.702,12.108
					c2.201-10.755,2.607-21.835-0.586-23.012C415.935,581.753,415.746,581.702,415.527,581.702z"/>
				<path style="fill:#FFFFFF;" d="M397.903,617.211c-1.59,0-3.068-0.233-4.34-0.783c-1.833-0.794-2.768-2.67-2.44-4.896
					c0.542-3.683,4.436-8.034,11.703-8.883c10.197-1.18,15.752,4.828,15.983,5.085c0.353,0.391,0.51,0.924,0.424,1.445
					c-0.085,0.522-0.404,0.975-0.864,1.234C416.927,611.221,405.974,617.211,397.903,617.211z M405.46,605.97
					c-0.71,0-1.453,0.041-2.23,0.133c-5.777,0.674-8.382,3.999-8.668,5.936c-0.065,0.442-0.052,1.01,0.383,1.198
					c4.475,1.939,14.109-1.994,19.457-4.664C412.644,607.402,409.642,605.97,405.46,605.97z"/>
				<path style="fill:#FFFFFF;" d="M405.299,629.234c-0.453,0-0.906-0.177-1.246-0.527c-0.669-0.688-0.653-1.788,0.035-2.456
					c0.075-0.074,7.591-7.455,11.014-16.489c0.34-0.897,1.344-1.351,2.241-1.009c0.898,0.339,1.35,1.343,1.01,2.24
					c-3.704,9.774-11.512,17.429-11.843,17.75C406.172,629.071,405.736,629.234,405.299,629.234z"/>
				<path style="fill:#FFFFFF;" d="M421.168,630.539c-0.945,0-1.72-0.758-1.737-1.707c-0.181-10.112-3.859-18.253-3.896-18.334
					c-0.399-0.872-0.017-1.904,0.855-2.303c0.872-0.404,1.902-0.019,2.304,0.852c0.164,0.356,4.019,8.853,4.213,19.725
					c0.017,0.959-0.747,1.751-1.707,1.768C421.189,630.539,421.179,630.539,421.168,630.539z"/>
			</g>
			<path style="fill:#FF80B3;" d="M476.6,222.616c0,3.326-2.696,6.022-6.022,6.022c-3.326,0-6.022-2.696-6.022-6.022
				c0-3.326,2.696-6.022,6.022-6.022C473.904,216.594,476.6,219.29,476.6,222.616z"/>
			<path style="fill:#FF80B3;" d="M323.965,321.06c0,3.326-2.696,6.022-6.022,6.022c-3.326,0-6.022-2.696-6.022-6.022
				c0-3.326,2.696-6.022,6.022-6.022C321.269,315.038,323.965,317.734,323.965,321.06z"/>
			<path style="opacity:0.62;fill:#643832;" d="M303.056,351.292c-3.81-12.241-20.619-13.589-31.176-8.887
				c-10.556,4.702-29.924,19.202-22.604,30.309c7.32,11.108,19.247,9.65,28.956,5.497
				C287.941,374.06,306.866,363.533,303.056,351.292z"/>
			<path style="opacity:0.62;fill:#643832;" d="M294.024,325.936c4.074-7.311-2.854-15.867-9.828-18.744
				c-6.975-2.876-22.549-5.51-24.508,2.951s4.098,13.445,10.432,16.168C276.453,329.035,289.949,333.247,294.024,325.936z"/>
			<path style="fill:#F8D235;" d="M440.705,544.19c0,0,7.484-10.372,30.063-20.839c22.579-10.466,60.255-21.026,60.255-21.026
				s2.744,8.896,5.026,20.128c2.283,11.232,4.103,24.801,4.103,24.801l-62.529,45.258L440.705,544.19z"/>
			<path style="fill:#F3B000;" d="M478.58,593.504c-0.539,0-1.069-0.249-1.409-0.719c-0.563-0.777-0.389-1.863,0.388-2.427
				l61.606-44.642c0.775-0.561,1.862-0.39,2.427,0.388c0.563,0.777,0.389,1.863-0.388,2.427l-61.605,44.642
				C479.29,593.396,478.933,593.504,478.58,593.504z"/>
			<path style="fill:#FF5E64;" d="M490.428,638.05c0,2.416-1.959,4.375-4.375,4.375c-2.416,0-4.375-1.959-4.375-4.375
				c0-2.416,1.959-4.375,4.375-4.375C488.47,633.675,490.428,635.634,490.428,638.05z"/>
			<path style="fill:#FF5E64;" d="M505.319,599.141c0,2.416-1.959,4.375-4.375,4.375c-2.416,0-4.375-1.959-4.375-4.375
				c0-2.416,1.959-4.375,4.375-4.375C503.36,594.767,505.319,596.725,505.319,599.141z"/>
			<path style="fill:#FC8364;" d="M532.958,504.353c-0.448,0-0.875-0.261-1.064-0.7c-0.253-0.587,0.017-1.268,0.605-1.522
				c4.381-1.889,14.408-6.484,32.331-16.022c0.563-0.304,1.267-0.086,1.567,0.479c0.301,0.564,0.086,1.266-0.479,1.567
				c-17.996,9.576-28.088,14.2-32.503,16.103C533.267,504.322,533.112,504.353,532.958,504.353z"/>
			<path style="fill:#FFCFEB;" d="M582.479,464.144c-0.019,0-0.039-0.001-0.059-0.003c-2.051-0.204-3.927-1.203-5.576-2.97
				c-1.96-2.099-2.937-4.507-2.826-6.967c0.113-2.508,1.398-5.095,3.438-6.918c1.633-1.46,3.583-1.953,4.678-2.119
				c-0.893-2.092-2.912-7.958,0.748-11.411c2.911-2.746,6.637-2.974,10.776-0.666c0.279,0.156,0.38,0.509,0.224,0.788
				c-0.157,0.281-0.515,0.377-0.787,0.224c-3.708-2.067-6.874-1.901-9.418,0.497c-3.79,3.576-0.198,10.729-0.161,10.801
				c0.091,0.178,0.084,0.389-0.019,0.56c-0.102,0.171-0.285,0.278-0.484,0.283c-0.027,0-2.745,0.084-4.785,1.909
				c-1.811,1.62-2.953,3.902-3.053,6.106c-0.097,2.171,0.749,4.233,2.515,6.125c1.452,1.555,3.082,2.431,4.845,2.608
				c0.318,0.032,0.551,0.315,0.518,0.634C583.025,463.921,582.774,464.144,582.479,464.144z"/>
			<path style="opacity:0.3;fill:#FFFFFF;" d="M559.976,396.389c-0.033,3.25,2.641,5.695,5.972,5.464
				c3.331-0.232,6.058-3.054,6.091-6.304c0.033-3.249-2.641-5.696-5.972-5.464C562.736,390.317,560.009,393.14,559.976,396.389z"/>
			<path style="opacity:0.15;fill:#FFFFFF;" d="M577.531,371.995c-2.036-4.395-7.25-6.307-11.645-4.271
				c-4.395,2.036-6.307,7.25-4.271,11.645c2.036,4.395,7.25,6.307,11.645,4.271C577.655,381.604,579.567,376.39,577.531,371.995z"/>
			<path style="opacity:0.3;fill:#FFFFFF;" d="M462.514,444.638c-0.446,3.219,1.895,5.985,5.228,6.179
				c3.334,0.193,6.398-2.259,6.844-5.478c0.446-3.219-1.895-5.985-5.228-6.179C466.024,438.966,462.96,441.419,462.514,444.638z"/>
			<path style="opacity:0.15;fill:#FFFFFF;" d="M456.915,431.037c-2.036-4.395-7.25-6.308-11.645-4.271
				c-4.395,2.036-6.307,7.25-4.271,11.645c2.036,4.395,7.25,6.307,11.645,4.271C457.039,440.645,458.951,435.432,456.915,431.037z"
				/>
			<path style="opacity:0.31;fill:#774647;" d="M539.645,405.004c0,0,2.403-9.897,12.676-22.099
				c11.314-13.437,22.814-14.902,22.814-14.902s-12.151-10.809-29.084,5.441C529.218,389.599,539.645,405.004,539.645,405.004z"/>
			<path style="fill:#7C4B43;" d="M537.333,404.297c-0.784-3.178-1.071-6.483-0.867-9.789c0.169-3.309,0.911-6.617,2.168-9.727
				c1.238-3.12,3.012-6.024,5.14-8.594c2.089-2.558,4.464-4.851,7.166-6.846c2.687-1.994,5.716-3.634,8.983-4.701
				c3.267-1.056,6.757-1.506,10.197-1.306c1.721,0.095,3.43,0.352,5.105,0.759c0.419,0.103,0.836,0.213,1.25,0.335l0.993,0.296
				c0.427,0.111,0.798,0.144,1.162,0.108c0.711-0.037,1.592-0.427,2.509-1.196c0.92-0.716,1.851-1.839,2.665-2.826l0.186-0.226
				c0.631-0.765,1.763-0.874,2.528-0.243c0.531,0.438,0.745,1.12,0.616,1.751c-0.387,1.862-1.091,3.425-2.264,4.992
				c-0.599,0.752-1.32,1.487-2.217,2.097c-0.893,0.602-1.983,1.08-3.146,1.293c-1.166,0.217-2.372,0.137-3.443-0.133l-0.743-0.213
				l-0.489-0.152c-0.327-0.098-0.658-0.188-0.991-0.272c-1.331-0.332-2.696-0.547-4.065-0.63c-5.495-0.362-10.985,1.42-15.599,4.74
				c-2.305,1.645-4.475,3.631-6.377,5.801c-1.896,2.131-3.474,4.517-4.67,7.09c-1.176,2.579-2.008,5.34-2.369,8.202
				c-0.38,2.857-0.328,5.8,0.071,8.699c0.137,0.997-0.546,1.898-1.523,2.032C538.399,405.764,537.552,405.17,537.333,404.297z"/>
			<path style="fill:#FF5E64;" d="M540.769,648.206c0,2.416-1.959,4.375-4.375,4.375c-2.416,0-4.375-1.959-4.375-4.375
				c0-2.416,1.959-4.375,4.375-4.375C538.811,643.831,540.769,645.79,540.769,648.206z"/>
			<path style="fill:#FF5E64;" d="M529.26,622.699c0,2.416-1.959,4.375-4.375,4.375c-2.416,0-4.375-1.959-4.375-4.375
				c0-2.416,1.959-4.375,4.375-4.375C527.301,618.324,529.26,620.283,529.26,622.699z"/>
		</g>
		
			<rect x="68.152" y="660.733" style="clip-path:url(#SVGID_00000086670048081342694880000011385561661311517328_);fill:#FFF6E3;" width="1103.842" height="206.865"/>
		
			<ellipse style="opacity:0.1;clip-path:url(#SVGID_00000086670048081342694880000011385561661311517328_);fill:#FF508D;" cx="1015.364" cy="700.055" rx="113.033" ry="22.831"/>
		<g style="clip-path:url(#SVGID_00000086670048081342694880000011385561661311517328_);">
			<path style="opacity:0.25;fill:#FF508D;" d="M462.224,715.573c0-1.55,4.353-2.806,9.723-2.806s9.723,1.256,9.723,2.806
				c0,1.55-4.353,2.806-9.723,2.806S462.224,717.123,462.224,715.573z"/>
			<path style="opacity:0.25;fill:#FF508D;" d="M494.574,715.573c0-1.55,4.353-2.806,9.723-2.806c5.37,0,9.723,1.256,9.723,2.806
				c0,1.55-4.353,2.806-9.723,2.806C498.927,718.38,494.574,717.123,494.574,715.573z"/>
			<path style="fill:#FC5158;" d="M468.373,704.602c2.153-3.205,8.149-5.556,12.531-1.396c4.382,4.161,4.408,13.796-5.577,14.404
				C470.096,717.927,463.186,712.323,468.373,704.602z"/>
			<path style="fill:#FC5158;" d="M519.159,704.399c-1.284-3.753-11.073-7.232-15.956-1.309c-6.353,7.707-0.617,14.595,5.137,15.012
				C516.337,718.682,520.443,708.151,519.159,704.399z"/>
			<path style="fill:#A1B633;" d="M512.357,703.736c-0.027,0-0.053-0.002-0.08-0.008c-0.236-0.043-0.392-0.27-0.349-0.507
				c3.298-17.809-9.504-26.415-11.138-27.431c-2.258,0.851-23.693,9.389-24.36,26.806c-0.009,0.24-0.202,0.425-0.451,0.419
				c-0.241-0.01-0.428-0.212-0.419-0.453c0.723-18.886,24.887-27.579,25.131-27.664c0.118-0.043,0.248-0.03,0.359,0.032
				c0.154,0.087,15.349,8.929,11.734,28.449C512.745,703.589,512.562,703.736,512.357,703.736z"/>
			<path style="fill:#A1B633;" d="M501.645,675.04c-1.407,0.523-0.802-6.426,2.776-10.296c3.577-3.87,10.032-6.147,11.534-5.185
				c1.503,0.962-1.985,5.995-5.562,9.864C506.815,673.294,503.073,674.51,501.645,675.04z"/>
		</g>
		<g style="clip-path:url(#SVGID_00000086670048081342694880000011385561661311517328_);">
			<ellipse style="opacity:0.25;fill:#FF508D;" cx="533.84" cy="727.159" rx="9.723" ry="2.806"/>
			<path style="fill:#A3487E;" d="M531.422,709.335c-8.397,5.222-6.841,16.261,2.128,18.943c6.671,1.995,14.091-1.309,15.557-10.428
				C549.864,713.144,539.82,704.114,531.422,709.335z"/>
		</g>
		<g style="clip-path:url(#SVGID_00000086670048081342694880000011385561661311517328_);">
			<path style="opacity:0.25;fill:#FF508D;" d="M785.652,727.691c0-1.883,5.234-3.409,11.691-3.409
				c6.457,0,11.691,1.526,11.691,3.409c0,1.883-5.234,3.409-11.691,3.409C790.886,731.1,785.652,729.574,785.652,727.691z"/>
			<path style="fill:#EE444C;" d="M819.089,702.638c-5.006-6.84-23.885-2.776-28.611,3.759c-4.727,6.536-2.494,21.709,8.572,22.989
				C814.836,731.212,824.095,709.479,819.089,702.638z"/>
			<path style="fill:#FFFFFF;" d="M796.108,708.878c0.765-0.425,1.563-0.735,2.373-0.999c0.811-0.26,1.634-0.479,2.547-0.378
				c0.487,0.054,0.839,0.492,0.786,0.98c-0.027,0.249-0.158,0.465-0.341,0.607c-0.728,0.559-1.544,0.8-2.373,0.999
				c-0.829,0.196-1.672,0.344-2.547,0.378c-0.468,0.018-0.861-0.346-0.88-0.813C795.659,709.322,795.838,709.028,796.108,708.878z"
				/>
			<path style="fill:#FFFFFF;" d="M808.409,713.773c0.17-0.402,0.393-0.757,0.625-1.104c0.226-0.353,0.491-0.672,0.756-0.991
				c0.275-0.31,0.555-0.616,0.871-0.891c0.313-0.277,0.633-0.549,1.01-0.77c0.416-0.244,0.95-0.105,1.194,0.311
				c0.143,0.243,0.153,0.531,0.054,0.774c-0.167,0.404-0.391,0.759-0.622,1.107c-0.227,0.352-0.492,0.671-0.76,0.987
				c-0.278,0.307-0.557,0.615-0.875,0.887c-0.312,0.279-0.632,0.549-1.006,0.773c-0.412,0.247-0.946,0.114-1.193-0.298
				C808.316,714.313,808.306,714.019,808.409,713.773z"/>
			<path style="fill:#FFFFFF;" d="M800.075,718.541c0.358-0.544,0.803-0.988,1.277-1.414c0.24-0.208,0.489-0.409,0.762-0.583
				c0.273-0.173,0.553-0.348,0.875-0.463c0.504-0.18,1.025,0.066,1.195,0.54c0.085,0.237,0.064,0.487-0.035,0.698
				c-0.158,0.331-0.363,0.595-0.578,0.858c-0.216,0.26-0.459,0.491-0.716,0.708c-0.522,0.423-1.088,0.811-1.79,1.034
				c-0.469,0.149-0.97-0.11-1.119-0.579c-0.084-0.265-0.038-0.54,0.102-0.756L800.075,718.541z"/>
		</g>
		<g style="clip-path:url(#SVGID_00000086670048081342694880000011385561661311517328_);">
			<path style="opacity:0.25;fill:#FF508D;" d="M824.891,689.098c0-1.603,4.458-2.903,9.956-2.903c5.499,0,9.956,1.3,9.956,2.903
				c0,1.604-4.458,2.903-9.956,2.903C829.348,692.001,824.891,690.701,824.891,689.098z"/>
			<path style="fill:#A3487E;" d="M846.486,677.338c-2.376-5.418-12.925-4.732-15.854-1.534c-6.313,6.895,0.477,15.859,6.015,15.819
				C847.171,691.548,848.839,682.702,846.486,677.338z"/>
		</g>
		<g style="clip-path:url(#SVGID_00000086670048081342694880000011385561661311517328_);">
			<ellipse style="opacity:0.25;fill:#FF88C3;" cx="660.407" cy="677.156" rx="135.522" ry="39.117"/>
			<ellipse style="fill:#FFFFFF;" cx="667.542" cy="669.866" rx="135.522" ry="39.117"/>
			<path style="fill:#BB624D;" d="M558.273,602.839h211.745c0,0,0.897,35.089,0,56.99c-0.259,6.312-18.13,26.979-103.646,27.931
				c-52.933,0.588-107.059-4.141-108.1-27.931C557.569,643.741,558.273,602.839,558.273,602.839z"/>
			<path style="fill:#FF88C3;" d="M557.901,632.206c0,0,6.455-3.98,21.58-2.156c15.124,1.825,27.2,7.794,39.769,7.766
				c15.143-0.033,21.876-5.363,45.155-6.663c23.28-1.299,34.921,1.25,46.328,1.007c14.963-0.318,23.515-5.839,32.684-6.898
				c11.036-1.273,16.175,2.223,20.408,2.267c3.702,0.038,6.424-1.935,6.424-1.935l0.26,18.993c0,0-8.896-1.724-16.926,0.431
				c-13.608,3.652-24.068,9.851-37.756,11.231c-14.971,1.508-28.002-1.891-47.646-0.849c-14.007,0.743-19.703,7.714-32.291,7.26
				c-16.816-0.606-21.902-6.974-40.218-10.126c-18.316-3.151-37.618-1.055-37.618-1.055L557.901,632.206z"/>
			<path style="opacity:0.51;fill:#A14A38;" d="M558.188,612.058l-0.131,6.206c0,0,2.904,3.037,11.076,2.286
				c4.893-0.449,8.562-3.077,8.562-3.077s14.03,11.353,42.175,8.564c16.784-1.664,25.193-12.12,25.193-12.12
				s21.771,17.635,64.576,8.931c15.552-3.162,24.277-10.404,24.277-10.404s11.077,8.838,25.149,6.162
				c8.856-1.684,10.909-6.631,10.909-6.631l-0.04-10.708c0,0-63.26-13.032-116.291-10.234
				C600.612,593.831,558.188,612.058,558.188,612.058z"/>
			<polygon style="fill:#76D9DC;" points="633.723,505.265 642.008,505.265 641.854,517.455 633.602,517.227 			"/>
			
				<linearGradient id="SVGID_00000169518308364617057860000003596147636525185188_" gradientUnits="userSpaceOnUse" x1="662.2214" y1="621.8322" x2="672.2623" y2="489.757">
				<stop  offset="0" style="stop-color:#FF88C3"/>
				<stop  offset="1" style="stop-color:#FFBEE2"/>
			</linearGradient>
			<path style="fill:url(#SVGID_00000169518308364617057860000003596147636525185188_);" d="M575.086,548.791
				c0,0-11.659-4.383-25.228-0.427c-16.059,4.681-34.066,19.394-28.22,43.401c3.039,12.487,18.726,19.722,32.923,20.737
				c13.757,0.985,26.083-4.062,26.083-4.062s8.281,16.474,28.22,14.966c25.442-1.924,35.062-20.738,35.062-20.738
				s16.704,19.538,48.746,16.462c26.724-2.565,38.697-16.89,38.697-16.89s11.55,9.94,26.724,8.125
				c9.608-1.15,11.971-7.27,11.971-7.27s40.594-6.024,40.835-33.352c0.246-27.852-22-48.354-40.38-53.458
				c-16.732-4.646-29.744,4.927-29.744,4.927s-4.618-22.433-33.904-24.164c-37.422-2.213-46.91,25.875-46.91,25.875
				s-4.639-13.205-24.373-14.11c-32.227-1.48-30.144,26.937-30.144,26.937s-13.121-10.539-23.672-2.832
				C572.755,539.503,575.086,548.791,575.086,548.791z"/>
			<path style="fill:#FC5158;" d="M753.156,553.3c7.029-6.544,26.067-0.844,21.087,11.514c-3.272,8.12-19.754,16.482-26.42,13.331
				C742.393,575.578,746.127,559.845,753.156,553.3z"/>
			<path style="fill:#FFFFFF;" d="M758.075,560.446c-0.435,0.74-0.906,1.48-1.412,2.235c-0.506,0.749-1.045,1.51-1.817,2.13
				c-0.379,0.304-0.876,0.25-1.149-0.09c-0.141-0.175-0.194-0.395-0.167-0.602c0.147-1.074,0.615-1.962,1.219-2.789
				c0.61-0.811,1.346-1.605,2.425-2.067c0.387-0.166,0.835,0.014,1,0.4c0.098,0.23,0.075,0.482-0.042,0.683L758.075,560.446z"/>
			<path style="fill:#FFFFFF;" d="M762.956,566.432c0.325-0.686,0.79-1.235,1.237-1.747c0.466-0.512,0.896-0.985,1.469-1.452
				l0.077-0.063c0.337-0.275,0.833-0.224,1.108,0.113c0.131,0.161,0.188,0.359,0.175,0.551c-0.064,0.937-0.522,1.739-1.066,2.386
				c-0.568,0.644-1.224,1.16-2.12,1.411c-0.42,0.117-0.856-0.128-0.973-0.548c-0.053-0.19-0.032-0.384,0.046-0.55L762.956,566.432z"
				/>
			<path style="fill:#FC5158;" d="M670.77,581.51c7.323-0.801,14.216-12.836,9.654-19.838c-8.821-13.539-24.4-11.776-29.279-3.289
				C645.629,567.976,657.192,582.995,670.77,581.51z"/>
			<path style="fill:#FFFFFF;" d="M660.013,565.801c0.623,0.203,1.037,0.529,1.432,0.915c0.38,0.392,0.714,0.848,0.817,1.549
				l0.009,0.061c0.074,0.502-0.274,0.969-0.776,1.042c-0.074,0.011-0.152,0.012-0.223,0.005c-0.395-0.039-0.695-0.161-0.971-0.323
				c-0.272-0.164-0.512-0.366-0.717-0.604c-0.403-0.476-0.754-1.044-0.799-1.808c-0.028-0.476,0.336-0.883,0.811-0.911
				c0.11-0.006,0.216,0.008,0.314,0.04L660.013,565.801z"/>
			<path style="fill:#FFFFFF;" d="M670.386,559.231c0.779,0.069,1.489,0.493,2.02,1.115c0.26,0.315,0.483,0.68,0.583,1.097
				c0.093,0.431,0.115,0.826-0.102,1.36c-0.113,0.276-0.423,0.413-0.701,0.313l-0.785-0.284c-0.262-0.095-0.424-0.311-0.577-0.457
				c-0.15-0.162-0.255-0.338-0.373-0.525c-0.247-0.368-0.516-0.767-0.821-1.339l-0.04-0.075c-0.213-0.401-0.061-0.898,0.339-1.111
				C670.074,559.246,670.232,559.217,670.386,559.231z"/>
			<path style="fill:#FFFFFF;" d="M673.47,568.663c0.417,0.174,0.801,0.39,1.149,0.652c0.362,0.244,0.7,0.518,0.906,0.961
				c0.194,0.418,0.012,0.914-0.406,1.108c-0.166,0.077-0.345,0.095-0.512,0.062c-0.479-0.095-0.826-0.359-1.149-0.652
				c-0.337-0.276-0.638-0.597-0.906-0.962c-0.252-0.344-0.178-0.826,0.166-1.079C672.943,568.588,673.229,568.564,673.47,568.663z"
				/>
			<path style="fill:#FC5158;" d="M713.557,517.747c-3.517-2.782-0.059-14.789,9.591-18.565c6.185-2.419,17.573,4.61,14.97,11.487
				C734.215,520.987,717.073,520.528,713.557,517.747z"/>
			<path style="fill:#FFFFFF;" d="M717.808,510.715c0.053-0.427,0.151-0.754,0.317-1.078c0.156-0.322,0.363-0.61,0.598-0.873
				c0.472-0.519,1.079-0.944,1.844-1.037c0.458-0.056,0.874,0.27,0.931,0.728c0.018,0.148-0.004,0.292-0.057,0.421l-0.033,0.078
				c-0.258,0.617-0.599,1.009-0.975,1.402c-0.192,0.19-0.382,0.383-0.6,0.559c-0.206,0.174-0.459,0.364-0.704,0.483l-0.219,0.107
				c-0.383,0.187-0.844,0.028-1.03-0.355C717.812,511.008,717.79,510.858,717.808,510.715z"/>
			<path style="fill:#FFFFFF;" d="M727.989,511.965c0.291-0.38,0.681-0.663,1.054-0.921c0.194-0.122,0.388-0.244,0.601-0.34
				c0.214-0.098,0.423-0.199,0.682-0.256l0.068-0.015c0.438-0.096,0.872,0.181,0.968,0.62c0.039,0.179,0.016,0.358-0.055,0.512
				c-0.125,0.272-0.303,0.493-0.495,0.696c-0.189,0.208-0.412,0.374-0.641,0.526c-0.476,0.29-0.966,0.507-1.595,0.544
				c-0.432,0.025-0.803-0.304-0.829-0.736c-0.011-0.195,0.049-0.377,0.159-0.521L727.989,511.965z"/>
			<path style="fill:#EE444C;" d="M677.351,522.336c6.669,1.92,13.967-6.73,12.627-12.404c-2.105-8.913-14.66-14.725-20.004-8.382
				C666.874,505.231,668.699,519.843,677.351,522.336z"/>
			<path style="fill:#FFFFFF;" d="M680.388,506.507c0.492,0.329,0.845,0.742,1.144,1.186c0.299,0.445,0.544,0.922,0.508,1.568
				c-0.016,0.29-0.265,0.512-0.555,0.496c-0.068-0.004-0.134-0.021-0.192-0.048c-0.587-0.272-0.893-0.713-1.144-1.186
				c-0.251-0.474-0.449-0.979-0.508-1.568c-0.026-0.265,0.167-0.501,0.432-0.527C680.188,506.417,680.298,506.448,680.388,506.507z"
				/>
			<path style="fill:#FFFFFF;" d="M676.095,513.904c0.37,0.195,0.759,0.504,1.089,0.818c0.177,0.152,0.344,0.312,0.479,0.502
				c0.123,0.191,0.273,0.404,0.299,0.604l0.039,0.289c0.03,0.226-0.128,0.433-0.354,0.463c-0.043,0.006-0.088,0.004-0.129-0.003
				c-0.377-0.069-0.581-0.189-0.814-0.326c-0.218-0.141-0.396-0.321-0.558-0.515c-0.337-0.384-0.628-0.773-0.797-1.384
				c-0.065-0.235,0.073-0.479,0.308-0.544c0.112-0.031,0.227-0.016,0.323,0.034L676.095,513.904z"/>
			<path style="fill:#EE444C;" d="M596.123,574.83c5.726-5.336,0.518-18.854-8.698-20.83c-9.216-1.976-19.488,4.923-17.102,13.636
				C572.371,575.121,589.818,580.705,596.123,574.83z"/>
			<path style="fill:#FFFFFF;" d="M578.765,565.781c0.354,0.047,0.585,0.115,0.811,0.202c0.231,0.078,0.415,0.199,0.617,0.321
				c0.187,0.141,0.379,0.287,0.556,0.489c0.175,0.193,0.371,0.426,0.495,0.743l0.109,0.278c0.172,0.439-0.044,0.935-0.484,1.107
				c-0.028,0.011-0.057,0.021-0.085,0.028c-0.44,0.121-0.79,0.111-1.148,0.035c-0.356-0.069-0.678-0.227-0.986-0.421
				c-0.581-0.41-1.125-1.07-1.123-1.961c0.001-0.478,0.389-0.865,0.866-0.864c0.036,0,0.073,0.002,0.108,0.007L578.765,565.781z"/>
			<path style="fill:#FFFFFF;" d="M588.406,560.193c0.734,0.035,1.326,0.417,1.775,0.882c0.218,0.242,0.411,0.505,0.544,0.807
				c0.147,0.3,0.214,0.615,0.23,1.018c0.018,0.439-0.324,0.809-0.763,0.827c-0.098,0.004-0.193-0.01-0.282-0.039l-0.268-0.09
				c-0.258-0.086-0.506-0.238-0.695-0.388c-0.203-0.148-0.371-0.316-0.536-0.483c-0.313-0.36-0.589-0.704-0.798-1.277l-0.044-0.12
				c-0.161-0.44,0.066-0.927,0.505-1.087C588.182,560.204,588.298,560.188,588.406,560.193z"/>
			<path style="fill:#FFFFFF;" d="M588.894,568.363c0.276,0.148,0.527,0.324,0.757,0.524c0.239,0.19,0.454,0.405,0.601,0.698
				c0.197,0.394,0.038,0.874-0.357,1.071c-0.206,0.103-0.438,0.108-0.638,0.034c-0.306-0.115-0.544-0.306-0.757-0.524
				c-0.223-0.208-0.424-0.439-0.601-0.698c-0.238-0.349-0.148-0.825,0.201-1.063C588.344,568.239,588.651,568.233,588.894,568.363z"
				/>
			<path style="fill:#FFE1F2;" d="M731.238,576.691c-0.29,0-0.583-0.072-0.853-0.224c-0.836-0.472-1.131-1.532-0.659-2.368
				c0.276-0.502,2.616-5.095-1.715-8.769c-4.488-3.806-9.206-0.605-9.254-0.572c-0.614,0.429-1.435,0.415-2.033-0.035
				c-0.6-0.449-0.844-1.231-0.608-1.942c0.111-0.344,2.685-8.658-5.84-13.977c-7.802-4.866-15.719,0.336-15.797,0.389
				c-0.795,0.535-1.875,0.323-2.412-0.473c-0.535-0.797-0.324-1.877,0.473-2.412c0.402-0.268,9.887-6.497,19.576-0.453
				c7.118,4.441,8.065,10.731,7.855,14.586c2.86-0.811,6.734-0.777,10.289,2.239c5.295,4.493,3.946,10.551,2.494,13.128
				C732.434,576.373,731.845,576.691,731.238,576.691z"/>
			<path style="fill:#FFE1F2;" d="M612.328,553.679c-0.458,0-0.916-0.181-1.258-0.539c-0.133-0.14-3.272-3.488-2.836-7.799
				c0.279-2.763,1.911-5.2,4.849-7.244c6.528-4.545,12.806-2.072,16.529,0.893c2.004-5.146,7.094-11.364,16.887-9.763
				c8.273,1.36,9.772,7.103,9.409,9.95c-0.121,0.951-0.982,1.615-1.945,1.504c-0.951-0.122-1.625-0.992-1.504-1.945
				c0.051-0.486,0.318-4.953-6.524-6.078c-11.394-1.876-13.666,9.404-13.758,9.885c-0.126,0.658-0.619,1.187-1.268,1.356
				c-0.647,0.171-1.339-0.051-1.769-0.563c-0.263-0.31-6.586-7.595-14.072-2.385c-2.067,1.438-3.203,3.033-3.376,4.741
				c-0.272,2.694,1.874,5.028,1.895,5.051c0.662,0.695,0.636,1.795-0.059,2.457C613.19,553.52,612.759,553.679,612.328,553.679z"/>
			<path style="fill:#76D9DC;" d="M678.41,700.924c-0.319,0-0.626-0.175-0.777-0.48c-0.216-0.429-0.043-0.95,0.387-1.165
				c0.171-0.086,4.285-2.082,11.13-1.963c2.954,0.058,5.119,0.461,7.213,0.85c2.746,0.511,5.121,0.954,8.789,0.53
				c3.456-0.398,5.696-1.921,7.674-3.265c1.035-0.705,2.014-1.37,3.075-1.823c5.165-2.2,9.294-0.812,9.468-0.753
				c0.454,0.158,0.694,0.653,0.536,1.106c-0.158,0.454-0.652,0.689-1.106,0.536c-0.032-0.011-3.695-1.214-8.216,0.71
				c-0.905,0.385-1.816,1.005-2.78,1.66c-2.037,1.385-4.571,3.108-8.452,3.555c-3.929,0.449-6.541-0.034-9.306-0.548
				c-2.025-0.376-4.118-0.765-6.929-0.82c-6.435-0.124-10.279,1.758-10.317,1.777C678.673,700.895,678.54,700.924,678.41,700.924z"
				/>
			<path style="fill:#76D9DC;" d="M620.071,696.07c-0.443,0-0.819-0.336-0.863-0.783c-0.015-0.092-0.514-2.828-7.229-2.705
				c-3.146,0.053-5.778,0.7-8.324,1.326c-3.649,0.896-7.422,1.82-12.481,0.888c-4.235-0.782-6.51-2.779-8.518-4.54
				c-1.366-1.198-2.654-2.329-4.451-3.014c-0.449-0.171-0.674-0.673-0.503-1.121c0.172-0.449,0.672-0.674,1.121-0.503
				c2.09,0.797,3.558,2.085,4.979,3.332c1.929,1.693,3.924,3.443,7.687,4.139c4.695,0.867,8.121,0.024,11.751-0.868
				c2.638-0.648,5.367-1.319,8.709-1.376c8.547-0.151,8.975,4.11,8.989,4.291c0.036,0.479-0.322,0.896-0.801,0.932
				C620.117,696.068,620.094,696.07,620.071,696.07z"/>
			<path style="fill:#76D9DC;" d="M759.831,688.271c-1.375,0-2.315-0.132-2.413-0.147c-0.474-0.07-0.802-0.511-0.733-0.986
				c0.069-0.474,0.508-0.798,0.986-0.734c0.055,0.008,5.724,0.795,9.618-1.745c2.125-1.387,2.939-2.55,3.971-4.023
				c0.943-1.346,2.013-2.873,4.26-4.898c1.775-1.601,3.862-2.424,5.879-3.222c2.145-0.847,4.171-1.647,5.445-3.304
				c2.176-2.831-0.651-5.9-0.772-6.029c-0.328-0.351-0.311-0.901,0.039-1.229c0.352-0.327,0.901-0.311,1.229,0.039
				c1.378,1.468,3.335,5.088,0.883,8.278c-1.567,2.038-3.915,2.964-6.184,3.862c-1.875,0.74-3.813,1.506-5.355,2.895
				c-2.1,1.894-3.109,3.334-4,4.605c-1.094,1.563-2.039,2.912-4.444,4.482C765.476,687.917,762.076,688.271,759.831,688.271z"/>
			<path style="fill:#6AE7CA;" d="M550.563,674.996c0-1.192,1.355-2.159,3.027-2.159c1.672,0,3.028,0.967,3.028,2.159
				c0,1.193-1.356,2.16-3.028,2.16C551.918,677.156,550.563,676.19,550.563,674.996z"/>
			<path style="fill:#6AE7CA;" d="M647.695,697.203c0-1.018,1.091-1.843,2.437-1.843c1.346,0,2.437,0.825,2.437,1.843
				c0,1.017-1.091,1.842-2.437,1.842C648.786,699.045,647.695,698.22,647.695,697.203z"/>
			<path style="fill:#6AE7CA;" d="M739.552,690.815c0-0.945,1.301-1.711,2.906-1.711c1.605,0,2.905,0.766,2.905,1.711
				c0,0.946-1.3,1.711-2.905,1.711C740.853,692.526,739.552,691.761,739.552,690.815z"/>
			<path style="fill:#FFBEE2;" d="M606.34,624.081c-16.453,0.001-24.471-12.354-25.957-14.919
				c-2.201,0.825-11.676,4.056-22.486,4.046l0.007-1.159c0.094,0,0.188,0.001,0.282,0.001c11.974,0,22.137-4.105,22.239-4.147
				l0.495-0.202l0.241,0.479c0.083,0.162,8.365,16.136,27.659,14.647c24.831-1.877,34.495-20.237,34.59-20.423l0.394-0.769
				l0.562,0.656c0.165,0.192,16.897,19.272,48.25,16.262c26.15-2.51,38.189-16.543,38.307-16.685l0.377-0.449l0.446,0.382
				c0.113,0.097,11.541,9.742,26.278,7.989c9.156-1.096,11.478-6.846,11.499-6.904l1.082,0.416
				c-0.102,0.264-2.602,6.46-12.443,7.637c-13.597,1.629-24.453-6.132-26.732-7.906c-2.265,2.406-14.639,14.363-38.703,16.673
				c-28.784,2.757-45.517-12.797-48.689-16.069c-2.093,3.474-12.483,18.633-35.13,20.346
				C608.03,624.049,607.174,624.081,606.34,624.081z"/>
			<path style="fill:#FFBEE2;" d="M667.542,710.141c-76.643,0-136.68-17.692-136.68-40.276c0-8.611,8.755-16.754,25.316-23.55
				l0.88,2.143c-15.622,6.411-23.88,13.813-23.88,21.407c0,9.744,14.163,19.419,38.856,26.547
				c25.495,7.358,59.413,11.411,95.507,11.411c36.094,0,70.012-4.053,95.507-11.411c24.694-7.128,38.857-16.804,38.857-26.547
				c0-8.66-10.993-17.204-30.954-24.059l0.753-2.19c21.273,7.304,32.518,16.381,32.518,26.25
				C804.223,692.449,744.185,710.141,667.542,710.141z"/>
		</g>
		<g style="clip-path:url(#SVGID_00000086670048081342694880000011385561661311517328_);">
			<ellipse style="opacity:0.25;fill:#FF88C3;" cx="317.589" cy="718.655" rx="53.197" ry="15.355"/>
			<path style="opacity:0.25;fill:#FF88C3;" d="M375.613,730.208c0-2.1,15.885-3.802,35.481-3.802
				c19.596,0,35.481,1.702,35.481,3.802s-15.885,3.802-35.481,3.802C391.499,734.01,375.613,732.308,375.613,730.208z"/>
			<path style="fill:#FFE263;" d="M392.559,654.465c0,0,7.594,75.824-55.679,77.043c-73.079,1.409-68.389-76.557-68.389-76.557
				s22.725,12.65,66.967,12.131C376.868,666.597,392.559,654.465,392.559,654.465z"/>
			<path style="fill:#FFC23D;" d="M268.384,653.292c0-6.367,27.815-11.529,62.126-11.529s62.126,5.161,62.126,11.529
				c0,6.366-27.815,11.528-62.126,11.528S268.384,659.659,268.384,653.292z"/>
			<path style="opacity:0.46;fill:#EEBF21;" d="M344.5,692.504c0,0,3.698,5.33,10.128,6.372c11.027,1.786,15.87-4.601,15.87-4.601
				s2.93,3.29,7.082,4.286c5.875,1.409,9.97-3.354,9.97-3.354s0.492-1.475,0.958-2.873c0.466-1.398,0.925-3.183,0.925-3.183
				l-19.867-11.089L344.5,692.504z"/>
			
				<linearGradient id="SVGID_00000157281247919281842930000002314903119904114071_" gradientUnits="userSpaceOnUse" x1="423.754" y1="731.1547" x2="421.0507" y2="704.3149">
				<stop  offset="0" style="stop-color:#FF88C3"/>
				<stop  offset="1" style="stop-color:#FFBEE2"/>
			</linearGradient>
			<path style="fill:url(#SVGID_00000157281247919281842930000002314903119904114071_);" d="M395.115,727.4
				c-6.579-8.281,2.608-18.944,8.848-21.212c7.169-2.608,13.726,0.68,13.726,0.68s2.638-5.78,8.053-5.218
				c8.735,0.908,13.272,9.642,13.272,9.642s8.394-4.424,12.704,4.651c2.034,4.282,0.227,12.25-7.6,13.612
				c-7.827,1.361-7.486-3.062-14.974-3.743C416.933,724.702,403.248,737.636,395.115,727.4z"/>
			
				<linearGradient id="SVGID_00000053543393936453169920000012789708459219085726_" gradientUnits="userSpaceOnUse" x1="351.1587" y1="689.1035" x2="351.4484" y2="650.2919">
				<stop  offset="0" style="stop-color:#FF88C3"/>
				<stop  offset="1" style="stop-color:#FFBEE2"/>
			</linearGradient>
			<path style="fill:url(#SVGID_00000053543393936453169920000012789708459219085726_);" d="M305.333,675.091
				c4.744,9.361,15.235,10.986,21.679,9.172c5.466-1.539,7.35-5.96,7.35-5.96s2.671,14.799,16.95,15.891
				c14.706,1.124,18.01-10.771,18.01-10.771s13.361,11.603,23.66,5.474c14.773-8.793-4.768-25.603-4.768-25.603
				s11.887-19.451-5.137-25.979c-15.318-5.874-21.171,15.386-21.171,15.386s-4.734-6.099-10.241-5.826
				c-11.472,0.567-11.124,11.3-11.124,11.3s-6.032-4.986-15.798-4.915C311.952,653.352,299.973,664.515,305.333,675.091z"/>
			<path style="fill:#FFE1F2;" d="M349.478,674.778c-0.259,0-0.519-0.086-0.734-0.263c-0.131-0.106-3.186-2.655-2.998-6.045
				c0.117-2.102,1.416-3.974,3.86-5.563c2.202-1.431,4.358-1.827,6.405-1.179c2.275,0.722,3.885,2.604,4.855,4.112
				c1.275-1.982,3.492-3.949,6.637-3.427c5.278,0.875,6.055,4.923,5.729,6.941c-0.102,0.63-0.69,1.06-1.329,0.958
				c-0.632-0.102-1.061-0.697-0.959-1.329c0.052-0.356,0.398-3.585-3.82-4.285c-3.527-0.584-5.1,3.994-5.116,4.04
				c-0.154,0.46-0.579,0.775-1.063,0.79c-0.498-0.024-0.928-0.276-1.11-0.725c-0.016-0.04-1.626-3.952-4.532-4.867
				c-1.372-0.436-2.822-0.134-4.435,0.915c-1.79,1.163-2.736,2.425-2.809,3.747c-0.122,2.194,2.132,4.108,2.154,4.127
				c0.495,0.405,0.567,1.136,0.161,1.63C350.145,674.633,349.813,674.778,349.478,674.778z"/>
			<path style="fill:#FFE89F;" d="M304.446,665.849c-0.028,0-0.056-0.001-0.085-0.003c-21.369-1.547-35.841-9.908-36.447-10.263
				c-0.552-0.324-0.737-1.033-0.414-1.584c0.324-0.554,1.034-0.738,1.585-0.415c0.144,0.085,14.641,8.445,35.443,9.952
				c0.638,0.047,1.118,0.601,1.072,1.239C305.557,665.384,305.048,665.849,304.446,665.849z"/>
			<path style="fill:#FFBEE2;" d="M353.219,694.848c-0.628,0-1.278-0.025-1.951-0.076c-11.873-0.908-15.986-11.121-17.114-14.938
				c-1.014,1.506-3.159,3.91-6.986,4.987c-7.447,2.096-17.813-0.509-22.352-9.469c-1.774-3.501-1.835-7.271-0.174-10.904
				l1.053,0.482c-1.508,3.3-1.455,6.724,0.154,9.9c4.778,9.428,15.42,10.447,21.005,8.876c5.139-1.447,6.957-5.588,6.975-5.63
				l0.758-1.776l0.346,1.901c0.106,0.586,2.769,14.372,16.424,15.415c14.071,1.107,17.376-10.233,17.408-10.347l0.245-0.884
				l0.692,0.601c0.131,0.114,13.168,11.253,22.984,5.414c3.201-1.905,4.953-4.349,5.207-7.264
				c0.701-8.042-9.948-17.309-10.056-17.402l-0.373-0.321l0.256-0.42c0.021-0.035,2.144-3.544,3.264-7.981l1.124,0.283
				c-0.948,3.756-2.543,6.797-3.154,7.881c1.949,1.762,10.776,10.208,10.093,18.058c-0.288,3.308-2.228,6.054-5.768,8.161
				c-9.354,5.566-20.839-2.729-23.69-5.002C368.544,686.983,364.447,694.848,353.219,694.848z"/>
		</g>
	</g>
	<g>
		<path style="fill:#A2A2D4;" d="M820.407,290.707c26.021-28.505,241.865-13.222,274.364,2.832
			c23.078,11.4,23.476,120.558,5.34,133.165c-15.992,11.115-69.323,13.601-124.81,15.315c-65.612,2.025-134.24,1.259-147.691-12.126
			c-9.222-9.177-13.438-33.951-15.568-64.215C810.015,336.853,809.576,302.572,820.407,290.707z"/>
		<path style="fill:#87546D;" d="M966.015,447.234h28.604v8.26c0,3.628-2.941,6.568-6.568,6.568h-15.467
			c-3.628,0-6.568-2.941-6.568-6.568V447.234z"/>
		<rect x="977.221" y="447.234" style="fill:#87546D;" width="7.298" height="94.715"/>
		<path style="fill:#CCCCE9;" d="M833.578,295.754c26.021-27.565,241.865-12.786,274.364,2.738
			c23.078,11.024,23.476,116.586,5.341,128.778c-15.992,10.749-68.397,14.324-123.885,15.981
			c-65.612,1.959-135.166,0.046-148.616-12.897c-9.222-8.875-13.438-32.832-15.568-62.099
			C823.186,340.38,822.747,307.228,833.578,295.754z"/>
		<path style="fill:#87546D;" d="M939.691,451.578c-3.135,0-5.704-2.497-5.789-5.637l-2.742-101.354
			c-0.087-3.197,2.436-5.861,5.634-5.947c3.18-0.095,5.859,2.435,5.947,5.634l2.59,95.685l66.652-0.393l-1.732-95.04
			c-0.059-3.198,2.487-5.839,5.686-5.897c0.035-0.001,0.071-0.001,0.108-0.001c3.15,0,5.732,2.524,5.789,5.688l1.84,100.903
			c0.028,1.548-0.565,3.043-1.646,4.151c-1.082,1.109-2.563,1.738-4.111,1.747l-78.189,0.461
			C939.715,451.578,939.703,451.578,939.691,451.578z"/>
		<path style="fill:#A3487E;" d="M846.751,414.376c0-4.989,4.178-9.033,9.331-9.033c5.153,0,9.331,4.044,9.331,9.033
			c0,4.988-4.178,9.032-9.331,9.032C850.929,423.408,846.751,419.364,846.751,414.376z"/>
		<path style="fill:#87546D;" d="M912.3,702.036c-0.66,0-1.332-0.125-1.98-0.392c-2.663-1.095-3.935-4.141-2.84-6.804
			l68.212-165.913c1.094-2.663,4.139-3.938,6.804-2.84c2.663,1.095,3.935,4.141,2.84,6.804l-68.212,165.913
			C916.296,700.819,914.351,702.036,912.3,702.036z"/>
		<path style="fill:#87546D;" d="M1050.219,681.186c-1.942,0-3.805-1.09-4.702-2.956l-69.701-145.062
			c-1.248-2.596-0.155-5.71,2.44-6.957c2.598-1.25,5.71-0.154,6.957,2.44l69.701,145.063c1.248,2.595,0.155,5.71-2.44,6.957
			C1051.745,681.021,1050.975,681.186,1050.219,681.186z"/>
		<path style="fill:#AF7998;" d="M970.093,716.035c-0.102,0-0.204-0.002-0.307-0.009c-2.874-0.166-5.07-2.631-4.902-5.506
			l10.426-179.913c0.166-2.874,2.609-5.084,5.507-4.902c2.874,0.166,5.07,2.632,4.903,5.506l-10.426,179.913
			C975.132,713.895,972.834,716.035,970.093,716.035z"/>
		<path style="fill:#AF7998;" d="M1004.708,495.944h-16.993c-2.879,0-5.213-2.334-5.213-5.214c0-2.879,2.334-5.214,5.213-5.214
			h16.993c2.879,0,5.213,2.334,5.213,5.214C1009.921,493.61,1007.587,495.944,1004.708,495.944z"/>
		
			<ellipse transform="matrix(0.1602 -0.9871 0.9871 0.1602 339.3593 1380.3292)" style="fill:#87546D;" cx="980.871" cy="490.73" rx="14.627" ry="14.627"/>
		<path style="fill:#E3E3F4;" d="M890.45,443.177c-0.028,0-0.056-0.001-0.085-0.004c-35.126-2.558-45.569-6.664-50.442-12.04
			c-8.151-8.995-13.487-30.121-15.865-62.794c-2.958-40.659-0.2-63.976,8.677-73.38c16.483-17.461,100.347-16.412,135.637-15.152
			c62.513,2.234,124.039,9.982,140.07,17.641c0.578,0.276,0.823,0.967,0.547,1.544c-0.277,0.577-0.97,0.821-1.544,0.547
			c-15.788-7.542-76.911-15.191-139.154-17.416c-72.833-2.603-122.884,2.79-133.868,14.426c-8.285,8.776-10.919,32.204-8.052,71.622
			c2.306,31.69,7.587,52.923,15.272,61.405c3.892,4.296,12.51,8.637,48.892,11.287c0.638,0.046,1.118,0.601,1.071,1.239
			C891.56,442.712,891.052,443.177,890.45,443.177z"/>
		<path style="fill:#A3487E;" d="M859.282,396.689h-6.399c-1.948,0-3.542-1.594-3.542-3.542c0-1.948,1.594-3.542,3.542-3.542h6.399
			c1.948,0,3.542,1.594,3.542,3.542C862.825,395.095,861.231,396.689,859.282,396.689z"/>
	</g>
</g>
</svg>
