<?xml version="1.0" encoding="utf-8"?>
<!-- Generator: Adobe Illustrator 27.5.0, SVG Export Plug-In . SVG Version: 6.00 Build 0)  -->
<svg version="1.1" xmlns="http://www.w3.org/2000/svg" xmlns:xlink="http://www.w3.org/1999/xlink" x="0px" y="0px"
	 viewBox="0 0 500 500" style="enable-background:new 0 0 500 500;" xml:space="preserve">

<g id="Ground">
	<path style="fill:none;stroke:#263238;stroke-linecap:round;stroke-miterlimit:10;" d="M51.83,434.959
		c0,0-13.066,7.307,94.072-4.567c107.138-11.874,187.273-21.922,235.18-10.961c47.907,10.961,56.617,17.355,56.617,17.355"/>
</g>
<g id="Mountain">
	<path style="fill:none;stroke:#263238;stroke-linecap:round;stroke-miterlimit:10;" d="M53.72,336.251
		c0,0,196.751-164.14,211.501-160.645c14.75,3.495,145.664,122.994,145.664,122.994l46.909-11.714"/>
</g>
<g id="Device">
	<g>
		<g>
			<g>
				<path style="fill:#FFFFFF;stroke:#263238;stroke-linecap:round;stroke-linejoin:round;stroke-miterlimit:10;" d="
					M243.527,408.201H82.582c-4.238,0-7.674-3.436-7.674-7.674V82.875c0-4.239,3.436-7.674,7.674-7.674h160.945
					c4.238,0,7.674,3.436,7.674,7.674v317.651C251.202,404.765,247.766,408.201,243.527,408.201z"/>
				<g>
					<defs>
						<rect id="XMLID_5_" x="82.743" y="111.765" width="160.623" height="259.87"/>
					</defs>
					<use xlink:href="#XMLID_5_"  style="overflow:visible;fill:#263238;"/>
					<clipPath id="XMLID_00000015313809294902684180000001642235244647571088_">
						<use xlink:href="#XMLID_5_"  style="overflow:visible;"/>
					</clipPath>
					
						<polygon style="opacity:0.3;clip-path:url(#XMLID_00000015313809294902684180000001642235244647571088_);fill:#FFFFFF;" points="
						243.366,284.317 93.633,371.635 243.366,371.635 					"/>
					
						<use xlink:href="#XMLID_5_"  style="overflow:visible;fill:none;stroke:#263238;stroke-linecap:round;stroke-linejoin:round;stroke-miterlimit:10;"/>
				</g>
				<path style="fill:#263238;" d="M180.516,93.577h-34.922c-1.315,0-2.381-1.066-2.381-2.381l0,0c0-1.315,1.066-2.381,2.381-2.381
					h34.922c1.315,0,2.381,1.066,2.381,2.381l0,0C182.897,92.511,181.83,93.577,180.516,93.577z"/>
				<path style="fill:#FFFFFF;stroke:#263238;stroke-width:0.7043;stroke-linecap:round;stroke-miterlimit:10;" d="M172.578,386.309
					c0-5.26-4.264-9.524-9.524-9.524c-5.26,0-9.524,4.264-9.524,9.524s4.264,9.524,9.524,9.524
					C168.314,395.833,172.578,391.569,172.578,386.309z"/>
				<rect x="158.227" y="381.482" style="fill:#263238;" width="9.654" height="9.654"/>
			</g>
		</g>
		<g>
			<path style="fill:none;stroke:#FFFFFF;stroke-linecap:round;stroke-miterlimit:10;" d="M189.014,169.387
				c1.426,0,2.682-0.995,2.949-2.396c0.181-0.948,0.278-1.926,0.278-2.928c0-8.525-6.685-15.469-15.095-15.926
				c-2.073-6.415-8.087-11.058-15.192-11.058c-8.82,0-15.97,7.15-15.97,15.97c0,0.435,0.031,0.862,0.065,1.288
				c-0.022,0-0.043-0.003-0.065-0.003c-6.691,0-12.115,5.424-12.115,12.115c0,0.01,0,0.02,0,0.03
				c0.004,1.622,1.385,2.906,3.007,2.906H189.014z"/>
			<g>
				
					<line style="fill:none;stroke:#FFFFFF;stroke-linecap:round;stroke-miterlimit:10;" x1="152.592" y1="172.324" x2="152.592" y2="186.275"/>
				
					<line style="fill:none;stroke:#FFFFFF;stroke-linecap:round;stroke-miterlimit:10;" x1="159.567" y1="179.3" x2="145.616" y2="179.3"/>
				
					<line style="fill:none;stroke:#FFFFFF;stroke-linecap:round;stroke-miterlimit:10;" x1="156.263" y1="175.629" x2="148.921" y2="182.971"/>
				
					<line style="fill:none;stroke:#FFFFFF;stroke-linecap:round;stroke-miterlimit:10;" x1="156.263" y1="182.971" x2="148.921" y2="175.629"/>
			</g>
			<g>
				
					<line style="fill:none;stroke:#FFFFFF;stroke-linecap:round;stroke-miterlimit:10;" x1="166.542" y1="185.908" x2="166.542" y2="195.453"/>
				
					<line style="fill:none;stroke:#FFFFFF;stroke-linecap:round;stroke-miterlimit:10;" x1="171.315" y1="190.681" x2="161.77" y2="190.681"/>
				
					<line style="fill:none;stroke:#FFFFFF;stroke-linecap:round;stroke-miterlimit:10;" x1="169.054" y1="188.169" x2="164.03" y2="193.192"/>
				
					<line style="fill:none;stroke:#FFFFFF;stroke-linecap:round;stroke-miterlimit:10;" x1="169.054" y1="193.192" x2="164.03" y2="188.169"/>
			</g>
			<g>
				
					<line style="fill:none;stroke:#FFFFFF;stroke-linecap:round;stroke-miterlimit:10;" x1="176.087" y1="171.59" x2="176.087" y2="181.135"/>
				
					<line style="fill:none;stroke:#FFFFFF;stroke-linecap:round;stroke-miterlimit:10;" x1="180.86" y1="176.363" x2="171.315" y2="176.363"/>
				
					<line style="fill:none;stroke:#FFFFFF;stroke-linecap:round;stroke-miterlimit:10;" x1="178.599" y1="173.851" x2="173.576" y2="178.875"/>
				
					<line style="fill:none;stroke:#FFFFFF;stroke-linecap:round;stroke-miterlimit:10;" x1="178.599" y1="178.875" x2="173.576" y2="173.851"/>
			</g>
		</g>
		<g>
			<path style="fill:#C6FF00;" d="M139.743,215.454c0-6.174,0.645-9.973,1.934-11.396c0.494-0.54,0.996-0.975,1.506-1.304
				c0.974-0.629,2.338-0.944,4.091-0.944c4.331,0,6.497,3.649,6.497,10.948c0,3.627-0.937,7.209-2.81,10.745
				c-0.825,1.528-1.656,3.028-2.496,4.496c-2.113,3.657-3.432,7.104-3.956,10.341h8.654v3.484h-13.15v-2.203
				c0-2.982,1.499-7.381,4.496-13.195c0.015-0.016,0.501-0.951,1.461-2.811c0.959-1.857,1.536-2.922,1.731-3.191
				c0.495-0.914,0.896-2.137,1.203-3.664c0.307-1.529,0.461-3.08,0.461-4.654c0-1.573-0.112-2.861-0.337-3.866
				c-0.225-1.004-0.502-1.667-0.831-1.989c-0.33-0.322-0.723-0.483-1.18-0.483c-0.458,0-0.828,0.09-1.113,0.27
				c-1.079,0.659-1.619,2.893-1.619,6.699v5.148h-4.541V215.454z"/>
			<path style="fill:#C6FF00;" d="M158.424,212.24c0-3.506,0.551-6.125,1.652-7.856c1.102-1.731,3.199-2.596,6.294-2.596
				c3.094,0,5.204,0.862,6.328,2.586c1.124,1.723,1.686,4.346,1.686,7.867v18.906c0,3.642-0.543,6.41-1.629,8.307
				c-1.087,1.896-3.208,2.844-6.362,2.844c-3.155,0-5.271-0.941-6.351-2.822c-1.079-1.88-1.619-4.656-1.619-8.328V212.24z
				 M169.754,211.993c0-3.837-0.817-5.898-2.45-6.183c-0.255-0.045-0.622-0.067-1.102-0.067c-0.48,0-0.94,0.09-1.382,0.27
				c-0.442,0.18-0.847,0.712-1.214,1.596c-0.368,0.885-0.551,2.338-0.551,4.361v19.288c0,0.06,0,0.12,0,0.18
				c0,3.567,0.442,5.695,1.326,6.384c0.45,0.36,0.993,0.54,1.63,0.54c0.637,0,1.09-0.03,1.36-0.09c0.285-0.03,0.592-0.18,0.922-0.45
				c0.974-0.748,1.461-2.885,1.461-6.406c0-0.06,0-0.112,0-0.157V211.993z"/>
			<path style="fill:#C6FF00;" d="M178.236,210.286c0-2.97,0.684-4.821,2.051-5.554c0.553-0.293,1.196-0.439,1.929-0.439
				c1.912,0,3.133,0.768,3.662,2.308c0.325,0.969,0.488,2.197,0.488,3.686v6.482c0,2.572-0.346,4.26-1.038,5.066
				c-0.692,0.805-1.693,1.208-3.003,1.208c-1.913,0-3.129-0.814-3.65-2.441c-0.293-0.936-0.439-2.214-0.439-3.833V210.286z
				 M183.852,209.786c0-1.741-0.249-2.799-0.745-3.174c-0.204-0.154-0.468-0.232-0.793-0.232c-0.659,0-1.084,0.298-1.275,0.892
				c-0.191,0.595-0.287,1.433-0.287,2.515v7.678c0,1.799,0.252,2.886,0.757,3.26c0.203,0.154,0.456,0.232,0.757,0.232
				c0.016,0,0.032,0,0.049,0c0.643,0,1.06-0.304,1.251-0.91c0.191-0.605,0.287-1.467,0.287-2.582V209.786z"/>
		</g>
		
			<line style="fill:none;stroke:#FFFFFF;stroke-linecap:round;stroke-miterlimit:10;" x1="91.5" y1="257.833" x2="234" y2="257.833"/>
		
			<line style="fill:none;stroke:#FFFFFF;stroke-linecap:round;stroke-miterlimit:10;" x1="91.5" y1="299.833" x2="234" y2="299.833"/>
		<g>
			<path style="fill:#FFFFFF;" d="M98.755,125.1h1.814v12.328H99.28v-4.945l0.119-4.609l-1.674,9.533h-1.31l-1.744-9.533
				l0.119,4.609v4.945h-1.282V125.1h1.807l1.765,10.135L98.755,125.1z"/>
			<path style="fill:#FFFFFF;" d="M102.446,130.234c0-1.705,0.392-2.767,1.177-3.187c0.317-0.168,0.686-0.252,1.106-0.252
				c1.097,0,1.798,0.441,2.102,1.324c0.187,0.556,0.28,1.261,0.28,2.115v3.719c0,1.475-0.198,2.444-0.595,2.907
				c-0.397,0.462-0.971,0.693-1.723,0.693c-1.097,0-1.795-0.467-2.094-1.401c-0.168-0.537-0.252-1.27-0.252-2.199V130.234z
				 M105.668,129.947c0-0.999-0.142-1.606-0.427-1.821c-0.117-0.088-0.269-0.133-0.455-0.133c-0.378,0-0.623,0.17-0.732,0.511
				c-0.11,0.341-0.164,0.822-0.164,1.443v4.406c0,1.032,0.145,1.655,0.434,1.87c0.117,0.088,0.262,0.133,0.435,0.133
				c0.009,0,0.019,0,0.028,0c0.369,0,0.608-0.174,0.718-0.521c0.11-0.348,0.165-0.842,0.165-1.481V129.947z"/>
			<path style="fill:#FFFFFF;" d="M110.445,128.035c0.094-0.341,0.298-0.634,0.613-0.879c0.315-0.245,0.707-0.368,1.176-0.368
				c0.47,0,0.85,0.19,1.142,0.571c0.292,0.381,0.438,0.945,0.438,1.692v8.377h-1.436v-8.37c0-0.355-0.082-0.621-0.246-0.798
				c-0.163-0.178-0.39-0.266-0.679-0.266c-0.289,0-0.53,0.1-0.721,0.301c-0.192,0.201-0.288,0.502-0.288,0.904v8.23h-1.435v-10.506
				h1.435V128.035z"/>
			<path style="fill:#FFFFFF;" d="M115.971,136.041h1.226v1.387h-1.226V136.041z"/>
		</g>
		<g>
			<path style="fill:#FFFFFF;" d="M92.628,263.748h2.65v0.784h-0.826v7.244h-0.94v-7.244h-0.885V263.748z"/>
			<path style="fill:#FFFFFF;" d="M98.216,264.934h0.94v6.843h-0.94v-0.698c-0.073,0.231-0.198,0.421-0.376,0.568
				c-0.178,0.148-0.417,0.221-0.716,0.221c-0.299,0-0.556-0.123-0.771-0.371c-0.215-0.248-0.322-0.629-0.322-1.143v-5.42h0.935
				v5.315c0,0.538,0.196,0.808,0.588,0.808c0.219,0,0.384-0.076,0.495-0.228c0.111-0.151,0.166-0.353,0.166-0.602V264.934z"/>
			<path style="fill:#FFFFFF;" d="M100.387,267.055c0-0.863,0.155-1.464,0.465-1.802c0.244-0.268,0.603-0.401,1.077-0.401
				c0.688,0,1.119,0.297,1.296,0.89c0.097,0.335,0.146,0.786,0.146,1.355v1.291h-2.044v1.364c0,0.593,0.047,0.963,0.142,1.108
				c0.094,0.146,0.243,0.219,0.447,0.219s0.34-0.085,0.408-0.255c0.069-0.171,0.104-0.355,0.107-0.555
				c0.003-0.199,0.004-0.367,0.004-0.504v-0.552h0.917v0.292c0,0.727-0.051,1.236-0.153,1.528c-0.102,0.292-0.256,0.502-0.463,0.632
				c-0.207,0.129-0.463,0.193-0.769,0.193c-0.306,0-0.551-0.039-0.734-0.116c-0.184-0.077-0.33-0.181-0.438-0.308
				c-0.108-0.128-0.203-0.332-0.285-0.611c-0.082-0.28-0.123-0.73-0.123-1.351V267.055z M102.436,266.882
				c0-0.487-0.018-0.78-0.052-0.881c-0.035-0.101-0.08-0.189-0.135-0.265c-0.055-0.076-0.153-0.114-0.296-0.114
				c-0.274,0-0.447,0.115-0.52,0.345c-0.073,0.229-0.109,0.545-0.109,0.946v0.84h1.113V266.882z"/>
			<path style="fill:#FFFFFF;" d="M107.294,270.207c-0.003,1.107-0.491,1.66-1.464,1.66c-0.493,0-0.862-0.156-1.108-0.47
				c-0.246-0.313-0.37-0.816-0.37-1.51v-0.516h0.908v0.511c0,0.791,0.18,1.187,0.539,1.187c0.198,0,0.34-0.064,0.426-0.191
				c0.087-0.128,0.13-0.35,0.13-0.666c0-0.496-0.228-0.968-0.685-1.414c-0.033-0.034-0.112-0.109-0.237-0.227
				c-0.124-0.116-0.206-0.195-0.246-0.234c-0.593-0.565-0.89-1.19-0.89-1.875c0-0.541,0.128-0.945,0.383-1.211
				c0.255-0.267,0.619-0.399,1.09-0.399c0.319,0,0.579,0.065,0.78,0.196c0.42,0.273,0.63,0.92,0.63,1.939v0.328h-0.89v-0.474
				c0-0.398-0.039-0.696-0.116-0.892c-0.078-0.195-0.211-0.294-0.399-0.294s-0.33,0.06-0.424,0.178
				c-0.094,0.119-0.141,0.319-0.141,0.603c0,0.444,0.208,0.873,0.625,1.286l0.493,0.461
				C106.972,268.799,107.294,269.475,107.294,270.207z"/>
			<path style="fill:#FFFFFF;" d="M108.348,270.873h0.798v0.903h-0.798V270.873z"/>
		</g>
		<g>
			<path style="fill:#FFFFFF;" d="M97.545,305.748h0.867l-0.949,8.028h-0.936l-0.857-5.926l-0.908,5.926H93.85l-1.058-8.028h0.871
				l0.685,6.153l0.912-6.153h0.771l0.935,6.153L97.545,305.748z"/>
			<path style="fill:#FFFFFF;" d="M99.237,309.055c0-0.863,0.155-1.464,0.465-1.802c0.244-0.268,0.603-0.401,1.077-0.401
				c0.688,0,1.119,0.297,1.296,0.89c0.097,0.335,0.146,0.786,0.146,1.355v1.291h-2.044v1.364c0,0.593,0.047,0.963,0.142,1.108
				c0.094,0.146,0.243,0.219,0.447,0.219c0.204,0,0.34-0.085,0.408-0.255c0.069-0.171,0.104-0.355,0.107-0.555
				c0.003-0.199,0.004-0.367,0.004-0.504v-0.552h0.917v0.292c0,0.727-0.051,1.236-0.153,1.528c-0.102,0.292-0.256,0.502-0.463,0.632
				c-0.207,0.129-0.463,0.193-0.769,0.193c-0.306,0-0.551-0.039-0.734-0.116c-0.184-0.077-0.33-0.181-0.438-0.308
				c-0.108-0.128-0.203-0.332-0.285-0.611c-0.082-0.28-0.124-0.73-0.124-1.351V309.055z M101.286,308.882
				c0-0.487-0.018-0.78-0.052-0.881c-0.035-0.101-0.08-0.189-0.135-0.265c-0.055-0.076-0.153-0.114-0.296-0.114
				c-0.274,0-0.447,0.115-0.52,0.345c-0.073,0.229-0.109,0.545-0.109,0.946v0.84h1.113V308.882z"/>
			<path style="fill:#FFFFFF;" d="M105.419,305.661h0.939v8.115h-0.939v-0.575c-0.17,0.423-0.485,0.635-0.944,0.635
				c-0.629,0-0.999-0.415-1.108-1.246c-0.037-0.276-0.055-0.61-0.055-1.003V309c0-0.824,0.134-1.406,0.402-1.747
				c0.213-0.268,0.514-0.401,0.903-0.401c0.17,0,0.328,0.05,0.472,0.15c0.145,0.101,0.255,0.23,0.331,0.388V305.661z
				 M105.423,308.987c0-0.48-0.04-0.825-0.121-1.035c-0.081-0.21-0.236-0.315-0.465-0.315c-0.23,0-0.385,0.106-0.465,0.317
				c-0.081,0.212-0.121,0.563-0.121,1.057v2.764c0,0.669,0.088,1.074,0.265,1.214c0.073,0.058,0.176,0.087,0.31,0.087
				c0.134,0,0.243-0.037,0.329-0.109c0.179-0.152,0.269-0.564,0.269-1.233V308.987z"/>
			<path style="fill:#FFFFFF;" d="M107.805,312.873h0.798v0.903h-0.798V312.873z"/>
		</g>
		<g>
			<path style="fill:none;stroke:#FFFFFF;stroke-linecap:round;stroke-miterlimit:10;" d="M151.427,286.84
				c0.78,0,1.467-0.544,1.613-1.31c0.099-0.519,0.152-1.053,0.152-1.601c0-4.662-3.656-8.46-8.255-8.709
				c-1.134-3.508-4.423-6.047-8.308-6.047c-4.824,0-8.734,3.91-8.734,8.734c0,0.238,0.017,0.471,0.036,0.704
				c-0.012,0-0.024-0.002-0.036-0.002c-3.659,0-6.625,2.966-6.625,6.625c0,0.006,0,0.011,0,0.017c0.002,0.887,0.757,1.59,1.644,1.59
				H151.427z"/>
			<path style="fill:none;stroke:#FFFFFF;stroke-linecap:round;stroke-miterlimit:10;" d="M123.879,279.952
				c-2.307-0.976-3.925-3.26-3.925-5.922c0-3.549,2.877-6.427,6.427-6.427c2.279,0,4.282,1.187,5.423,2.976"/>
			
				<line style="fill:none;stroke:#FFFFFF;stroke-linecap:round;stroke-miterlimit:10;" x1="126.38" y1="261.948" x2="126.38" y2="266.061"/>
			
				<line style="fill:none;stroke:#FFFFFF;stroke-linecap:round;stroke-miterlimit:10;" x1="114.555" y1="273.516" x2="118.411" y2="273.516"/>
			
				<line style="fill:none;stroke:#FFFFFF;stroke-linecap:round;stroke-miterlimit:10;" x1="120.468" y1="279.943" x2="117.64" y2="282.256"/>
			
				<line style="fill:none;stroke:#FFFFFF;stroke-linecap:round;stroke-miterlimit:10;" x1="117.897" y1="265.29" x2="120.725" y2="268.117"/>
		</g>
		<g>
			<path style="fill:none;stroke:#FFFFFF;stroke-linecap:round;stroke-miterlimit:10;" d="M151.427,327.2
				c0.78,0,1.467-0.544,1.613-1.31c0.099-0.519,0.152-1.053,0.152-1.601c0-4.662-3.656-8.46-8.255-8.709
				c-1.134-3.508-4.423-6.047-8.308-6.047c-4.824,0-8.734,3.91-8.734,8.733c0,0.238,0.017,0.471,0.036,0.704
				c-0.012,0-0.024-0.002-0.036-0.002c-3.659,0-6.625,2.966-6.625,6.625c0,0.006,0,0.011,0,0.017c0.002,0.887,0.757,1.59,1.644,1.59
				H151.427z"/>
			<path style="fill:none;stroke:#FFFFFF;stroke-linecap:round;stroke-miterlimit:10;" d="M123.879,320.312
				c-2.307-0.976-3.925-3.26-3.925-5.922c0-3.549,2.877-6.427,6.427-6.427c2.279,0,4.282,1.187,5.423,2.976"/>
			
				<line style="fill:none;stroke:#FFFFFF;stroke-linecap:round;stroke-miterlimit:10;" x1="126.38" y1="302.308" x2="126.38" y2="306.421"/>
			
				<line style="fill:none;stroke:#FFFFFF;stroke-linecap:round;stroke-miterlimit:10;" x1="114.555" y1="313.876" x2="118.411" y2="313.876"/>
			
				<line style="fill:none;stroke:#FFFFFF;stroke-linecap:round;stroke-miterlimit:10;" x1="120.468" y1="320.302" x2="117.64" y2="322.616"/>
			
				<line style="fill:none;stroke:#FFFFFF;stroke-linecap:round;stroke-miterlimit:10;" x1="117.897" y1="305.65" x2="120.725" y2="308.477"/>
		</g>
	</g>
</g>
<g id="Character">
	<g>
		<g>
			<ellipse style="fill:#C6FF00;" cx="335" cy="436" rx="51" ry="10"/>
			<ellipse style="opacity:0.5;fill:#FFFFFF;" cx="335" cy="436" rx="51" ry="10"/>
		</g>
		<g>
			<g>
				
					<path id="XMLID_76_" style="fill:#FFFFFF;stroke:#263238;stroke-linecap:round;stroke-linejoin:round;stroke-miterlimit:10;" d="
					M296.625,360.276c0,0,5.608-2.549,13.935-3.569c8.327-1.02,10.876,1.869,10.876,1.869S308.691,372.003,296.625,360.276z"/>
				
					<path id="XMLID_78_" style="fill:#FFFFFF;stroke:#263238;stroke-linecap:round;stroke-linejoin:round;stroke-miterlimit:10;" d="
					M330.443,356.198c0,0,8.667-6.968,15.805-10.536c7.138-3.569,8.837-1.19,8.837-1.19s0,4.588-5.098,10.027
					c-5.098,5.438-9.687,4.758-13.086,4.418C333.502,358.577,330.443,356.198,330.443,356.198z"/>
				<g>
					<g>
						<defs>
							<path id="XMLID_73_" d="M292.037,301.647c0,0-1.359,6.118,1.19,16.145c2.549,10.026,6.288,23.112,6.118,24.302
								c-0.17,1.19-0.85,18.354,0,21.753c0.85,3.399,5.608,4.758,11.216,4.249c5.608-0.51,7.478-2.379,8.497-5.948
								c1.02-3.569,2.719-28.38,2.719-28.38s11.046,21.413,12.236,24.981c1.19,3.569,8.327,5.608,13.765,4.418
								c5.438-1.19,7.307-8.157,7.138-12.576c-0.17-4.419-12.406-25.831-12.406-25.831l4.249-23.112l-36.028-18.524L292.037,301.647
								z"/>
						</defs>
						<use xlink:href="#XMLID_73_"  style="overflow:visible;fill:#FFFFFF;"/>
						<clipPath id="XMLID_00000155139497847072758910000009967959860786075566_">
							<use xlink:href="#XMLID_73_"  style="overflow:visible;"/>
						</clipPath>
						<path style="clip-path:url(#XMLID_00000155139497847072758910000009967959860786075566_);fill:#C6FF00;" d="M343.792,317.781
							l2.966-16.134l-36.028-18.524l-18.694,18.524c0,0-1.199,5.406,0.773,14.381c1.864,0.519,4.395,0.996,7.84,1.291
							c11.22,0.962,16.029,0.641,16.029,0.641S323.221,323.073,343.792,317.781z"/>
						<path style="opacity:0.5;clip-path:url(#XMLID_00000155139497847072758910000009967959860786075566_);fill:#FFFFFF;" d="
							M343.792,317.781l2.966-16.134l-36.028-18.524l-18.694,18.524c0,0-1.199,5.406,0.773,14.381
							c1.864,0.519,4.395,0.996,7.84,1.291c11.22,0.962,16.029,0.641,16.029,0.641S323.221,323.073,343.792,317.781z"/>
						
							<use xlink:href="#XMLID_73_"  style="overflow:visible;fill:none;stroke:#263238;stroke-linecap:round;stroke-linejoin:round;stroke-miterlimit:10;"/>
					</g>
					
						<path id="XMLID_74_" style="fill:#FFFFFF;stroke:#263238;stroke-linecap:round;stroke-linejoin:round;stroke-miterlimit:10;" d="
						M320.757,331.047c0,0-3.399-11.046-3.229-16.484"/>
				</g>
				
					<path id="XMLID_72_" style="fill:#263238;stroke:#263238;stroke-linecap:round;stroke-linejoin:round;stroke-miterlimit:10;" d="
					M296.625,360.276c0,0,3.909,3.229,11.896,2.549c7.987-0.68,12.916-4.249,12.916-4.249s-3.909,50.303-3.909,52.512
					s-0.51,10.027-0.51,11.726s0.68,1.699,0.68,4.249c0,2.549,0,4.249-0.85,5.268c-0.85,1.02-4.079,0.68-7.138,0.68
					c-3.059,0-5.098,2.549-9.517,3.739c-4.418,1.19-13.765,0.51-14.445-1.359c-0.68-1.869,6.458-5.608,10.027-9.517
					c3.569-3.909,6.118-9.517,6.118-11.896C301.893,411.599,296.625,360.276,296.625,360.276z"/>
				
					<path id="XMLID_75_" style="fill:#263238;stroke:#263238;stroke-linecap:round;stroke-linejoin:round;stroke-miterlimit:10;" d="
					M330.443,356.198c0,0,28.04,49.793,28.04,50.473c0,0.68-0.51,6.798-1.359,11.896c-0.85,5.098-3.399,12.576-1.359,12.576
					c2.039,0,10.026-4.928,12.746-9.517c2.719-4.588,3.059-10.197,3.739-11.896c0.68-1.7,2.209-1.7,3.229-4.758
					c1.02-3.059,0.51-6.118-1.19-7.477c-1.699-1.36-8.327-3.569-8.327-3.569l-10.876-49.453
					C355.085,344.472,351.516,357.048,330.443,356.198z"/>
			</g>
			
				<ellipse id="XMLID_51_" transform="matrix(0.7071 -0.7071 0.7071 0.7071 18.4063 299.3493)" style="fill:#C6FF00;stroke:#263238;stroke-linecap:round;stroke-linejoin:round;stroke-miterlimit:10;" cx="370.55" cy="127.456" rx="10.366" ry="10.366"/>
			<path id="XMLID_66_" style="fill:#FFFFFF;stroke:#263238;stroke-linecap:round;stroke-linejoin:round;stroke-miterlimit:10;" d="
				M402.839,218.035c0,0,4.758-5.608,6.628-6.458c1.869-0.85,7.137-0.51,9.007-1.869c1.869-1.359,3.909,1.02,3.229,3.399
				c-0.68,2.379-3.229,3.739-4.249,4.079c-1.02,0.34,6.288,1.02,6.288,1.02s4.419-7.138,6.288-5.268
				c1.869,1.869-1.699,11.896-3.569,13.765c-1.869,1.869-4.588,3.229-12.236,3.059c-7.647-0.17-11.386-0.85-11.386-0.85V218.035z"/>
			<path id="XMLID_71_" style="fill:#FFFFFF;stroke:#263238;stroke-linecap:round;stroke-linejoin:round;stroke-miterlimit:10;" d="
				M248.022,197.982c-0.51-0.68-2.719-4.928-7.138-6.798c-4.419-1.869-9.347-0.68-11.386-1.02c-2.039-0.34-4.079,0.85-3.569,2.719
				c0.51,1.869,2.719,2.039,3.909,2.719c1.19,0.68-3.739,2.379-5.098,2.379c-1.359,0-3.909-6.458-6.968-4.249
				c-3.059,2.209,1.529,8.327,4.079,11.386c2.549,3.059,7.987,3.399,11.556,3.059c3.569-0.34,10.706-0.51,10.706-0.51
				L248.022,197.982z"/>
			<g>
				<g>
					<defs>
						<path id="XMLID_55_" d="M312.939,173.34c0,0-6.628,1.36-9.687,5.268c-3.059,3.909-24.302,32.969-24.302,32.969
							s-1.36-0.85-2.379,0c-1.02,0.85-1.02,0.85-1.02,0.85s-25.151-18.524-26.171-18.184c-1.02,0.34-10.876,13.255-10.536,14.785
							c0.34,1.529,31.609,26.001,36.028,26.341c4.418,0.34,5.438,0,6.288-0.68c0.85-0.68,14.955-10.536,14.955-10.536l1.02,13.425
							c0,0-14.785,31.269-14.955,61.009c0,0,3.229,8.667,22.432,12.236c0,0,1.19-1.189,1.869-2.889
							c0.68-1.699,2.719-9.347,2.719-9.347s1.02,11.726,2.379,12.746c1.359,1.02,16.654-0.51,31.269-3.739
							c14.615-3.229,17.504-6.118,17.504-8.837c0-2.719-5.438-42.655-12.236-59.31l5.098-7.308c0,0,6.628,10.366,10.027,11.556
							c3.399,1.19,37.217-5.948,40.276-7.307c3.059-1.359,2.719-1.529,2.719-2.719c0-1.19-0.85-15.975-3.059-16.484
							c-2.209-0.51-25.321,3.059-26.171,3.059s-2.549-1.36-3.059-1.36c-0.51,0-0.51,0-0.51,0s0-23.452-3.739-31.439
							c-3.739-7.987-12.066-13.085-22.772-15.805C336.221,168.922,312.939,173.34,312.939,173.34z"/>
					</defs>
					<use xlink:href="#XMLID_55_"  style="overflow:visible;fill:#C6FF00;"/>
					<clipPath id="XMLID_00000017495352788121795960000013114990657637231013_">
						<use xlink:href="#XMLID_55_"  style="overflow:visible;"/>
					</clipPath>
					<g style="opacity:0.2;clip-path:url(#XMLID_00000017495352788121795960000013114990657637231013_);">
						<path d="M294.917,219.782l-0.353-6.349c0,0-2.469,4.233-5.644,5.997c-3.175,1.764-5.997,4.233-9.171,4.233
							c-3.175,0-37.744-14.815-35.627-10.582c2.116,4.233,20.812,21.87,28.572,22.928s13.052-1.411,13.052-1.411l10.23-8.113
							L294.917,219.782z"/>
						<path d="M406.227,234.521c-6.951,1.568-18.541,4.074-25.593,5.014c-10.582,1.411-19.401-1.411-22.223-3.175
							c-2.822-1.764-8.466-10.23-8.466-11.993c0-1.764,2.116-7.408,0-1.764c-2.116,5.644-5.997,12.699-8.819,16.226
							c-2.822,3.527,2.117,9.524,5.997,25.045c3.068,12.272,2.387,33.352,1.968,42.168c9.233-2.614,11.262-5.01,11.262-7.286
							c0-2.719-5.438-42.655-12.236-59.31l5.098-7.308c0,0,6.628,10.366,10.027,11.556c3.399,1.19,37.217-5.948,40.276-7.307
							C405.663,235.436,406.136,235.067,406.227,234.521z"/>
						<path d="M346.065,195.442c11.288-0.706,18.343-6.349,19.754-2.469c1.411,3.88,2.469,13.052,2.822,18.695
							c0.353,5.644,0.353,9.524,0.353,9.524s2.117-1.058,3.175,1.411c1.058,2.469,1.058,2.469,1.058,2.469l31.527-4.591
							c-0.422-1.832-0.942-3.15-1.575-3.296c-2.209-0.51-25.321,3.059-26.171,3.059s-2.549-1.359-3.059-1.359c-0.51,0-0.51,0-0.51,0
							s0-23.452-3.739-31.439c-3.739-7.987-12.066-13.085-22.772-15.805c-0.799-0.203-1.675-0.362-2.599-0.49
							c-13.317,8.251-15.196,22.175-15.196,22.175S334.777,196.148,346.065,195.442z"/>
					</g>
					
						<use xlink:href="#XMLID_55_"  style="overflow:visible;fill:none;stroke:#263238;stroke-linecap:round;stroke-linejoin:round;stroke-miterlimit:10;"/>
				</g>
				<g>
					<path id="XMLID_56_" style="fill:none;stroke:#263238;stroke-linecap:round;stroke-linejoin:round;stroke-miterlimit:10;" d="
						M323.646,187.106c0,0-11.556,20.563-13.765,31.439c-2.209,10.876-0.68,80.042-0.68,80.042"/>
					<path id="XMLID_58_" style="fill:none;stroke:#263238;stroke-linecap:round;stroke-linejoin:round;stroke-miterlimit:10;" d="
						M296.115,224.153c0,0-3.399-17.334-0.34-24.472"/>
					<path id="XMLID_59_" style="fill:none;stroke:#263238;stroke-linecap:round;stroke-linejoin:round;stroke-miterlimit:10;" d="
						M298.834,239.958c0,0,20.393,4.589,36.537,1.529"/>
					<path id="XMLID_61_" style="fill:none;stroke:#263238;stroke-linecap:round;stroke-linejoin:round;stroke-miterlimit:10;" d="
						M353.216,232.14c0,0-4.928-8.667-5.268-17.504"/>
					<path id="XMLID_62_" style="fill:none;stroke:#263238;stroke-linecap:round;stroke-linejoin:round;stroke-miterlimit:10;" d="
						M349.647,207.839c0,0,9.517-17.334,18.354-15.805"/>
					<path id="XMLID_63_" style="fill:none;stroke:#263238;stroke-linecap:round;stroke-linejoin:round;stroke-miterlimit:10;" d="
						M373.439,218.885c0,0-6.118,0.51-8.837,9.007"/>
					<path id="XMLID_64_" style="fill:none;stroke:#263238;stroke-linecap:round;stroke-linejoin:round;stroke-miterlimit:10;" d="
						M278.951,211.577c0,0,4.928,2.889,4.079,10.876"/>
					
						<polygon id="XMLID_57_" style="fill:#263238;stroke:#263238;stroke-linecap:round;stroke-linejoin:round;stroke-miterlimit:10;" points="
						298.664,257.292 286.768,269.867 286.598,272.926 299.514,261.03 					"/>
					
						<polygon id="XMLID_65_" style="fill:#263238;stroke:#263238;stroke-linecap:round;stroke-linejoin:round;stroke-miterlimit:10;" points="
						331.463,259.161 328.234,262.39 345.058,285.162 348.967,281.254 					"/>
					<path id="XMLID_67_" style="fill:none;stroke:#263238;stroke-linecap:round;stroke-linejoin:round;stroke-miterlimit:10;" d="
						M291.697,271.907c0,0,7.477,1.02,13.765,1.02"/>
					<path id="XMLID_68_" style="fill:none;stroke:#263238;stroke-linecap:round;stroke-linejoin:round;stroke-miterlimit:10;" d="
						M313.789,273.436c0,0,7.647,0.51,18.184-1.02"/>
					<path id="XMLID_69_" style="fill:none;stroke:#263238;stroke-linecap:round;stroke-linejoin:round;stroke-miterlimit:10;" d="
						M285.919,286.182c0,0,6.968,6.458,20.733,7.647"/>
					<path id="XMLID_70_" style="fill:none;stroke:#263238;stroke-linecap:round;stroke-linejoin:round;stroke-miterlimit:10;" d="
						M313.959,294.169c0,0,15.635,0.34,27.53-3.399"/>
				</g>
			</g>
			<g>
				<defs>
					<path id="XMLID_54_" d="M324.326,190.505c0,0-6.458,3.399-14.615-5.778c-8.157-9.177-1.529-24.811,6.458-30.419
						c7.987-5.608,21.413-7.647,29.57-6.458c8.157,1.19,11.726,8.497,11.216,20.223c-0.51,11.726-10.197,12.236-20.053,14.785
						S324.326,190.505,324.326,190.505z"/>
				</defs>
				<use xlink:href="#XMLID_54_"  style="overflow:visible;fill:#FFFFFF;"/>
				<clipPath id="XMLID_00000035526222618569958690000001104207500576946350_">
					<use xlink:href="#XMLID_54_"  style="overflow:visible;"/>
				</clipPath>
				<path style="clip-path:url(#XMLID_00000035526222618569958690000001104207500576946350_);fill:#C6FF00;" d="M319.042,163.311
					l1.359,5.707l-3.261-1.902l1.359,2.446l-2.718,0.272l3.805,2.99l-3.261,1.087l2.99,2.718l-1.359,1.631l5.979,3.533l4.077,2.174
					c0,0,20.655-7.338,22.83-8.697c2.174-1.359,6.523-10.871,5.707-13.589c-0.815-2.718-6.795-7.066-10.328-8.153
					C342.688,152.439,325.837,147.547,319.042,163.311z"/>
				<path style="opacity:0.5;clip-path:url(#XMLID_00000035526222618569958690000001104207500576946350_);fill:#FFFFFF;" d="
					M319.042,163.311l1.359,5.707l-3.261-1.902l1.359,2.446l-2.718,0.272l3.805,2.99l-3.261,1.087l2.99,2.718l-1.359,1.631
					l5.979,3.533l4.077,2.174c0,0,20.655-7.338,22.83-8.697c2.174-1.359,6.523-10.871,5.707-13.589
					c-0.815-2.718-6.795-7.066-10.328-8.153C342.688,152.439,325.837,147.547,319.042,163.311z"/>
				
					<use xlink:href="#XMLID_54_"  style="overflow:visible;fill:none;stroke:#263238;stroke-linecap:round;stroke-linejoin:round;stroke-miterlimit:10;"/>
			</g>
			<path id="XMLID_52_" style="fill:#FFFFFF;stroke:#263238;stroke-linecap:round;stroke-linejoin:round;stroke-miterlimit:10;" d="
				M326.535,170.622c0,0,0,3.909-0.51,9.687c-0.51,5.778-1.869,9.007-1.869,9.007s13.935-7.987,17.504-12.576
				c3.569-4.588,2.719-16.824,2.719-16.824s-3.399,2.719-9.857,6.288C328.064,169.772,326.535,170.622,326.535,170.622z"/>
			<g>
				<defs>
					<path id="XMLID_53_" d="M347.608,162.124c0,0,3.059,3.399-5.778,8.667c-8.837,5.268-15.295,5.948-18.184,14.615
						c-2.889,8.667,5.948,9.857,17.844,8.327c11.896-1.529,24.302-4.589,30.25-15.295c5.948-10.706,2.379-24.132-6.288-27.361
						C356.784,147.849,350.497,155.327,347.608,162.124z"/>
				</defs>
				<use xlink:href="#XMLID_53_"  style="overflow:visible;fill:#FFFFFF;"/>
				<clipPath id="XMLID_00000075859316993527055620000005857285712505366406_">
					<use xlink:href="#XMLID_53_"  style="overflow:visible;"/>
				</clipPath>
				<path style="clip-path:url(#XMLID_00000075859316993527055620000005857285712505366406_);fill:#C6FF00;" d="M365.451,151.078
					c-4.693-1.748-8.686-0.355-11.822,2.367c-1.473,1.69-2.832,3.331-3.963,4.731c-0.694,1.104-1.299,2.249-1.811,3.385
					c1.44-0.686,3.666-1.706,4.888-2.056c1.903-0.544,3.261-0.544,4.693-1.254c1.432-0.71,5.363,0.71,6.993,0.71
					c1.631,0,4.892,0.815,4.892,0.815l2.718,4.077c0,0-0.815,0.815-0.815,1.631c0,0.815,0,4.077-1.087,5.436l-0.544,5.164
					l-1.631-0.544c0,0-2.99,4.077-3.805,4.349c-0.815,0.272-1.631-1.359-1.631-1.359l-2.718,3.533l-0.815-1.359
					c0,0-4.62,4.62-5.979,6.523c-1.359,1.902-0.272-2.446-0.272-2.446l-5.164,3.261v-2.99l-5.436,3.805l-0.815-1.631l-6.794,3.805
					l-0.272-3.261l-7.338,1.902l-0.272-1.902l-3.502,1.401c0.682,5.221,8.45,5.833,18.339,4.562
					c11.896-1.53,24.302-4.588,30.25-15.295C377.687,167.732,374.118,154.307,365.451,151.078z"/>
				<path style="opacity:0.5;clip-path:url(#XMLID_00000075859316993527055620000005857285712505366406_);fill:#FFFFFF;" d="
					M365.451,151.078c-4.693-1.748-8.686-0.355-11.822,2.367c-1.473,1.69-2.832,3.331-3.963,4.731
					c-0.694,1.104-1.299,2.249-1.811,3.385c1.44-0.686,3.666-1.706,4.888-2.056c1.903-0.544,3.261-0.544,4.693-1.254
					c1.432-0.71,5.363,0.71,6.993,0.71c1.631,0,4.892,0.815,4.892,0.815l2.718,4.077c0,0-0.815,0.815-0.815,1.631
					c0,0.815,0,4.077-1.087,5.436l-0.544,5.164l-1.631-0.544c0,0-2.99,4.077-3.805,4.349c-0.815,0.272-1.631-1.359-1.631-1.359
					l-2.718,3.533l-0.815-1.359c0,0-4.62,4.62-5.979,6.523c-1.359,1.902-0.272-2.446-0.272-2.446l-5.164,3.261v-2.99l-5.436,3.805
					l-0.815-1.631l-6.794,3.805l-0.272-3.261l-7.338,1.902l-0.272-1.902l-3.502,1.401c0.682,5.221,8.45,5.833,18.339,4.562
					c11.896-1.53,24.302-4.588,30.25-15.295C377.687,167.732,374.118,154.307,365.451,151.078z"/>
				
					<use xlink:href="#XMLID_53_"  style="overflow:visible;fill:none;stroke:#263238;stroke-linecap:round;stroke-linejoin:round;stroke-miterlimit:10;"/>
			</g>
			<path id="XMLID_44_" style="fill:#263238;stroke:#263238;stroke-linecap:round;stroke-linejoin:round;stroke-miterlimit:10;" d="
				M356.954,155.157c0,0,7.478-6.288,9.687-15.125c2.209-8.837-3.229-16.994-9.347-18.524s-16.654-1.359-24.302,3.569
				c-7.647,4.928-7.987,6.798-7.987,6.798s18.184-5.948,24.472,5.098C355.765,148.019,356.954,155.157,356.954,155.157z"/>
			<path id="XMLID_46_" style="fill:#C6FF00;stroke:#263238;stroke-linecap:round;stroke-linejoin:round;stroke-miterlimit:10;" d="
				M322.796,141.731c-1.19-0.34-3.909-0.34-4.079-3.399c-0.17-3.059,5.268-9.347,10.027-10.876
				c4.758-1.529,17.164-0.34,23.112,7.137c5.948,7.478,6.628,16.824,6.118,20.733c-0.51,3.909-4.758,7.138-8.667,7.987
				c-3.909,0.85-6.118-1.699-6.628-2.379c-0.51-0.68,4.589-2.549,2.039-9.177c-2.549-6.628-9.517-12.406-14.785-13.086
				C324.665,137.993,322.796,141.731,322.796,141.731z"/>
			<g>
				
					<path id="XMLID_45_" style="fill:#FFFFFF;stroke:#263238;stroke-linecap:round;stroke-linejoin:round;stroke-miterlimit:10;" d="
					M324.156,135.953c0,0-4.758,7.307-5.268,14.955s-0.51,20.393,5.608,21.073c6.118,0.68,11.386-1.869,14.955-4.928
					c3.569-3.059,5.608-5.778,5.608-5.778s2.039,0.85,3.739-1.19c1.699-2.039,1.19-3.739,0.85-6.288
					C349.307,151.248,343.869,131.535,324.156,135.953z"/>
				<g>
					<path style="fill:#263238;" d="M349.655,153.853c-0.003-0.019-0.005-0.036-0.008-0.056c-0.119-0.893-0.868-3.896-2.635-7.228
						c-0.9,1.503-1.951,4.034-0.395,6.014C347.607,153.843,348.707,154.041,349.655,153.853z"/>
					<path style="fill:#263238;" d="M346.358,145.408c-3.021-5.096-8.463-10.461-17.667-10.063c-0.269,1.787-0.01,5.156,4.827,7.575
						C338.502,145.412,343.81,145.531,346.358,145.408z"/>
				</g>
				<path id="XMLID_47_" style="fill:none;stroke:#263238;stroke-linecap:round;stroke-linejoin:round;stroke-miterlimit:10;" d="
					M328.914,143.941c0,0-1.36,2.379-2.719,2.719s-4.758,1.869-3.229,3.399c1.529,1.529,4.928,0.17,4.928,0.17"/>
				<path id="XMLID_48_" style="fill:none;stroke:#263238;stroke-linecap:round;stroke-linejoin:round;stroke-miterlimit:10;" d="
					M322.286,153.287c0,0,2.379,2.719,7.478,0.85"/>
				<path id="XMLID_49_" style="fill:none;stroke:#263238;stroke-linecap:round;stroke-linejoin:round;stroke-miterlimit:10;" d="
					M332.143,147c0,0,3.569-2.039,5.268,1.19"/>
				<path id="XMLID_50_" style="fill:none;stroke:#263238;stroke-linecap:round;stroke-linejoin:round;stroke-miterlimit:10;" d="
					M326.025,145.3c0,0-1.699-1.529-3.569,0.34"/>
			</g>
		</g>
	</g>
</g>
<g id="Snow">
	<g>
		<path style="fill:#FFFFFF;stroke:#263238;stroke-width:0.5;stroke-linecap:round;stroke-miterlimit:10;" d="M283.146,193.481
			c-0.851,0.765-2.657,0.143-4.034-1.388c-1.377-1.531-1.803-3.393-0.952-4.158c0.851-0.765,2.657-0.143,4.034,1.388
			C283.571,190.855,283.997,192.716,283.146,193.481z"/>
		<path style="fill:#FFFFFF;stroke:#263238;stroke-width:0.5;stroke-linecap:round;stroke-miterlimit:10;" d="M357.358,225.379
			c-0.851,0.765-2.657,0.144-4.033-1.388c-1.377-1.531-1.803-3.393-0.952-4.158c0.851-0.765,2.657-0.144,4.033,1.388
			C357.783,222.753,358.209,224.615,357.358,225.379z"/>
		<path style="fill:#FFFFFF;stroke:#263238;stroke-width:0.5;stroke-linecap:round;stroke-miterlimit:10;" d="M231.113,187.093
			c-0.851,0.765-2.657,0.143-4.033-1.388c-1.377-1.531-1.803-3.393-0.952-4.158c0.851-0.765,2.657-0.143,4.033,1.388
			C231.537,184.467,231.964,186.328,231.113,187.093z"/>
		<path style="fill:#FFFFFF;stroke:#263238;stroke-width:0.5;stroke-linecap:round;stroke-miterlimit:10;" d="M201.793,192.025
			c-0.851,0.765-2.657,0.143-4.034-1.388c-1.377-1.531-1.803-3.393-0.952-4.158c0.851-0.765,2.657-0.143,4.034,1.388
			C202.217,189.399,202.643,191.26,201.793,192.025z"/>
		<path style="fill:#FFFFFF;stroke:#263238;stroke-width:0.5;stroke-linecap:round;stroke-miterlimit:10;" d="M253.362,219.221
			c-0.425,0.382-1.328,0.072-2.017-0.694c-0.688-0.766-0.902-1.697-0.476-2.079c0.425-0.383,1.328-0.072,2.017,0.694
			C253.575,217.907,253.788,218.838,253.362,219.221z"/>
		<path style="fill:#FFFFFF;stroke:#263238;stroke-width:0.5;stroke-linecap:round;stroke-miterlimit:10;" d="M267.399,172.979
			c-0.425,0.382-1.328,0.072-2.017-0.694c-0.688-0.766-0.902-1.697-0.476-2.079c0.425-0.382,1.328-0.072,2.017,0.694
			C267.611,171.666,267.825,172.597,267.399,172.979z"/>
		<path style="fill:#FFFFFF;stroke:#263238;stroke-width:0.5;stroke-linecap:round;stroke-miterlimit:10;" d="M293.437,229.252
			c-0.425,0.382-1.328,0.072-2.017-0.694c-0.688-0.766-0.902-1.697-0.476-2.079c0.425-0.382,1.328-0.072,2.017,0.694
			C293.649,227.938,293.862,228.869,293.437,229.252z"/>
		<path style="fill:#FFFFFF;stroke:#263238;stroke-width:0.5;stroke-linecap:round;stroke-miterlimit:10;" d="M282.106,128.982
			c-0.851,0.765-2.657,0.144-4.033-1.388c-1.377-1.532-1.803-3.393-0.952-4.158c0.851-0.765,2.657-0.143,4.034,1.388
			C282.53,126.355,282.957,128.217,282.106,128.982z"/>
		<path style="fill:#FFFFFF;stroke:#263238;stroke-width:0.5;stroke-linecap:round;stroke-miterlimit:10;" d="M236.065,113.251
			c-0.851,0.765-2.657,0.143-4.034-1.388s-1.803-3.393-0.952-4.158c0.851-0.765,2.657-0.143,4.033,1.388
			C236.489,110.625,236.916,112.486,236.065,113.251z"/>
		<path style="fill:#FFFFFF;stroke:#263238;stroke-width:0.5;stroke-linecap:round;stroke-miterlimit:10;" d="M252.322,154.721
			c-0.425,0.382-1.328,0.072-2.017-0.694c-0.688-0.766-0.902-1.697-0.476-2.079c0.425-0.382,1.328-0.072,2.017,0.694
			C252.535,153.408,252.748,154.339,252.322,154.721z"/>
		<path style="fill:#FFFFFF;stroke:#263238;stroke-width:0.5;stroke-linecap:round;stroke-miterlimit:10;" d="M266.359,108.48
			c-0.425,0.382-1.328,0.072-2.017-0.694c-0.688-0.766-0.902-1.697-0.476-2.079c0.426-0.382,1.328-0.072,2.017,0.694
			C266.571,107.166,266.784,108.097,266.359,108.48z"/>
		<path style="fill:#FFFFFF;stroke:#263238;stroke-width:0.5;stroke-linecap:round;stroke-miterlimit:10;" d="M223.524,141.094
			c-0.425,0.383-1.328,0.072-2.017-0.694c-0.688-0.766-0.902-1.697-0.476-2.079c0.425-0.383,1.328-0.072,2.017,0.694
			C223.737,139.78,223.95,140.711,223.524,141.094z"/>
		<path style="fill:#FFFFFF;stroke:#263238;stroke-width:0.5;stroke-linecap:round;stroke-miterlimit:10;" d="M292.397,164.752
			c-0.425,0.382-1.328,0.072-2.017-0.694c-0.688-0.766-0.902-1.697-0.476-2.079c0.425-0.382,1.328-0.072,2.017,0.694
			C292.609,163.439,292.822,164.37,292.397,164.752z"/>
		<path style="fill:#FFFFFF;stroke:#263238;stroke-width:0.5;stroke-linecap:round;stroke-miterlimit:10;" d="M347.146,122.481
			c-0.851,0.765-2.657,0.144-4.034-1.388c-1.377-1.532-1.803-3.393-0.952-4.158c0.851-0.765,2.657-0.144,4.034,1.388
			C347.571,119.855,347.997,121.716,347.146,122.481z"/>
		<path style="fill:#FFFFFF;stroke:#263238;stroke-width:0.5;stroke-linecap:round;stroke-miterlimit:10;" d="M315.146,69.481
			c-0.851,0.765-2.657,0.144-4.034-1.388c-1.377-1.532-1.803-3.393-0.952-4.158c0.851-0.765,2.657-0.144,4.034,1.388
			C315.571,66.855,315.997,68.716,315.146,69.481z"/>
		<path style="fill:#FFFFFF;stroke:#263238;stroke-width:0.5;stroke-linecap:round;stroke-miterlimit:10;" d="M317.362,148.221
			c-0.425,0.382-1.328,0.072-2.017-0.694c-0.688-0.766-0.902-1.697-0.476-2.079c0.425-0.383,1.328-0.072,2.017,0.694
			C317.575,146.907,317.788,147.838,317.362,148.221z"/>
		<path style="fill:#FFFFFF;stroke:#263238;stroke-width:0.5;stroke-linecap:round;stroke-miterlimit:10;" d="M331.399,101.979
			c-0.425,0.383-1.328,0.072-2.017-0.694c-0.688-0.766-0.902-1.697-0.476-2.079c0.425-0.382,1.328-0.072,2.017,0.694
			C331.611,100.666,331.825,101.597,331.399,101.979z"/>
		<path style="fill:#FFFFFF;stroke:#263238;stroke-width:0.5;stroke-linecap:round;stroke-miterlimit:10;" d="M357.437,158.252
			c-0.425,0.382-1.328,0.072-2.017-0.694c-0.688-0.766-0.902-1.697-0.476-2.079c0.425-0.382,1.328-0.072,2.017,0.694
			C357.649,156.938,357.862,157.869,357.437,158.252z"/>
		<path style="fill:#FFFFFF;stroke:#263238;stroke-width:0.5;stroke-linecap:round;stroke-miterlimit:10;" d="M399.606,96.866
			c-0.851,0.765-2.657,0.143-4.034-1.388c-1.377-1.531-1.803-3.393-0.952-4.158c0.851-0.765,2.657-0.144,4.034,1.388
			S400.456,96.101,399.606,96.866z"/>
		<path style="fill:#FFFFFF;stroke:#263238;stroke-width:0.5;stroke-linecap:round;stroke-miterlimit:10;" d="M373.105,92.751
			c-0.851,0.765-2.657,0.143-4.034-1.388c-1.377-1.532-1.803-3.393-0.952-4.158c0.851-0.765,2.657-0.144,4.033,1.388
			S373.956,91.986,373.105,92.751z"/>
		<path style="fill:#FFFFFF;stroke:#263238;stroke-width:0.5;stroke-linecap:round;stroke-miterlimit:10;" d="M369.822,122.605
			c-0.425,0.382-1.328,0.072-2.017-0.694c-0.688-0.766-0.902-1.697-0.476-2.079c0.426-0.382,1.328-0.072,2.017,0.694
			C370.034,121.292,370.247,122.223,369.822,122.605z"/>
		<path style="fill:#FFFFFF;stroke:#263238;stroke-width:0.5;stroke-linecap:round;stroke-miterlimit:10;" d="M383.859,76.364
			c-0.425,0.382-1.328,0.072-2.017-0.694c-0.689-0.766-0.902-1.697-0.476-2.079c0.425-0.382,1.328-0.072,2.017,0.694
			C384.071,75.051,384.284,75.981,383.859,76.364z"/>
		<path style="fill:#FFFFFF;stroke:#263238;stroke-width:0.5;stroke-linecap:round;stroke-miterlimit:10;" d="M409.896,132.637
			c-0.425,0.382-1.328,0.072-2.017-0.694c-0.688-0.766-0.902-1.697-0.476-2.079c0.425-0.382,1.328-0.072,2.017,0.694
			C410.108,131.323,410.322,132.254,409.896,132.637z"/>
		<path style="fill:#FFFFFF;stroke:#263238;stroke-width:0.5;stroke-linecap:round;stroke-miterlimit:10;" d="M413.606,198.866
			c-0.851,0.765-2.657,0.143-4.034-1.388c-1.377-1.531-1.803-3.393-0.952-4.158c0.851-0.765,2.657-0.144,4.034,1.388
			C414.03,196.24,414.456,198.101,413.606,198.866z"/>
		<path style="fill:#FFFFFF;stroke:#263238;stroke-width:0.5;stroke-linecap:round;stroke-miterlimit:10;" d="M371.065,179.251
			c-0.851,0.765-2.657,0.143-4.034-1.388c-1.377-1.531-1.803-3.393-0.952-4.158c0.851-0.765,2.657-0.143,4.033,1.388
			C371.49,176.625,371.916,178.486,371.065,179.251z"/>
		<path style="fill:#FFFFFF;stroke:#263238;stroke-width:0.5;stroke-linecap:round;stroke-miterlimit:10;" d="M383.822,224.605
			c-0.425,0.383-1.328,0.072-2.017-0.694c-0.688-0.766-0.902-1.697-0.476-2.079c0.426-0.382,1.328-0.072,2.017,0.694
			C384.034,223.292,384.247,224.223,383.822,224.605z"/>
		<path style="fill:#FFFFFF;stroke:#263238;stroke-width:0.5;stroke-linecap:round;stroke-miterlimit:10;" d="M397.859,178.364
			c-0.425,0.382-1.328,0.072-2.017-0.694c-0.689-0.766-0.902-1.697-0.476-2.079c0.425-0.383,1.328-0.072,2.017,0.694
			C398.071,177.051,398.284,177.982,397.859,178.364z"/>
		<path style="fill:#FFFFFF;stroke:#263238;stroke-width:0.5;stroke-linecap:round;stroke-miterlimit:10;" d="M302.129,81.787
			c-0.425,0.382-1.328,0.072-2.017-0.694c-0.688-0.766-0.902-1.697-0.476-2.079c0.425-0.382,1.328-0.072,2.017,0.694
			C302.342,80.474,302.555,81.405,302.129,81.787z"/>
		<path style="fill:#FFFFFF;stroke:#263238;stroke-width:0.5;stroke-linecap:round;stroke-miterlimit:10;" d="M423.896,234.637
			c-0.425,0.382-1.328,0.072-2.017-0.694c-0.688-0.766-0.902-1.697-0.476-2.079c0.425-0.382,1.328-0.072,2.017,0.694
			C424.108,233.323,424.322,234.254,423.896,234.637z"/>
		<path style="fill:#FFFFFF;stroke:#263238;stroke-width:0.5;stroke-linecap:round;stroke-miterlimit:10;" d="M430.065,253.251
			c-0.851,0.765-2.657,0.143-4.034-1.388c-1.377-1.531-1.803-3.393-0.952-4.158c0.851-0.765,2.657-0.143,4.033,1.388
			C430.49,250.625,430.916,252.486,430.065,253.251z"/>
		<path style="fill:#FFFFFF;stroke:#263238;stroke-width:0.5;stroke-linecap:round;stroke-miterlimit:10;" d="M403.564,249.135
			c-0.851,0.765-2.657,0.143-4.033-1.388c-1.377-1.531-1.803-3.393-0.952-4.158c0.851-0.765,2.657-0.143,4.034,1.388
			C403.989,246.509,404.415,248.371,403.564,249.135z"/>
		<path style="fill:#FFFFFF;stroke:#263238;stroke-width:0.5;stroke-linecap:round;stroke-miterlimit:10;" d="M400.281,278.991
			c-0.425,0.382-1.328,0.072-2.017-0.694c-0.688-0.766-0.902-1.697-0.476-2.079c0.425-0.382,1.328-0.072,2.017,0.694
			C400.493,277.677,400.707,278.608,400.281,278.991z"/>
		<path style="fill:#FFFFFF;stroke:#263238;stroke-width:0.5;stroke-linecap:round;stroke-miterlimit:10;" d="M234.485,73.501
			c-0.425,0.382-1.328,0.072-2.017-0.694c-0.688-0.766-0.902-1.696-0.476-2.079c0.425-0.382,1.328-0.072,2.017,0.694
			C234.697,72.188,234.911,73.119,234.485,73.501z"/>
		<path style="fill:#FFFFFF;stroke:#263238;stroke-width:0.5;stroke-linecap:round;stroke-miterlimit:10;" d="M414.318,232.749
			c-0.426,0.382-1.328,0.072-2.017-0.694c-0.688-0.766-0.902-1.697-0.476-2.079c0.425-0.382,1.328-0.072,2.017,0.694
			C414.53,231.436,414.743,232.367,414.318,232.749z"/>
		<path style="fill:#FFFFFF;stroke:#263238;stroke-width:0.5;stroke-linecap:round;stroke-miterlimit:10;" d="M440.356,289.022
			c-0.425,0.383-1.328,0.072-2.017-0.694c-0.688-0.766-0.902-1.697-0.476-2.079c0.425-0.382,1.328-0.072,2.017,0.694
			C440.568,287.708,440.781,288.639,440.356,289.022z"/>
		<path style="fill:#FFFFFF;stroke:#263238;stroke-width:0.5;stroke-linecap:round;stroke-miterlimit:10;" d="M330.583,330.863
			c-0.851,0.765-2.657,0.143-4.034-1.388c-1.377-1.531-1.803-3.393-0.952-4.158c0.851-0.765,2.657-0.143,4.034,1.388
			S331.434,330.098,330.583,330.863z"/>
		<path style="fill:#FFFFFF;stroke:#263238;stroke-width:0.5;stroke-linecap:round;stroke-miterlimit:10;" d="M318.105,255.751
			c-0.851,0.765-2.657,0.143-4.034-1.388c-1.377-1.532-1.803-3.393-0.952-4.158c0.851-0.765,2.657-0.143,4.033,1.388
			S318.956,254.986,318.105,255.751z"/>
		<path style="fill:#FFFFFF;stroke:#263238;stroke-width:0.5;stroke-linecap:round;stroke-miterlimit:10;" d="M314.822,285.605
			c-0.425,0.383-1.328,0.072-2.017-0.694c-0.688-0.766-0.902-1.697-0.476-2.079c0.426-0.382,1.328-0.072,2.017,0.694
			C315.034,284.292,315.247,285.223,314.822,285.605z"/>
		<path style="fill:#FFFFFF;stroke:#263238;stroke-width:0.5;stroke-linecap:round;stroke-miterlimit:10;" d="M328.859,239.364
			c-0.425,0.382-1.328,0.072-2.017-0.694c-0.689-0.766-0.902-1.697-0.476-2.079c0.425-0.383,1.328-0.072,2.017,0.694
			C329.071,238.051,329.284,238.982,328.859,239.364z"/>
		<path style="fill:#FFFFFF;stroke:#263238;stroke-width:0.5;stroke-linecap:round;stroke-miterlimit:10;" d="M354.896,295.637
			c-0.425,0.382-1.328,0.072-2.017-0.694c-0.688-0.766-0.902-1.697-0.476-2.079c0.425-0.382,1.328-0.072,2.017,0.694
			C355.108,294.323,355.322,295.254,354.896,295.637z"/>
		<path style="fill:#FFFFFF;stroke:#263238;stroke-width:0.5;stroke-linecap:round;stroke-miterlimit:10;" d="M206.377,263.723
			c0.692-0.911,2.582-0.64,4.223,0.605c1.64,1.245,2.409,2.994,1.717,3.905c-0.692,0.911-2.582,0.64-4.223-0.605
			C206.454,266.383,205.686,264.634,206.377,263.723z"/>
		<path style="fill:#FFFFFF;stroke:#263238;stroke-width:0.5;stroke-linecap:round;stroke-miterlimit:10;" d="M273.332,276.993
			c0.692-0.911,2.582-0.64,4.223,0.605c1.64,1.245,2.409,2.994,1.717,3.905c-0.692,0.911-2.582,0.64-4.223-0.605
			C273.408,279.653,272.64,277.905,273.332,276.993z"/>
		<path style="fill:#FFFFFF;stroke:#263238;stroke-width:0.5;stroke-linecap:round;stroke-miterlimit:10;" d="M238.007,286.382
			c0.692-0.911,2.582-0.64,4.223,0.605c1.64,1.246,2.409,2.994,1.717,3.905c-0.692,0.911-2.582,0.64-4.223-0.605
			C238.084,289.041,237.315,287.293,238.007,286.382z"/>
		<path style="fill:#FFFFFF;stroke:#263238;stroke-width:0.5;stroke-linecap:round;stroke-miterlimit:10;" d="M270.946,247.053
			c0.346-0.456,1.291-0.32,2.111,0.303c0.82,0.623,1.204,1.497,0.858,1.952c-0.346,0.456-1.291,0.32-2.111-0.303
			C270.985,248.383,270.6,247.509,270.946,247.053z"/>
		<path style="fill:#FFFFFF;stroke:#263238;stroke-width:0.5;stroke-linecap:round;stroke-miterlimit:10;" d="M265.849,295.109
			c0.346-0.456,1.291-0.32,2.111,0.303c0.82,0.623,1.204,1.497,0.858,1.953c-0.346,0.456-1.291,0.32-2.111-0.303
			C265.887,296.439,265.503,295.564,265.849,295.109z"/>
		<path style="fill:#FFFFFF;stroke:#263238;stroke-width:0.5;stroke-linecap:round;stroke-miterlimit:10;" d="M229.701,244.731
			c0.346-0.456,1.291-0.32,2.111,0.303c0.82,0.623,1.204,1.497,0.858,1.952c-0.346,0.456-1.291,0.32-2.111-0.303
			C229.739,246.061,229.355,245.187,229.701,244.731z"/>
		<path style="fill:#FFFFFF;stroke:#263238;stroke-width:0.5;stroke-linecap:round;stroke-miterlimit:10;" d="M221.088,353.425
			c0.692-0.911,2.582-0.64,4.223,0.605c1.64,1.246,2.409,2.994,1.717,3.905c-0.692,0.911-2.582,0.64-4.222-0.605
			C221.165,356.085,220.396,354.336,221.088,353.425z"/>
		<path style="fill:#FFFFFF;stroke:#263238;stroke-width:0.5;stroke-linecap:round;stroke-miterlimit:10;" d="M247.89,352.488
			c0.692-0.911,2.582-0.64,4.223,0.605c1.64,1.245,2.409,2.994,1.717,3.905c-0.692,0.911-2.582,0.64-4.223-0.605
			C247.967,355.147,247.198,353.399,247.89,352.488z"/>
		<path style="fill:#FFFFFF;stroke:#263238;stroke-width:0.5;stroke-linecap:round;stroke-miterlimit:10;" d="M245.505,322.548
			c0.346-0.456,1.291-0.32,2.111,0.303c0.82,0.623,1.204,1.497,0.858,1.952c-0.346,0.456-1.291,0.32-2.111-0.303
			C245.543,323.877,245.159,323.003,245.505,322.548z"/>
		<path style="fill:#FFFFFF;stroke:#263238;stroke-width:0.5;stroke-linecap:round;stroke-miterlimit:10;" d="M185.598,110.699
			c0.346-0.455,1.291-0.32,2.111,0.303c0.82,0.623,1.204,1.497,0.858,1.952c-0.346,0.456-1.291,0.32-2.111-0.303
			C185.637,112.029,185.253,111.155,185.598,110.699z"/>
		<path style="fill:#FFFFFF;stroke:#263238;stroke-width:0.5;stroke-linecap:round;stroke-miterlimit:10;" d="M240.407,370.603
			c0.346-0.456,1.291-0.32,2.111,0.303c0.82,0.623,1.204,1.497,0.858,1.953c-0.346,0.456-1.291,0.32-2.111-0.303
			C240.446,371.933,240.061,371.059,240.407,370.603z"/>
		<path style="fill:#FFFFFF;stroke:#263238;stroke-width:0.5;stroke-linecap:round;stroke-miterlimit:10;" d="M204.259,320.226
			c0.346-0.455,1.291-0.32,2.111,0.303c0.82,0.623,1.204,1.497,0.858,1.953c-0.346,0.456-1.291,0.32-2.111-0.303
			C204.298,321.555,203.913,320.681,204.259,320.226z"/>
		<path style="fill:#FFFFFF;stroke:#263238;stroke-width:0.5;stroke-linecap:round;stroke-miterlimit:10;" d="M368.372,338.52
			c0.692-0.911,2.582-0.64,4.223,0.605c1.64,1.245,2.409,2.994,1.717,3.905c-0.692,0.911-2.582,0.64-4.223-0.605
			C368.448,341.18,367.68,339.431,368.372,338.52z"/>
		<path style="fill:#FFFFFF;stroke:#263238;stroke-width:0.5;stroke-linecap:round;stroke-miterlimit:10;" d="M395.173,337.583
			c0.692-0.911,2.582-0.64,4.223,0.605c1.64,1.245,2.409,2.994,1.717,3.905c-0.692,0.911-2.582,0.64-4.223-0.605
			C395.25,340.242,394.481,338.494,395.173,337.583z"/>
		<path style="fill:#FFFFFF;stroke:#263238;stroke-width:0.5;stroke-linecap:round;stroke-miterlimit:10;" d="M392.788,307.643
			c0.346-0.456,1.291-0.32,2.111,0.303c0.82,0.623,1.204,1.497,0.858,1.952s-1.291,0.32-2.111-0.303
			C392.826,308.972,392.442,308.098,392.788,307.643z"/>
		<path style="fill:#FFFFFF;stroke:#263238;stroke-width:0.5;stroke-linecap:round;stroke-miterlimit:10;" d="M439.297,334.969
			c0.346-0.456,1.291-0.32,2.111,0.303c0.82,0.623,1.204,1.497,0.858,1.952c-0.346,0.456-1.291,0.32-2.111-0.303
			C439.335,336.299,438.951,335.425,439.297,334.969z"/>
		<path style="fill:#FFFFFF;stroke:#263238;stroke-width:0.5;stroke-linecap:round;stroke-miterlimit:10;" d="M387.691,355.698
			c0.346-0.456,1.291-0.32,2.111,0.303c0.82,0.623,1.204,1.497,0.858,1.953c-0.346,0.456-1.291,0.32-2.111-0.303
			C387.729,357.028,387.345,356.154,387.691,355.698z"/>
		<path style="fill:#FFFFFF;stroke:#263238;stroke-width:0.5;stroke-linecap:round;stroke-miterlimit:10;" d="M351.543,305.321
			c0.346-0.456,1.291-0.32,2.111,0.303c0.82,0.623,1.204,1.497,0.858,1.952c-0.346,0.456-1.291,0.32-2.111-0.303
			C351.581,306.65,351.197,305.776,351.543,305.321z"/>
		<path style="fill:#FFFFFF;stroke:#263238;stroke-width:0.5;stroke-linecap:round;stroke-miterlimit:10;" d="M309.585,395.668
			c0.692-0.911,2.582-0.64,4.223,0.605c1.64,1.245,2.409,2.994,1.717,3.905c-0.692,0.911-2.583,0.64-4.223-0.605
			C309.662,398.328,308.893,396.579,309.585,395.668z"/>
		<path style="fill:#FFFFFF;stroke:#263238;stroke-width:0.5;stroke-linecap:round;stroke-miterlimit:10;" d="M336.387,394.731
			c0.692-0.911,2.582-0.64,4.223,0.605c1.64,1.246,2.409,2.994,1.717,3.905c-0.692,0.911-2.582,0.64-4.223-0.605
			C336.463,397.39,335.695,395.642,336.387,394.731z"/>
		<path style="fill:#FFFFFF;stroke:#263238;stroke-width:0.5;stroke-linecap:round;stroke-miterlimit:10;" d="M334.001,364.79
			c0.346-0.456,1.291-0.32,2.111,0.303c0.82,0.623,1.204,1.497,0.858,1.952c-0.346,0.456-1.291,0.32-2.111-0.303
			C334.04,366.12,333.655,365.246,334.001,364.79z"/>
		<path style="fill:#FFFFFF;stroke:#263238;stroke-width:0.5;stroke-linecap:round;stroke-miterlimit:10;" d="M328.904,412.846
			c0.346-0.456,1.291-0.32,2.111,0.303c0.82,0.623,1.204,1.497,0.858,1.953c-0.346,0.456-1.291,0.32-2.111-0.303
			C328.942,414.176,328.558,413.302,328.904,412.846z"/>
		<path style="fill:#FFFFFF;stroke:#263238;stroke-width:0.5;stroke-linecap:round;stroke-miterlimit:10;" d="M292.756,362.469
			c0.346-0.456,1.291-0.32,2.111,0.303c0.82,0.623,1.204,1.497,0.858,1.952c-0.346,0.456-1.291,0.32-2.111-0.303
			C292.794,363.798,292.41,362.924,292.756,362.469z"/>
	</g>
</g>
</svg>
